<svg width="300" height="40" viewBox="0 0 300 40" fill="none" xmlns="http://www.w3.org/2000/svg">
<g clip-path="url(#clip0_1048_202)">
<path d="M69.9648 13.8008L68.4219 15.041C68.0443 14.4355 67.6309 13.8496 67.1816 13.2832C62.0384 13.8887 57.2728 14.2533 52.8848 14.377L52.4648 12.6973C54.3789 12.0788 56.4557 9.97266 58.6953 6.37891L60.7168 6.7793C59.3887 8.92773 57.8099 10.8418 55.9805 12.5215C58.5911 12.4238 61.8854 12.1634 65.8633 11.7402C65.0365 10.8288 64.0339 9.89453 62.8555 8.9375L64.3984 7.75586C66.7878 9.82617 68.6432 11.8411 69.9648 13.8008ZM68.1973 23.9961H66.3809V23.0977H55.8633V23.9961H54.0371V15.7246H68.1973V23.9961ZM66.3809 21.3594V17.4629H55.8633V21.3594H66.3809ZM85.2188 8.72266H80.4824V7.59961H82.0156C81.9635 7.37174 81.8529 7.0918 81.6836 6.75977L83.0605 6.39844C83.2363 6.6849 83.4089 7.08529 83.5781 7.59961H85.2188V8.72266ZM80.541 12.9805L79.5156 13.3613C79.5026 13.2181 79.4635 13.0716 79.3984 12.9219C78.6953 12.9805 77.6504 13.1139 76.2637 13.3223L75.9023 12.1992C76.4948 11.7695 77.1133 11.1966 77.7578 10.4805C76.9766 10.5586 76.5436 10.5977 76.459 10.5977L76.0586 9.50391C76.8854 8.76823 77.6471 7.74609 78.3438 6.4375L79.4961 6.87695C78.8385 7.93815 78.2135 8.77799 77.6211 9.39648C77.9792 9.41602 78.3372 9.38346 78.6953 9.29883L79.3398 8.2832L80.4434 8.85938C79.597 10.1224 78.6953 11.1706 77.7383 12.0039C78.168 11.9844 78.6009 11.929 79.0371 11.8379C78.959 11.5645 78.9004 11.3724 78.8613 11.2617L79.8184 10.9199C80.2025 11.8965 80.4434 12.5833 80.541 12.9805ZM89.7012 13.0781L88.6172 13.459L88.4805 12.9609C87.3737 13.1302 86.2995 13.2637 85.2578 13.3613L84.9844 12.2773C85.6745 11.8021 86.332 11.1966 86.957 10.4609L85.3848 10.5586L85.0234 9.48438C85.8372 8.85286 86.6217 7.85026 87.377 6.47656L88.5586 7.02344C87.8945 7.96745 87.263 8.74544 86.6641 9.35742C87.1589 9.35742 87.5495 9.32487 87.8359 9.25977C88.0247 9.05794 88.2591 8.70312 88.5391 8.19531L89.6426 8.72266C88.8288 10.0247 87.862 11.151 86.7422 12.1016C87.0221 12.0885 87.4616 12.0267 88.0605 11.916C88.0475 11.8379 87.9727 11.6654 87.8359 11.3984L88.8809 10.9785C89.2975 11.8314 89.571 12.5312 89.7012 13.0781ZM76.0195 8.97656L74.7598 10.1973C74.0827 9.30534 73.3079 8.49154 72.4355 7.75586L73.6953 6.51562C74.6589 7.30339 75.4336 8.1237 76.0195 8.97656ZM84.623 10.4609H80.8242V9.41602H84.623V10.4609ZM84.623 12.1602H80.8242V11.1445H84.623V12.1602ZM75.6777 14.1035L74.418 15.4219C73.513 14.25 72.7676 13.4297 72.1816 12.9609L73.3633 11.6621C74.2161 12.3652 74.9876 13.179 75.6777 14.1035ZM84.584 15.9004H80.8242V12.8242H84.584V15.9004ZM83.3047 14.8555V13.8594H82.084V14.8555H83.3047ZM80.4434 15.5977L79.3984 15.8809C79.3333 15.1647 79.1999 14.4714 78.998 13.8008L79.9844 13.5371C80.1862 14.2988 80.3392 14.9857 80.4434 15.5977ZM77.2207 13.8203C77.0254 14.7122 76.7715 15.5065 76.459 16.2031L75.3848 15.9199C75.8145 14.8587 76.0781 14.071 76.1758 13.5566L77.2207 13.8203ZM78.7441 16.0371L77.6602 16.2617C77.6602 15.487 77.5853 14.6992 77.4355 13.8984L78.4219 13.7031C78.5846 14.2891 78.6921 15.0671 78.7441 16.0371ZM89.7793 15.9199L88.6758 16.2422C88.4805 15.2461 88.3014 14.4974 88.1387 13.9961L89.2227 13.7227C89.4961 14.5234 89.6816 15.2559 89.7793 15.9199ZM86.3418 14.0352C86.2441 14.9857 86.1042 15.7604 85.9219 16.3594L84.8574 16.0176C85.0853 15.3926 85.2448 14.6602 85.3359 13.8203L86.3418 14.0352ZM87.9629 16.1152L86.8594 16.3594C86.9049 15.9232 86.8333 15.1484 86.6445 14.0352L87.6602 13.8984C87.8099 14.4779 87.9108 15.2168 87.9629 16.1152ZM89.1445 20.8027C89.099 22.0918 88.8906 22.9609 88.5195 23.4102C88.1549 23.8594 87.6276 24.084 86.9375 24.084H82.2988L81.8594 22.8047H86.6836C86.9635 22.8047 87.1426 22.5378 87.2207 22.0039H76.2246L77.3184 18.6641H86.6836V17.8242H76.3613V16.6426H88.4219V19.8848H78.7832L78.4414 20.8027H89.1445ZM75.8828 17.6387C75.1732 20.1777 74.418 22.3717 73.6172 24.2207L72.123 23.0586C72.9759 21.151 73.6953 19.0254 74.2812 16.6816L75.8828 17.6387ZM109.398 13.7422H107.68V10.5391H101.684V14.3965H100.023V10.5391H94.3594V13.7422H92.6602V9.12305H100.023V8.40039H93.4023V6.87695H108.539V8.40039H101.684V9.12305H109.398V13.7422ZM107.123 11.916C105.769 12.1439 104.288 12.2904 102.68 12.3555L102.279 11.2617C103.51 11.2422 104.916 11.1152 106.498 10.8809L107.123 11.916ZM99.418 11.2812L99.0957 12.4238C97.7546 12.2415 96.3971 12.1406 95.0234 12.1211L95.3848 10.998C96.485 10.9785 97.8294 11.0729 99.418 11.2812ZM99.5156 13.8789C98.2721 14.1068 96.8203 14.2533 95.1602 14.3184L94.8184 13.1562C96.1335 13.1432 97.582 13.026 99.1641 12.8047L99.5156 13.8789ZM106.996 13.3027L106.723 14.4355C105.134 14.1751 103.653 14.0156 102.279 13.957L102.68 12.8242C103.865 12.8503 105.303 13.0098 106.996 13.3027ZM109.76 21.7793C109.649 22.4303 109.47 22.9251 109.223 23.2637C108.975 23.6087 108.705 23.8138 108.412 23.8789C108.119 23.9505 106.918 23.9863 104.809 23.9863C103.057 23.9863 101.931 23.957 101.43 23.8984C100.935 23.8398 100.57 23.6673 100.336 23.3809C100.102 23.1009 99.9844 22.7005 99.9844 22.1797V21.0566H93.5586V14.9434H108.041V21.0566H101.703V21.6621C101.703 21.9355 101.804 22.1113 102.006 22.1895C102.214 22.2611 103.38 22.2969 105.502 22.2969C106.413 22.2969 106.98 22.2904 107.201 22.2773C107.429 22.2643 107.595 22.1797 107.699 22.0234C107.803 21.8672 107.855 21.6589 107.855 21.3984L109.76 21.7793ZM106.361 17.2969V16.2227H101.703V17.2969H106.361ZM99.9844 17.2969V16.2227H95.2773V17.2969H99.9844ZM106.361 19.7188V18.5762H101.703V19.7188H106.361ZM99.9844 19.7188V18.5762H95.2773V19.7188H99.9844ZM129.799 16.0566H122.064V22.2188C122.064 22.6354 121.938 22.9902 121.684 23.2832C121.436 23.5827 121.16 23.7715 120.854 23.8496C120.548 23.9342 119.916 23.9766 118.959 23.9766C118.471 23.9766 117.986 23.9635 117.504 23.9375L116.977 22.1992C117.764 22.2578 118.376 22.2871 118.812 22.2871C119.418 22.2871 119.802 22.2448 119.965 22.1602C120.134 22.0755 120.219 21.903 120.219 21.6426V16.0566H112.436V14.3184H120.219V11.877C121.723 11.0566 123.236 10.0052 124.76 8.72266H114.721V6.96484H127.621V8.72266C126.085 10.1484 124.232 11.5482 122.064 12.9219V14.3184H129.799V16.0566ZM149.398 13.7422H147.68V10.5391H141.684V14.3965H140.023V10.5391H134.359V13.7422H132.66V9.12305H140.023V8.40039H133.402V6.87695H148.539V8.40039H141.684V9.12305H149.398V13.7422ZM147.123 11.916C145.769 12.1439 144.288 12.2904 142.68 12.3555L142.279 11.2617C143.51 11.2422 144.916 11.1152 146.498 10.8809L147.123 11.916ZM139.418 11.2812L139.096 12.4238C137.755 12.2415 136.397 12.1406 135.023 12.1211L135.385 10.998C136.485 10.9785 137.829 11.0729 139.418 11.2812ZM139.516 13.8789C138.272 14.1068 136.82 14.2533 135.16 14.3184L134.818 13.1562C136.133 13.1432 137.582 13.026 139.164 12.8047L139.516 13.8789ZM146.996 13.3027L146.723 14.4355C145.134 14.1751 143.653 14.0156 142.279 13.957L142.68 12.8242C143.865 12.8503 145.303 13.0098 146.996 13.3027ZM149.76 21.7793C149.649 22.4303 149.47 22.9251 149.223 23.2637C148.975 23.6087 148.705 23.8138 148.412 23.8789C148.119 23.9505 146.918 23.9863 144.809 23.9863C143.057 23.9863 141.931 23.957 141.43 23.8984C140.935 23.8398 140.57 23.6673 140.336 23.3809C140.102 23.1009 139.984 22.7005 139.984 22.1797V21.0566H133.559V14.9434H148.041V21.0566H141.703V21.6621C141.703 21.9355 141.804 22.1113 142.006 22.1895C142.214 22.2611 143.38 22.2969 145.502 22.2969C146.413 22.2969 146.98 22.2904 147.201 22.2773C147.429 22.2643 147.595 22.1797 147.699 22.0234C147.803 21.8672 147.855 21.6589 147.855 21.3984L149.76 21.7793ZM146.361 17.2969V16.2227H141.703V17.2969H146.361ZM139.984 17.2969V16.2227H135.277V17.2969H139.984ZM146.361 19.7188V18.5762H141.703V19.7188H146.361ZM139.984 19.7188V18.5762H135.277V19.7188H139.984ZM162.641 15.1582L161.381 15.4805C161.335 15.0182 161.273 14.6634 161.195 14.416C160.095 14.6048 159.083 14.7448 158.158 14.8359L157.738 13.4199C158.148 12.9902 158.695 12.2773 159.379 11.2812C158.773 11.3333 158.288 11.3594 157.924 11.3594L157.602 10.0801C158.324 9.09049 158.871 7.90234 159.242 6.51562L160.775 7.00391C160.189 8.36458 159.711 9.29557 159.34 9.79688C159.62 9.81641 159.939 9.79036 160.297 9.71875C160.427 9.50391 160.648 9.06445 160.961 8.40039L162.318 9.12305C161.485 10.7116 160.531 12.1048 159.457 13.3027C159.887 13.2832 160.355 13.2279 160.863 13.1367C160.824 12.8698 160.736 12.5898 160.6 12.2969L161.801 11.877C162.257 13.2376 162.536 14.3314 162.641 15.1582ZM169.965 20.7246C169.607 23.0488 168.878 24.2109 167.777 24.2109C167.009 24.2109 166.13 23.5143 165.141 22.1211C163.513 23.1432 162.198 23.8301 161.195 24.1816L160.219 22.6777C162.035 21.9941 163.396 21.3073 164.301 20.6172C163.923 19.8034 163.611 18.7975 163.363 17.5996H160.502L160.482 18.0781C161.726 18.931 162.566 19.5723 163.002 20.002L161.918 21.3984C161.566 20.9948 161.02 20.5098 160.277 19.9434C159.854 21.7012 159.102 23.14 158.021 24.2598L156.576 23.2832C157.995 21.929 158.731 20.0345 158.783 17.5996H157.084V15.959H163.061C162.781 13.6608 162.595 10.513 162.504 6.51562H164.164C164.203 10.1354 164.389 13.2832 164.721 15.959H165.902C165.863 15.7702 165.756 15.5651 165.58 15.3438L167.436 14.9629C167.579 15.1908 167.761 15.5228 167.982 15.959H169.721V17.5996H165.062C165.154 18.1986 165.339 18.8333 165.619 19.5039C166.127 19.0286 166.592 18.4688 167.016 17.8242L168.539 18.5957C167.882 19.5788 167.175 20.3991 166.42 21.0566C167.019 21.8835 167.416 22.2969 167.611 22.2969C167.976 22.2969 168.227 21.4635 168.363 19.7969L169.965 20.7246ZM157.816 14.9238L156.781 15.9004C156.469 15.1973 156.215 14.6895 156.02 14.377V24.084H154.34V15.2559C153.956 16.7793 153.477 18.0553 152.904 19.084L152.123 16.9844C152.93 15.4349 153.562 13.6413 154.018 11.6035H152.318V9.92383H154.34V6.51562H156.02V9.92383H157.338V11.6035H156.02V11.916C156.859 13.0879 157.458 14.0905 157.816 14.9238ZM169.76 15.0605L168.539 15.4609L168.344 14.3379C167.178 14.5007 166.137 14.6341 165.219 14.7383L164.76 13.3418C165.163 12.9772 165.71 12.3034 166.4 11.3203C165.893 11.3984 165.391 11.4635 164.896 11.5156L164.643 10.0801C165.359 9.09701 165.971 7.91536 166.479 6.53516L167.963 7.08203C167.618 7.92839 167.064 8.9082 166.303 10.0215C166.693 9.99544 167.038 9.94987 167.338 9.88477C167.663 9.33789 167.917 8.88216 168.1 8.51758L169.516 9.06445C168.839 10.3926 167.888 11.7793 166.664 13.2246C166.944 13.2116 167.377 13.1628 167.963 13.0781C167.904 12.8177 167.823 12.5768 167.719 12.3555L168.939 11.9648C169.337 13 169.61 14.0319 169.76 15.0605ZM189.584 9.12305C188.965 10.0085 188.383 10.7539 187.836 11.3594L186.322 10.4609C186.492 10.2656 186.85 9.81966 187.396 9.12305H181.098C180.486 9.82617 179.9 10.4121 179.34 10.8809L177.982 9.71875C179.018 8.97005 180.01 7.83724 180.961 6.32031L182.602 6.87695C182.543 7.10482 182.416 7.33919 182.221 7.58008H189.584V9.12305ZM178.061 8.89844H172.68V7.29688H178.061V8.89844ZM189.936 12.6387L189.096 14.2402C188.581 14.1361 188.002 13.9701 187.357 13.7422V21.2617H178.92L179.779 22.2578C177.898 23.1237 175.678 23.765 173.119 24.1816L172.26 22.5801C174.161 22.3522 175.98 21.9128 177.719 21.2617H174.779V13.7031H178.559L177.797 12.5996C180.134 12.0072 181.876 10.9688 183.021 9.48438L184.838 9.88477C184.643 10.2428 184.496 10.4674 184.398 10.5586C185.818 11.4766 187.663 12.1699 189.936 12.6387ZM187.162 13.7031C185.821 13.2669 184.519 12.6257 183.256 11.7793C182.423 12.5345 181.339 13.1758 180.004 13.7031H187.162ZM185.561 15.8223V15.1191H176.645V15.8223H185.561ZM185.561 17.8633V17.1211H176.645V17.8633H185.561ZM185.561 19.9434V19.1621H176.645V19.9434H185.561ZM178.236 12.082H172.416V10.4414H178.236V12.082ZM189.818 22.7168L188.861 24.2598C187.117 23.6999 185.163 23.293 183.002 23.0391L183.92 21.5352C186.029 21.7174 187.995 22.1113 189.818 22.7168ZM198.842 9.85547H192.357V8.24414H194.916C194.812 7.93815 194.6 7.52474 194.281 7.00391L196.039 6.33984C196.391 6.9974 196.684 7.63216 196.918 8.24414H198.842V9.85547ZM210.004 19.3379C209.913 20.373 209.73 21.3236 209.457 22.1895C209.19 23.0488 208.93 23.5859 208.676 23.8008C208.428 24.0156 208.142 24.123 207.816 24.123C207.419 24.123 207.074 23.9701 206.781 23.6641C206.495 23.3646 206.218 22.4727 205.951 20.9883C205.691 19.5039 205.561 18.1693 205.561 16.9844V8.64453H202.855V14.0352H205.004V15.7637H202.855V24.0352H201.137V15.7637H199.281V14.0352H201.137V8.64453H199.516V6.96484H207.279V17.3848C207.279 18.9342 207.494 20.4316 207.924 21.877C208.171 20.9655 208.331 19.7936 208.402 18.3613L210.004 19.3379ZM198.402 12.8242H192.836V11.2227H198.402V12.8242ZM198.402 15.7441H192.836V14.1621H198.402V15.7441ZM198.422 23.5371H196.664V22.6387H194.564V24.0156H192.836V17.082H198.422V23.5371ZM196.664 20.998V18.7422H194.564V20.998H196.664ZM229.242 9.41602H226.264C225.723 9.97591 225.141 10.4577 224.516 10.8613C226.078 11.1999 227.507 11.5872 228.803 12.0234L228.139 13.2441C226.465 12.6908 224.685 12.2285 222.797 11.8574C220.297 12.8014 217.745 13.2344 215.141 13.1562L214.623 11.7988C216.309 11.8184 217.969 11.6654 219.604 11.3398C218.438 11.1185 217.13 10.9525 215.678 10.8418L216.479 9.66016C218.354 9.83594 220.349 10.1159 222.465 10.5C223.077 10.1484 223.594 9.78711 224.018 9.41602H212.836V7.80469H220.258C220.082 7.47917 219.89 7.14388 219.682 6.79883L221.498 6.41797C221.771 6.85417 222.032 7.31641 222.279 7.80469H229.242V9.41602ZM229.74 15.0996H215.463V18.3809C215.463 20.8483 214.848 22.7624 213.617 24.123L212.201 22.8633C212.624 22.4661 212.986 21.8639 213.285 21.0566C213.591 20.2493 213.744 18.9635 213.744 17.1992V13.5176H229.74V15.0996ZM229.779 23.6152H215.424V22.1406H221.82V20.8223H217.777V19.377H221.82V18.2246H218.305C217.79 18.9928 217.25 19.6178 216.684 20.0996L215.58 18.7031C216.524 17.9349 217.263 16.8737 217.797 15.5195L219.457 16.0176C219.372 16.3236 219.275 16.5645 219.164 16.7402H221.82V15.5391H223.637V16.7402H228.881V18.2246H223.637V19.377H228.422V20.8223H223.637V22.1406H229.779V23.6152ZM248.236 7.48242C247.865 8.02279 247.292 8.64128 246.518 9.33789L244.936 8.40039C245.548 7.9056 246.13 7.31966 246.684 6.64258L248.236 7.48242ZM249.799 19.2207H241.957V24.0156H240.18V19.2207H232.357V17.7168H240.18V16.7012H233.305V15.1973H240.18V14.2207H232.797V12.7168H237.357C237.143 12.3978 236.911 12.1113 236.664 11.8574L238.002 11.1152H232.318V9.62109H238.441V6.64258H240.18V9.62109H241.977V6.64258H243.725V9.62109H249.76V11.1152H244.242L245.424 11.7402C245.163 12.1764 244.942 12.502 244.76 12.7168H249.359V14.2207H241.957V15.1973H248.881V16.7012H241.957V17.7168H249.799V19.2207ZM243.637 11.1152H238.383C238.767 11.584 239.138 12.1178 239.496 12.7168H242.523C242.953 12.209 243.324 11.6751 243.637 11.1152ZM236.996 8.51758L235.658 9.48438C235.079 8.79427 234.486 8.20508 233.881 7.7168L235.219 6.68164C235.928 7.2806 236.521 7.89258 236.996 8.51758ZM250.16 22.4238L249.184 23.8594C247.263 22.7461 245.355 21.8411 243.461 21.1445L244.496 19.6992C246.306 20.3893 248.194 21.2975 250.16 22.4238ZM238.725 20.9004C236.889 22.222 235.16 23.2279 233.539 23.918L232.377 22.5215C233.952 21.916 235.606 20.9883 237.338 19.7383L238.725 20.9004ZM269.779 23.3223H252.318V21.5156H260.121V9.10352H253.178V7.23828H268.979V9.10352H262.035V21.5156H269.779V23.3223ZM290.082 10.041L289.379 11.623C287.745 11.2194 286.091 10.6725 284.418 9.98242V10.7246H277.885V9.94336C276.342 10.627 274.708 11.1999 272.982 11.6621L272.104 10.2168C276.042 9.20117 278.949 7.90234 280.824 6.32031L282.777 6.79883C282.641 6.9681 282.52 7.09505 282.416 7.17969C284.271 8.35156 286.827 9.30534 290.082 10.041ZM283.021 9.33789C281.947 8.73893 281.293 8.36784 281.059 8.22461C280.512 8.63477 279.887 9.00586 279.184 9.33789H283.021ZM288.256 16.7012H273.979V11.5352H288.256V16.7012ZM286.498 15.3047V12.9609H281.977V15.3047H286.498ZM285.736 13.8984C285.294 14.2695 284.734 14.6569 284.057 15.0605L282.816 14.2207C283.598 13.7259 284.145 13.3646 284.457 13.1367L285.736 13.8984ZM280.219 15.3047V12.9609H275.717V15.3047H280.219ZM279.34 14.3184L278.08 15.1191C277.598 14.7155 277.045 14.3216 276.42 13.9375L277.66 13.0977C278.07 13.3255 278.63 13.7324 279.34 14.3184ZM287.396 23.9766H285.639V23.2637H276.684V23.9766H274.857V17.5801H287.396V23.9766ZM285.639 19.7578V18.9375H276.684V19.7578H285.639ZM285.639 21.877V20.998H276.684V21.877H285.639Z" fill="white"/>
<path d="M20.0004 38.3874C30.1553 38.3874 38.3875 30.1552 38.3875 20.0003C38.3875 9.84546 30.1553 1.61328 20.0004 1.61328C9.84546 1.61328 1.61328 9.84546 1.61328 20.0003C1.61328 30.1552 9.84546 38.3874 20.0004 38.3874Z" fill="#78AED8"/>
<path d="M20 39C17.4353 39 14.9469 38.4974 12.6041 37.5067C10.3416 36.5496 8.30979 35.1798 6.56485 33.4351C4.81992 31.6905 3.45039 29.6584 2.49334 27.3959C1.50258 25.0531 1 22.5647 1 20C1 17.4353 1.50258 14.9469 2.49334 12.6041C3.45039 10.3416 4.82023 8.30979 6.56485 6.56485C8.30948 4.81992 10.3416 3.45039 12.6041 2.49334C14.9469 1.50258 17.4353 1 20 1C22.5647 1 25.0531 1.50258 27.3959 2.49334C29.6584 3.45039 31.6902 4.82023 33.4351 6.56485C35.1801 8.30948 36.5496 10.3416 37.5067 12.6041C38.4974 14.9469 39 17.4353 39 20C39 22.5647 38.4974 25.0531 37.5067 27.3959C36.5496 29.6584 35.1798 31.6902 33.4351 33.4351C31.6905 35.1801 29.6584 36.5496 27.3959 37.5067C25.0531 38.4974 22.5647 39 20 39ZM20 2.22581C17.6002 2.22581 15.2727 2.6956 13.0815 3.62231C10.9652 4.51745 9.06427 5.79903 7.4315 7.43181C5.79873 9.06458 4.51715 10.9652 3.622 13.0819C2.6956 15.2727 2.22581 17.6002 2.22581 20C2.22581 22.3998 2.6956 24.7273 3.62231 26.9185C4.51745 29.0348 5.79903 30.9357 7.43181 32.5685C9.06458 34.2013 10.9652 35.4829 13.0819 36.378C15.2727 37.3044 17.6002 37.7742 20 37.7742C22.3998 37.7742 24.7273 37.3044 26.9185 36.3777C29.0348 35.4826 30.9357 34.201 32.5685 32.5682C34.2013 30.9354 35.4829 29.0348 36.378 26.9181C37.3044 24.7273 37.7742 22.3998 37.7742 20C37.7742 17.6002 37.3044 15.2727 36.3777 13.0815C35.4826 10.9652 34.201 9.06427 32.5682 7.4315C30.9354 5.79873 29.0348 4.51715 26.9181 3.622C24.7273 2.6956 22.3998 2.22581 20 2.22581Z" fill="white"/>
<path d="M25.4131 3.41797H22.1074V6.72367H25.4131V3.41797Z" fill="#4C769B"/>
<path d="M25.4131 7.14062H22.1074V10.4463H25.4131V7.14062Z" fill="#4C769B"/>
<path d="M25.4131 10.8594H22.1074V14.1651H25.4131V10.8594Z" fill="#4C769B"/>
<path d="M25.4131 14.582H22.1074V17.8877H25.4131V14.582Z" fill="#4C769B"/>
<path d="M25.4131 18.3047H22.1074V21.6104H25.4131V18.3047Z" fill="#4C769B"/>
<path d="M25.4131 22.0234H22.1074V25.3291H25.4131V22.0234Z" fill="#4C769B"/>
<path d="M25.4131 25.7461H22.1074V29.0518H25.4131V25.7461Z" fill="#4C769B"/>
<path d="M25.4131 29.4648H22.1074V32.7705H25.4131V29.4648Z" fill="#4C769B"/>
<path d="M25.4131 33.1875H22.1074V36.4932H25.4131V33.1875Z" fill="#4C769B"/>
<path d="M29.1708 7.14062H25.8652V10.4463H29.1708V7.14062Z" fill="#4C769B"/>
<path d="M29.1708 10.8594H25.8652V14.1651H29.1708V10.8594Z" fill="#4C769B"/>
<path d="M29.1708 14.582H25.8652V17.8877H29.1708V14.582Z" fill="#4C769B"/>
<path d="M29.1708 18.3047H25.8652V21.6104H29.1708V18.3047Z" fill="#4C769B"/>
<path d="M29.1708 22.0234H25.8652V25.3291H29.1708V22.0234Z" fill="#4C769B"/>
<path d="M29.1708 25.7461H25.8652V29.0518H29.1708V25.7461Z" fill="#4C769B"/>
<path d="M29.1708 29.4648H25.8652V32.7705H29.1708V29.4648Z" fill="#4C769B"/>
<path d="M32.9278 7.14062H29.6221V10.4463H32.9278V7.14062Z" fill="#4C769B"/>
<path d="M32.9278 10.8594H29.6221V14.1651H32.9278V10.8594Z" fill="#4C769B"/>
<path d="M32.9278 14.582H29.6221V17.8877H32.9278V14.582Z" fill="#4C769B"/>
<path d="M32.9278 18.3047H29.6221V21.6104H32.9278V18.3047Z" fill="#4C769B"/>
<path d="M32.9278 22.0234H29.6221V25.3291H32.9278V22.0234Z" fill="#4C769B"/>
<path d="M32.9278 25.7461H29.6221V29.0518H32.9278V25.7461Z" fill="#4C769B"/>
<path d="M32.9278 29.4648H29.6221V32.7705H32.9278V29.4648Z" fill="#4C769B"/>
<path d="M36.6856 14.582H33.3799V17.8877H36.6856V14.582Z" fill="#4C769B"/>
<path d="M36.6856 18.3047H33.3799V21.6104H36.6856V18.3047Z" fill="#4C769B"/>
<path d="M36.6856 22.0234H33.3799V25.3291H36.6856V22.0234Z" fill="#4C769B"/>
<path d="M21.6553 3.41797H18.3496V6.72367H21.6553V3.41797Z" fill="#4C769B"/>
<path d="M21.6553 7.14062H18.3496V10.4463H21.6553V7.14062Z" fill="#4C769B"/>
<path d="M21.6553 10.8594H18.3496V14.1651H21.6553V10.8594Z" fill="#4C769B"/>
<path d="M21.6553 14.582H18.3496V17.8877H21.6553V14.582Z" fill="#4C769B"/>
<path d="M21.6553 18.3047H18.3496V21.6104H21.6553V18.3047Z" fill="#4C769B"/>
<path d="M21.6553 22.0234H18.3496V25.3291H21.6553V22.0234Z" fill="#4C769B"/>
<path d="M21.6553 25.7461H18.3496V29.0518H21.6553V25.7461Z" fill="#4C769B"/>
<path d="M21.6553 29.4648H18.3496V32.7705H21.6553V29.4648Z" fill="#4C769B"/>
<path d="M21.6553 33.1875H18.3496V36.4932H21.6553V33.1875Z" fill="#4C769B"/>
<path d="M17.8985 3.41797H14.5928V6.72367H17.8985V3.41797Z" fill="#4C769B"/>
<path d="M17.8985 7.14062H14.5928V10.4463H17.8985V7.14062Z" fill="#4C769B"/>
<path d="M17.8985 10.8594H14.5928V14.1651H17.8985V10.8594Z" fill="#4C769B"/>
<path d="M17.8985 14.582H14.5928V17.8877H17.8985V14.582Z" fill="#4C769B"/>
<path d="M17.8985 18.3047H14.5928V21.6104H17.8985V18.3047Z" fill="#4C769B"/>
<path d="M17.8985 22.0234H14.5928V25.3291H17.8985V22.0234Z" fill="#4C769B"/>
<path d="M17.8985 25.7461H14.5928V29.0518H17.8985V25.7461Z" fill="#4C769B"/>
<path d="M17.8985 29.4648H14.5928V32.7705H17.8985V29.4648Z" fill="#4C769B"/>
<path d="M17.8985 33.1875H14.5928V36.4932H17.8985V33.1875Z" fill="#4C769B"/>
<path d="M14.1407 7.14062H10.835V10.4463H14.1407V7.14062Z" fill="#4C769B"/>
<path d="M14.1407 10.8594H10.835V14.1651H14.1407V10.8594Z" fill="#4C769B"/>
<path d="M14.1407 14.582H10.835V17.8877H14.1407V14.582Z" fill="#4C769B"/>
<path d="M14.1407 18.3047H10.835V21.6104H14.1407V18.3047Z" fill="#4C769B"/>
<path d="M14.1407 22.0234H10.835V25.3291H14.1407V22.0234Z" fill="#4C769B"/>
<path d="M14.1407 25.7461H10.835V29.0518H14.1407V25.7461Z" fill="#4C769B"/>
<path d="M14.1407 29.4648H10.835V32.7705H14.1407V29.4648Z" fill="#4C769B"/>
<path d="M10.3829 7.14062H7.07715V10.4463H10.3829V7.14062Z" fill="#4C769B"/>
<path d="M10.3829 10.8594H7.07715V14.1651H10.3829V10.8594Z" fill="#4C769B"/>
<path d="M10.3829 14.582H7.07715V17.8877H10.3829V14.582Z" fill="#4C769B"/>
<path d="M10.3829 18.3047H7.07715V21.6104H10.3829V18.3047Z" fill="#4C769B"/>
<path d="M10.3829 22.0234H7.07715V25.3291H10.3829V22.0234Z" fill="#4C769B"/>
<path d="M10.3829 25.7461H7.07715V29.0518H10.3829V25.7461Z" fill="#4C769B"/>
<path d="M10.3829 29.4648H7.07715V32.7705H10.3829V29.4648Z" fill="#4C769B"/>
<path d="M6.62503 14.582H3.31934V17.8877H6.62503V14.582Z" fill="#4C769B"/>
<path d="M6.62503 18.3047H3.31934V21.6104H6.62503V18.3047Z" fill="#4C769B"/>
<path d="M6.62503 22.0234H3.31934V25.3291H6.62503V22.0234Z" fill="#4C769B"/>
<path d="M29.537 11.7107C29.4922 11.681 29.4932 11.6148 29.5388 11.586L34.2275 8.65107L25.2399 4.69141L21.0161 9.68075L21.0204 9.68289C21.2904 9.81681 21.5355 10.0127 21.7191 10.2747L23.5011 12.8789L20.5745 14.5874L18.8817 12.2381L18.809 12.2878L18.6926 12.4254L20.3064 14.7329C20.3064 14.7329 19.3873 15.2735 19.0579 15.4712C18.5286 15.7887 18.1315 16.0173 17.8903 16.2333C17.6963 16.4071 17.5584 16.6522 17.5584 16.6522L16.4089 15.1228L16.374 15.1641L16.1769 15.3967L18.2246 18.0417C18.5035 18.4119 18.6209 18.8657 18.5571 19.3224C18.4931 19.7787 18.255 20.1829 17.8866 20.4602C17.6151 20.6649 17.3154 20.7661 17.0001 20.7661C16.7025 20.7661 16.3911 20.6729 16.0758 20.4951L15.6915 20.9698C15.8781 21.4458 15.9823 21.7884 15.496 22.3198C14.9496 22.917 14.3606 22.8141 14.2257 22.7797L13.9361 23.1374L12.1811 25.3049L7.4274 31.2274C7.29594 31.3901 7.0471 31.7395 7.21381 32.011C7.39461 32.3055 7.74366 32.4121 8.09945 32.189L13.7054 27.9146L16.2302 25.9895L17.0387 25.3732L25.2405 19.1192C25.2405 19.1192 23.5532 18.7232 22.6075 17.4034C22.5094 17.2664 22.2839 17.3142 22.1457 17.4104C22.1457 17.4104 21.3869 18.1082 20.0882 18.243C19.2074 18.3344 18.7002 18.1327 18.3558 17.8293C17.9755 17.4944 17.8544 17.0424 17.8805 16.8122C17.9056 16.5876 18.2154 16.248 18.4156 16.1429L23.7055 13.1658C23.9856 13.0291 24.3236 13.1244 24.4916 13.387L26.3352 16.2532L30.8875 12.6114L29.537 11.7107Z" fill="#FABF13"/>
<path d="M17.8911 16.2316C18.1323 16.0159 18.5298 15.7872 19.0587 15.4695C19.3881 15.2718 20.3072 14.7312 20.3072 14.7312L18.6934 12.4236L18.6879 12.416L18.6284 12.3308C18.0682 11.5607 16.9874 11.3915 16.2176 11.9505C15.8452 12.2214 15.6004 12.6216 15.5284 13.077C15.4563 13.5321 15.5667 13.9881 15.8394 14.3632L16.4091 15.1213L17.5586 16.6508C17.5586 16.6508 17.6968 16.4054 17.8911 16.2316Z" fill="#B81C26"/>
<path d="M17.8863 20.4587C18.2546 20.1813 18.4928 19.7771 18.5568 19.3208C18.6206 18.8645 18.5032 18.4103 18.2243 18.0401L16.1766 15.3952L15.6342 14.6946C15.0991 14.0039 14.0964 13.8693 13.398 14.3952L13.2071 14.5389C12.8614 14.7994 12.6392 15.1794 12.5819 15.6084C12.5243 16.0375 12.6389 16.4622 12.904 16.8048L15.3192 19.7857C15.594 20.1105 15.8168 20.348 16.0755 20.4939C16.3908 20.6716 16.7022 20.7648 16.9997 20.7648C17.3151 20.7645 17.6148 20.6637 17.8863 20.4587Z" fill="#B81C26"/>
<path d="M15.4959 22.3191C15.9822 21.7874 15.878 21.4448 15.6914 20.9692C15.6448 20.8503 15.5857 20.7354 15.5045 20.6333L12.7145 17.1199C12.2975 16.594 11.5292 16.5067 11.0039 16.9234C10.6794 17.1812 10.4744 17.6546 10.4422 18.2225C10.3953 19.041 10.7057 19.889 11.2521 20.4354L11.2957 20.4795C12.5279 21.7209 13.4598 22.5851 14.2253 22.7794C14.3605 22.8134 14.9495 22.9164 15.4959 22.3191Z" fill="#B81C26"/>
<path d="M23.5012 12.8792L21.7192 10.275C21.5356 10.013 21.2904 9.81724 21.0205 9.68332L21.0162 9.68116C20.4848 9.41945 19.8501 9.41334 19.3445 9.72898C18.9378 9.98272 18.6614 10.3804 18.5658 10.8487C18.4705 11.3173 18.5685 11.791 18.8425 12.1827L18.8704 12.2225L18.8817 12.2382L20.5746 14.5874L23.5012 12.8792Z" fill="#B81C26"/>
<path d="M13.9365 23.1393C12.6648 22.7134 11.8266 21.4453 11.8266 21.4453C11.8266 21.4453 11.7056 22.5782 11.8321 23.7011C11.8781 24.1096 12.0509 24.9989 12.1815 25.3069L13.9365 23.1393Z" fill="#B81C26"/>
<path d="M23.7062 13.1677L18.4162 16.1448C18.2161 16.2499 17.9063 16.5895 17.8812 16.8141C17.8554 17.0446 17.9762 17.4963 18.3565 17.8312C18.7009 18.1349 19.2081 18.3363 20.0888 18.2449C21.3876 18.1101 22.1464 17.4123 22.1464 17.4123C22.2846 17.3161 22.5101 17.2683 22.6082 17.4053C23.5542 18.7252 25.2412 19.1211 25.2412 19.1211L16.2493 26.0095L16.2309 25.9914L13.7061 27.9166C13.7122 27.9245 13.9601 28.231 13.9653 28.2368C14.1581 28.4489 14.1253 28.6052 14.1287 28.8083L14.1838 38.5317H24.3114L22.6826 27.7836C22.6342 27.4391 22.72 27.0891 22.922 26.806L28.0364 19.6457C28.1887 19.4324 28.196 19.1484 28.055 18.9274L26.3359 16.2545L24.4922 13.3883C24.3246 13.126 23.9863 13.031 23.7062 13.1677ZM17.4362 27.4042V29.7182H16.9502V27.4952L16.0995 27.1915C16.6235 26.6711 16.9502 26.1281 16.9502 26.1281C16.9502 26.1281 17.3072 26.6711 18.1655 27.4042H17.4362Z" fill="#B81C26"/>
<path d="M57.888 29.176C57.888 29.2773 57.8533 29.3653 57.784 29.44C57.7147 29.5093 57.6267 29.544 57.52 29.544H56.68C56.6107 29.544 56.576 29.5787 56.576 29.648V33.632C56.576 33.7333 56.5387 33.8213 56.464 33.896C56.3947 33.9653 56.3093 34 56.208 34H56C55.8987 34 55.8107 33.9653 55.736 33.896C55.6667 33.8213 55.632 33.7333 55.632 33.632V29.648C55.632 29.5787 55.5973 29.544 55.528 29.544H54.68C54.5787 29.544 54.4907 29.5093 54.416 29.44C54.3467 29.3653 54.312 29.2773 54.312 29.176V28.96C54.312 28.8533 54.3467 28.7653 54.416 28.696C54.4907 28.6267 54.5787 28.592 54.68 28.592H57.52C57.6267 28.592 57.7147 28.6267 57.784 28.696C57.8533 28.7653 57.888 28.8533 57.888 28.96V29.176ZM60.7863 33.104C60.7863 33.3547 60.6983 33.568 60.5223 33.744C60.3516 33.9147 60.1436 34 59.8983 34H58.7863C58.541 34 58.3303 33.9147 58.1543 33.744C57.9783 33.568 57.8903 33.3547 57.8903 33.104V32.232C57.8903 32.0667 57.9303 31.92 58.0103 31.792C58.0956 31.6587 58.205 31.552 58.3383 31.472C58.4716 31.392 58.621 31.352 58.7863 31.352H59.7303C59.757 31.352 59.781 31.3413 59.8023 31.32C59.829 31.2987 59.8423 31.272 59.8423 31.24V30.92C59.8423 30.888 59.829 30.8613 59.8023 30.84C59.781 30.8187 59.757 30.808 59.7303 30.808H58.7863C58.685 30.808 58.597 30.7733 58.5223 30.704C58.453 30.6347 58.4183 30.5493 58.4183 30.448V30.232C58.4183 30.1253 58.453 30.0373 58.5223 29.968C58.597 29.8933 58.685 29.856 58.7863 29.856H59.8983C60.0636 29.856 60.213 29.896 60.3463 29.976C60.4796 30.056 60.5863 30.1653 60.6663 30.304C60.7463 30.4373 60.7863 30.5867 60.7863 30.752V33.104ZM59.8423 32.952V32.4C59.8423 32.3733 59.829 32.3493 59.8023 32.328C59.781 32.3067 59.757 32.296 59.7303 32.296H58.9543C58.9276 32.296 58.901 32.3067 58.8743 32.328C58.853 32.3493 58.8423 32.3733 58.8423 32.4V32.952C58.8423 32.9787 58.853 33.0027 58.8743 33.024C58.901 33.0453 58.9276 33.056 58.9543 33.056H59.7303C59.757 33.056 59.781 33.0453 59.8023 33.024C59.829 33.0027 59.8423 32.9787 59.8423 32.952ZM62.6452 29.104C62.6452 29.2693 62.5839 29.4133 62.4612 29.536C62.3439 29.6533 62.2052 29.712 62.0452 29.712C61.8799 29.712 61.7359 29.6533 61.6132 29.536C61.4959 29.4133 61.4372 29.2693 61.4372 29.104C61.4372 28.944 61.4959 28.8053 61.6132 28.688C61.7359 28.5653 61.8799 28.504 62.0452 28.504C62.2052 28.504 62.3439 28.5653 62.4612 28.688C62.5839 28.8053 62.6452 28.944 62.6452 29.104ZM62.5172 33.632C62.5172 33.7333 62.4799 33.8213 62.4052 33.896C62.3359 33.9653 62.2505 34 62.1492 34H61.9332C61.8319 34 61.7439 33.9653 61.6692 33.896C61.5999 33.8213 61.5652 33.7333 61.5652 33.632V30.312C61.5652 30.2107 61.5999 30.1253 61.6692 30.056C61.7439 29.9813 61.8319 29.944 61.9332 29.944H62.1492C62.2505 29.944 62.3359 29.9813 62.4052 30.056C62.4799 30.1253 62.5172 30.2107 62.5172 30.312V33.632ZM67.1528 30.304L66.4248 33.712C66.4088 33.7973 66.3661 33.8667 66.2968 33.92C66.2328 33.9733 66.1581 34 66.0728 34H65.8488C65.7634 34 65.6861 33.9733 65.6168 33.92C65.5528 33.8667 65.5101 33.7973 65.4888 33.712L65.2648 32.688C65.2594 32.6613 65.2461 32.648 65.2248 32.648C65.2034 32.648 65.1901 32.6613 65.1848 32.688L64.9688 33.712C64.9474 33.7973 64.9048 33.8667 64.8408 33.92C64.7768 33.9733 64.6994 34 64.6088 34H64.3848C64.2994 34 64.2221 33.9733 64.1528 33.92C64.0888 33.8667 64.0461 33.7973 64.0247 33.712L63.2968 30.304C63.2701 30.1867 63.2914 30.0853 63.3608 30C63.4461 29.904 63.5421 29.856 63.6488 29.856H63.8808C63.9661 29.856 64.0408 29.8827 64.1048 29.936C64.1741 29.9893 64.2194 30.0613 64.2408 30.152L64.4568 31.176C64.4621 31.1973 64.4728 31.208 64.4888 31.208C64.5101 31.208 64.5234 31.1973 64.5288 31.176L64.7608 30.152C64.7768 30.0613 64.8168 29.9893 64.8808 29.936C64.9501 29.8827 65.0274 29.856 65.1128 29.856H65.3448C65.4248 29.856 65.4994 29.8827 65.5688 29.936C65.6381 29.9893 65.6781 30.0613 65.6888 30.152L65.9208 31.184C65.9261 31.2053 65.9368 31.216 65.9528 31.216C65.9741 31.216 65.9874 31.2053 65.9928 31.184L66.2168 30.152C66.2381 30.0613 66.2808 29.9893 66.3448 29.936C66.4141 29.8827 66.4914 29.856 66.5768 29.856H66.8088C66.9154 29.856 67.0088 29.904 67.0888 30C67.1634 30.096 67.1848 30.1973 67.1528 30.304ZM70.7082 33.104C70.7082 33.3547 70.6202 33.568 70.4442 33.744C70.2735 33.9147 70.0655 34 69.8202 34H68.7082C68.4629 34 68.2522 33.9147 68.0762 33.744C67.9002 33.568 67.8122 33.3547 67.8122 33.104V32.232C67.8122 32.0667 67.8522 31.92 67.9322 31.792C68.0175 31.6587 68.1269 31.552 68.2602 31.472C68.3935 31.392 68.5429 31.352 68.7082 31.352H69.6522C69.6789 31.352 69.7029 31.3413 69.7242 31.32C69.7509 31.2987 69.7642 31.272 69.7642 31.24V30.92C69.7642 30.888 69.7509 30.8613 69.7242 30.84C69.7029 30.8187 69.6789 30.808 69.6522 30.808H68.7082C68.6069 30.808 68.5189 30.7733 68.4442 30.704C68.3749 30.6347 68.3402 30.5493 68.3402 30.448V30.232C68.3402 30.1253 68.3749 30.0373 68.4442 29.968C68.5189 29.8933 68.6069 29.856 68.7082 29.856H69.8202C69.9855 29.856 70.1349 29.896 70.2682 29.976C70.4015 30.056 70.5082 30.1653 70.5882 30.304C70.6682 30.4373 70.7082 30.5867 70.7082 30.752V33.104ZM69.7642 32.952V32.4C69.7642 32.3733 69.7509 32.3493 69.7242 32.328C69.7029 32.3067 69.6789 32.296 69.6522 32.296H68.8762C68.8495 32.296 68.8229 32.3067 68.7962 32.328C68.7749 32.3493 68.7642 32.3733 68.7642 32.4V32.952C68.7642 32.9787 68.7749 33.0027 68.7962 33.024C68.8229 33.0453 68.8495 33.056 68.8762 33.056H69.6522C69.6789 33.056 69.7029 33.0453 69.7242 33.024C69.7509 33.0027 69.7642 32.9787 69.7642 32.952ZM74.2551 33.632C74.2551 33.7333 74.2204 33.8213 74.1511 33.896C74.0817 33.9653 73.9964 34 73.8951 34H73.6711C73.5697 34 73.4844 33.9653 73.4151 33.896C73.3457 33.8213 73.3111 33.7333 73.3111 33.632V30.92C73.3111 30.888 73.2977 30.8613 73.2711 30.84C73.2497 30.8187 73.2257 30.808 73.1991 30.808H72.4231C72.3964 30.808 72.3697 30.8187 72.3431 30.84C72.3217 30.8613 72.3111 30.888 72.3111 30.92V33.632C72.3111 33.7333 72.2764 33.8213 72.2071 33.896C72.1377 33.9653 72.0524 34 71.9511 34H71.7271C71.6257 34 71.5377 33.9653 71.4631 33.896C71.3937 33.8213 71.3591 33.7333 71.3591 33.632V30.752C71.3591 30.5867 71.3991 30.4373 71.4791 30.304C71.5644 30.1653 71.6737 30.056 71.8071 29.976C71.9404 29.896 72.0897 29.856 72.2551 29.856H73.3671C73.5324 29.856 73.6817 29.896 73.8151 29.976C73.9484 30.056 74.0551 30.1653 74.1351 30.304C74.2151 30.4373 74.2551 30.5867 74.2551 30.752V33.632ZM80.3097 32.944C80.3097 33.136 80.2617 33.312 80.1657 33.472C80.0697 33.632 79.9417 33.76 79.7817 33.856C79.6217 33.952 79.4457 34 79.2537 34H77.8137C77.6217 34 77.443 33.952 77.2777 33.856C77.1177 33.76 76.9897 33.632 76.8937 33.472C76.7977 33.312 76.7497 33.136 76.7497 32.944V28.96C76.7497 28.8533 76.7844 28.7653 76.8537 28.696C76.9284 28.6267 77.0164 28.592 77.1177 28.592H77.3417C77.443 28.592 77.5284 28.6267 77.5977 28.696C77.6724 28.7653 77.7097 28.8533 77.7097 28.96V32.944C77.7097 32.9707 77.7204 32.9973 77.7417 33.024C77.763 33.0453 77.787 33.056 77.8137 33.056H79.2537C79.2804 33.056 79.3044 33.0453 79.3257 33.024C79.347 32.9973 79.3577 32.9707 79.3577 32.944V28.96C79.3577 28.8533 79.3924 28.7653 79.4617 28.696C79.5364 28.6267 79.6244 28.592 79.7257 28.592H79.9417C80.0484 28.592 80.1364 28.6267 80.2057 28.696C80.275 28.7653 80.3097 28.8533 80.3097 28.96V32.944ZM83.8566 33.632C83.8566 33.7333 83.822 33.8213 83.7526 33.896C83.6833 33.9653 83.598 34 83.4966 34H83.2726C83.1713 34 83.086 33.9653 83.0166 33.896C82.9473 33.8213 82.9126 33.7333 82.9126 33.632V30.92C82.9126 30.888 82.8993 30.8613 82.8726 30.84C82.8513 30.8187 82.8273 30.808 82.8006 30.808H82.0246C81.998 30.808 81.9713 30.8187 81.9446 30.84C81.9233 30.8613 81.9126 30.888 81.9126 30.92V33.632C81.9126 33.7333 81.878 33.8213 81.8086 33.896C81.7393 33.9653 81.654 34 81.5526 34H81.3286C81.2273 34 81.1393 33.9653 81.0646 33.896C80.9953 33.8213 80.9606 33.7333 80.9606 33.632V30.752C80.9606 30.5867 81.0006 30.4373 81.0806 30.304C81.166 30.1653 81.2753 30.056 81.4086 29.976C81.542 29.896 81.6913 29.856 81.8566 29.856H82.9686C83.134 29.856 83.2833 29.896 83.4166 29.976C83.55 30.056 83.6566 30.1653 83.7366 30.304C83.8166 30.4373 83.8566 30.5867 83.8566 30.752V33.632ZM85.7155 29.104C85.7155 29.2693 85.6542 29.4133 85.5315 29.536C85.4142 29.6533 85.2755 29.712 85.1155 29.712C84.9502 29.712 84.8062 29.6533 84.6835 29.536C84.5662 29.4133 84.5075 29.2693 84.5075 29.104C84.5075 28.944 84.5662 28.8053 84.6835 28.688C84.8062 28.5653 84.9502 28.504 85.1155 28.504C85.2755 28.504 85.4142 28.5653 85.5315 28.688C85.6542 28.8053 85.7155 28.944 85.7155 29.104ZM85.5875 33.632C85.5875 33.7333 85.5502 33.8213 85.4755 33.896C85.4062 33.9653 85.3208 34 85.2195 34H85.0035C84.9022 34 84.8142 33.9653 84.7395 33.896C84.6702 33.8213 84.6355 33.7333 84.6355 33.632V30.312C84.6355 30.2107 84.6702 30.1253 84.7395 30.056C84.8142 29.9813 84.9022 29.944 85.0035 29.944H85.2195C85.3208 29.944 85.4062 29.9813 85.4755 30.056C85.5502 30.1253 85.5875 30.2107 85.5875 30.312V33.632ZM89.2551 33.104C89.2551 33.3547 89.1671 33.568 88.9911 33.744C88.8204 33.9147 88.6124 34 88.3671 34H87.2551C87.0097 34 86.7991 33.9147 86.6231 33.744C86.4471 33.568 86.3591 33.3547 86.3591 33.104V30.752C86.3591 30.5867 86.3991 30.4373 86.4791 30.304C86.5644 30.1653 86.6737 30.056 86.8071 29.976C86.9404 29.896 87.0897 29.856 87.2551 29.856H88.3671C88.5324 29.856 88.6817 29.896 88.8151 29.976C88.9484 30.056 89.0551 30.1653 89.1351 30.304C89.2151 30.4373 89.2551 30.5867 89.2551 30.752V33.104ZM88.3111 32.952V30.92C88.3111 30.888 88.2977 30.8613 88.2711 30.84C88.2497 30.8187 88.2257 30.808 88.1991 30.808H87.4231C87.3964 30.808 87.3697 30.8187 87.3431 30.84C87.3217 30.8613 87.3111 30.888 87.3111 30.92V32.952C87.3111 32.9787 87.3217 33.0027 87.3431 33.024C87.3697 33.0453 87.3964 33.056 87.4231 33.056H88.1991C88.2257 33.056 88.2497 33.0453 88.2711 33.024C88.2977 33.0027 88.3111 32.9787 88.3111 32.952ZM92.8019 33.632C92.8019 33.7333 92.7673 33.8213 92.6979 33.896C92.6286 33.9653 92.5433 34 92.4419 34H92.2179C92.1166 34 92.0313 33.9653 91.9619 33.896C91.8926 33.8213 91.8579 33.7333 91.8579 33.632V30.92C91.8579 30.888 91.8446 30.8613 91.8179 30.84C91.7966 30.8187 91.7726 30.808 91.7459 30.808H90.9699C90.9433 30.808 90.9166 30.8187 90.8899 30.84C90.8686 30.8613 90.8579 30.888 90.8579 30.92V33.632C90.8579 33.7333 90.8233 33.8213 90.7539 33.896C90.6846 33.9653 90.5993 34 90.4979 34H90.2739C90.1726 34 90.0846 33.9653 90.0099 33.896C89.9406 33.8213 89.9059 33.7333 89.9059 33.632V30.752C89.9059 30.5867 89.9459 30.4373 90.0259 30.304C90.1113 30.1653 90.2206 30.056 90.3539 29.976C90.4873 29.896 90.6366 29.856 90.8019 29.856H91.9139C92.0793 29.856 92.2286 29.896 92.3619 29.976C92.4953 30.056 92.6019 30.1653 92.6819 30.304C92.7619 30.4373 92.8019 30.5867 92.8019 30.752V33.632ZM98.1926 33.104C98.1926 33.3547 98.1046 33.568 97.9286 33.744C97.7579 33.9147 97.5499 34 97.3046 34H96.1926C95.9472 34 95.7366 33.9147 95.5606 33.744C95.3846 33.568 95.2966 33.3547 95.2966 33.104V30.752C95.2966 30.5867 95.3366 30.4373 95.4166 30.304C95.5019 30.1653 95.6112 30.056 95.7446 29.976C95.8779 29.896 96.0272 29.856 96.1926 29.856H97.3046C97.4699 29.856 97.6192 29.896 97.7526 29.976C97.8859 30.056 97.9926 30.1653 98.0726 30.304C98.1526 30.4373 98.1926 30.5867 98.1926 30.752V33.104ZM97.2486 32.952V30.92C97.2486 30.888 97.2352 30.8613 97.2086 30.84C97.1872 30.8187 97.1632 30.808 97.1366 30.808H96.3606C96.3339 30.808 96.3072 30.8187 96.2806 30.84C96.2592 30.8613 96.2486 30.888 96.2486 30.92V32.952C96.2486 32.9787 96.2592 33.0027 96.2806 33.024C96.3072 33.0453 96.3339 33.056 96.3606 33.056H97.1366C97.1632 33.056 97.1872 33.0453 97.2086 33.024C97.2352 33.0027 97.2486 32.9787 97.2486 32.952ZM101.115 30.448C101.115 30.5493 101.081 30.6347 101.011 30.704C100.942 30.7733 100.854 30.808 100.747 30.808H99.9074C99.8381 30.808 99.8034 30.8453 99.8034 30.92V33.632C99.8034 33.7333 99.7661 33.8213 99.6914 33.896C99.6221 33.9653 99.5368 34 99.4354 34H99.2114C99.1101 34 99.0221 33.9653 98.9474 33.896C98.8781 33.8213 98.8434 33.7333 98.8434 33.632V29.48C98.8434 29.3147 98.8834 29.1653 98.9634 29.032C99.0488 28.8987 99.1581 28.792 99.2914 28.712C99.4248 28.632 99.5741 28.592 99.7394 28.592H100.747C100.854 28.592 100.942 28.6267 101.011 28.696C101.081 28.7653 101.115 28.8533 101.115 28.96V29.176C101.115 29.2773 101.081 29.3653 101.011 29.44C100.942 29.5093 100.854 29.544 100.747 29.544H99.9074C99.8381 29.544 99.8034 29.5787 99.8034 29.648V29.76C99.8034 29.824 99.8381 29.856 99.9074 29.856H100.747C100.854 29.856 100.942 29.8933 101.011 29.968C101.081 30.0373 101.115 30.1253 101.115 30.232V30.448ZM107.081 33.632C107.081 33.7333 107.044 33.8213 106.969 33.896C106.9 33.9653 106.817 34 106.721 34H103.969C103.873 34 103.788 33.9653 103.713 33.896C103.644 33.8213 103.609 33.7333 103.609 33.632V28.96C103.609 28.8533 103.644 28.7653 103.713 28.696C103.788 28.6267 103.873 28.592 103.969 28.592H106.721C106.817 28.592 106.9 28.6267 106.969 28.696C107.044 28.7653 107.081 28.8533 107.081 28.96V29.176C107.081 29.2773 107.044 29.3653 106.969 29.44C106.9 29.5093 106.817 29.544 106.721 29.544H104.657C104.593 29.544 104.561 29.5787 104.561 29.648V30.712C104.561 30.7867 104.593 30.824 104.657 30.824H106.433C106.54 30.824 106.628 30.8587 106.697 30.928C106.766 30.9973 106.801 31.0827 106.801 31.184V31.408C106.801 31.5093 106.766 31.5973 106.697 31.672C106.628 31.7413 106.54 31.776 106.433 31.776H104.657C104.593 31.776 104.561 31.808 104.561 31.872V32.952C104.561 33.0213 104.593 33.056 104.657 33.056H106.721C106.817 33.056 106.9 33.0907 106.969 33.16C107.044 33.2293 107.081 33.3173 107.081 33.424V33.632ZM109.174 33.632C109.174 33.7333 109.137 33.8213 109.062 33.896C108.993 33.9653 108.908 34 108.806 34H108.606C108.361 34 108.15 33.9147 107.974 33.744C107.798 33.568 107.71 33.3547 107.71 33.104V28.96C107.71 28.8533 107.745 28.7653 107.814 28.696C107.889 28.6267 107.977 28.592 108.078 28.592H108.302C108.404 28.592 108.489 28.6267 108.558 28.696C108.633 28.7653 108.67 28.8533 108.67 28.96V32.952C108.67 33.0213 108.702 33.056 108.766 33.056H108.806C108.908 33.056 108.993 33.0907 109.062 33.16C109.137 33.2293 109.174 33.3173 109.174 33.424V33.632ZM112.7 31.624C112.7 31.784 112.66 31.9333 112.58 32.072C112.5 32.2053 112.394 32.3147 112.26 32.4C112.127 32.48 111.978 32.52 111.812 32.52H110.868C110.842 32.52 110.815 32.5307 110.788 32.552C110.767 32.568 110.756 32.5893 110.756 32.616V32.952C110.756 32.9787 110.767 33.0027 110.788 33.024C110.815 33.0453 110.842 33.056 110.868 33.056H111.812C111.914 33.056 111.999 33.0907 112.068 33.16C112.143 33.2293 112.18 33.3173 112.18 33.424V33.632C112.18 33.7333 112.143 33.8213 112.068 33.896C111.999 33.9653 111.914 34 111.812 34H110.7C110.455 34 110.244 33.9147 110.068 33.744C109.892 33.568 109.804 33.3547 109.804 33.104V30.752C109.804 30.5867 109.844 30.4373 109.924 30.304C110.01 30.1707 110.119 30.064 110.252 29.984C110.386 29.8987 110.535 29.856 110.7 29.856H111.812C111.978 29.856 112.127 29.8987 112.26 29.984C112.394 30.064 112.5 30.1707 112.58 30.304C112.66 30.4373 112.7 30.5867 112.7 30.752V31.624ZM111.756 31.464V30.92C111.756 30.888 111.743 30.8613 111.716 30.84C111.695 30.8187 111.671 30.808 111.644 30.808H110.868C110.842 30.808 110.815 30.8187 110.788 30.84C110.767 30.8613 110.756 30.888 110.756 30.92V31.464C110.756 31.4853 110.767 31.5067 110.788 31.528C110.815 31.5493 110.842 31.56 110.868 31.56H111.644C111.671 31.56 111.695 31.5493 111.716 31.528C111.743 31.5067 111.756 31.4853 111.756 31.464ZM116.247 33.104C116.247 33.3547 116.159 33.568 115.983 33.744C115.813 33.9147 115.605 34 115.359 34H114.247C114.002 34 113.791 33.9147 113.615 33.744C113.439 33.568 113.351 33.3547 113.351 33.104V30.752C113.351 30.5867 113.391 30.4373 113.471 30.304C113.557 30.1653 113.666 30.056 113.799 29.976C113.933 29.896 114.082 29.856 114.247 29.856H115.359C115.525 29.856 115.674 29.896 115.807 29.976C115.941 30.056 116.047 30.1653 116.127 30.304C116.207 30.4373 116.247 30.5867 116.247 30.752V31.168C116.247 31.2693 116.213 31.3573 116.143 31.432C116.074 31.5013 115.989 31.536 115.887 31.536H115.663C115.562 31.536 115.477 31.5013 115.407 31.432C115.338 31.3573 115.303 31.2693 115.303 31.168V30.92C115.303 30.888 115.29 30.8613 115.263 30.84C115.242 30.8187 115.218 30.808 115.191 30.808H114.415C114.389 30.808 114.362 30.8187 114.335 30.84C114.314 30.8613 114.303 30.888 114.303 30.92V32.952C114.303 32.9787 114.314 33.0027 114.335 33.024C114.362 33.0453 114.389 33.056 114.415 33.056H115.191C115.218 33.056 115.242 33.0453 115.263 33.024C115.29 33.0027 115.303 32.9787 115.303 32.952V32.704C115.303 32.6027 115.338 32.5173 115.407 32.448C115.477 32.3733 115.562 32.336 115.663 32.336H115.887C115.989 32.336 116.074 32.3733 116.143 32.448C116.213 32.5173 116.247 32.6027 116.247 32.704V33.104ZM119.274 33.632C119.274 33.7333 119.239 33.8213 119.17 33.896C119.101 33.9653 119.015 34 118.914 34H117.794C117.549 34 117.338 33.9147 117.162 33.744C116.991 33.568 116.906 33.3547 116.906 33.104V28.96C116.906 28.8533 116.941 28.7653 117.01 28.696C117.079 28.6267 117.165 28.592 117.266 28.592H117.49C117.591 28.592 117.677 28.6267 117.746 28.696C117.821 28.7653 117.858 28.8533 117.858 28.96V29.76C117.858 29.824 117.893 29.856 117.962 29.856H118.914C119.015 29.856 119.101 29.8933 119.17 29.968C119.239 30.0373 119.274 30.1253 119.274 30.232V30.448C119.274 30.5387 119.239 30.624 119.17 30.704C119.09 30.7733 119.005 30.808 118.914 30.808H117.962C117.893 30.808 117.858 30.8453 117.858 30.92V32.952C117.858 33.0213 117.893 33.056 117.962 33.056H118.914C119.015 33.056 119.101 33.0907 119.17 33.16C119.239 33.2293 119.274 33.3173 119.274 33.424V33.632ZM122.298 30.448C122.298 30.5493 122.263 30.6347 122.194 30.704C122.124 30.7733 122.039 30.808 121.938 30.808H120.986C120.916 30.808 120.882 30.8453 120.882 30.92V33.632C120.882 33.7333 120.844 33.8213 120.77 33.896C120.7 33.9653 120.615 34 120.514 34H120.29C120.188 34 120.103 33.9653 120.034 33.896C119.964 33.8213 119.93 33.7333 119.93 33.632V30.752C119.93 30.5867 119.97 30.4373 120.05 30.304C120.13 30.1653 120.236 30.056 120.37 29.976C120.503 29.896 120.652 29.856 120.818 29.856H121.938C122.039 29.856 122.124 29.8933 122.194 29.968C122.263 30.0373 122.298 30.1253 122.298 30.232V30.448ZM125.841 33.104C125.841 33.3547 125.753 33.568 125.577 33.744C125.406 33.9147 125.198 34 124.953 34H123.841C123.596 34 123.385 33.9147 123.209 33.744C123.033 33.568 122.945 33.3547 122.945 33.104V30.752C122.945 30.5867 122.985 30.4373 123.065 30.304C123.15 30.1653 123.26 30.056 123.393 29.976C123.526 29.896 123.676 29.856 123.841 29.856H124.953C125.118 29.856 125.268 29.896 125.401 29.976C125.534 30.056 125.641 30.1653 125.721 30.304C125.801 30.4373 125.841 30.5867 125.841 30.752V33.104ZM124.897 32.952V30.92C124.897 30.888 124.884 30.8613 124.857 30.84C124.836 30.8187 124.812 30.808 124.785 30.808H124.009C123.982 30.808 123.956 30.8187 123.929 30.84C123.908 30.8613 123.897 30.888 123.897 30.92V32.952C123.897 32.9787 123.908 33.0027 123.929 33.024C123.956 33.0453 123.982 33.056 124.009 33.056H124.785C124.812 33.056 124.836 33.0453 124.857 33.024C124.884 33.0027 124.897 32.9787 124.897 32.952ZM129.388 33.632C129.388 33.7333 129.353 33.8213 129.284 33.896C129.215 33.9653 129.129 34 129.028 34H128.804C128.703 34 128.617 33.9653 128.548 33.896C128.479 33.8213 128.444 33.7333 128.444 33.632V30.92C128.444 30.888 128.431 30.8613 128.404 30.84C128.383 30.8187 128.359 30.808 128.332 30.808H127.556C127.529 30.808 127.503 30.8187 127.476 30.84C127.455 30.8613 127.444 30.888 127.444 30.92V33.632C127.444 33.7333 127.409 33.8213 127.34 33.896C127.271 33.9653 127.185 34 127.084 34H126.86C126.759 34 126.671 33.9653 126.596 33.896C126.527 33.8213 126.492 33.7333 126.492 33.632V30.752C126.492 30.5867 126.532 30.4373 126.612 30.304C126.697 30.1653 126.807 30.056 126.94 29.976C127.073 29.896 127.223 29.856 127.388 29.856H128.5C128.665 29.856 128.815 29.896 128.948 29.976C129.081 30.056 129.188 30.1653 129.268 30.304C129.348 30.4373 129.388 30.5867 129.388 30.752V33.632ZM131.247 29.104C131.247 29.2693 131.185 29.4133 131.063 29.536C130.945 29.6533 130.807 29.712 130.647 29.712C130.481 29.712 130.337 29.6533 130.215 29.536C130.097 29.4133 130.039 29.2693 130.039 29.104C130.039 28.944 130.097 28.8053 130.215 28.688C130.337 28.5653 130.481 28.504 130.647 28.504C130.807 28.504 130.945 28.5653 131.063 28.688C131.185 28.8053 131.247 28.944 131.247 29.104ZM131.119 33.632C131.119 33.7333 131.081 33.8213 131.007 33.896C130.937 33.9653 130.852 34 130.751 34H130.535C130.433 34 130.345 33.9653 130.271 33.896C130.201 33.8213 130.167 33.7333 130.167 33.632V30.312C130.167 30.2107 130.201 30.1253 130.271 30.056C130.345 29.9813 130.433 29.944 130.535 29.944H130.751C130.852 29.944 130.937 29.9813 131.007 30.056C131.081 30.1253 131.119 30.2107 131.119 30.312V33.632ZM134.786 33.104C134.786 33.3547 134.698 33.568 134.522 33.744C134.352 33.9147 134.144 34 133.898 34H132.786C132.541 34 132.33 33.9147 132.154 33.744C131.978 33.568 131.89 33.3547 131.89 33.104V30.752C131.89 30.5867 131.93 30.4373 132.01 30.304C132.096 30.1653 132.205 30.056 132.338 29.976C132.472 29.896 132.621 29.856 132.786 29.856H133.898C134.064 29.856 134.213 29.896 134.346 29.976C134.48 30.056 134.586 30.1653 134.666 30.304C134.746 30.4373 134.786 30.5867 134.786 30.752V31.168C134.786 31.2693 134.752 31.3573 134.682 31.432C134.613 31.5013 134.528 31.536 134.426 31.536H134.202C134.101 31.536 134.016 31.5013 133.946 31.432C133.877 31.3573 133.842 31.2693 133.842 31.168V30.92C133.842 30.888 133.829 30.8613 133.802 30.84C133.781 30.8187 133.757 30.808 133.73 30.808H132.954C132.928 30.808 132.901 30.8187 132.874 30.84C132.853 30.8613 132.842 30.888 132.842 30.92V32.952C132.842 32.9787 132.853 33.0027 132.874 33.024C132.901 33.0453 132.928 33.056 132.954 33.056H133.73C133.757 33.056 133.781 33.0453 133.802 33.024C133.829 33.0027 133.842 32.9787 133.842 32.952V32.704C133.842 32.6027 133.877 32.5173 133.946 32.448C134.016 32.3733 134.101 32.336 134.202 32.336H134.426C134.528 32.336 134.613 32.3733 134.682 32.448C134.752 32.5173 134.786 32.6027 134.786 32.704V33.104ZM138.333 33.104C138.333 33.3547 138.245 33.568 138.069 33.744C137.899 33.9147 137.691 34 137.445 34H136.333C136.088 34 135.877 33.9147 135.701 33.744C135.525 33.568 135.437 33.3547 135.437 33.104V32.776C135.437 32.6747 135.472 32.5893 135.541 32.52C135.616 32.4453 135.704 32.408 135.805 32.408H136.029C136.131 32.408 136.216 32.4453 136.285 32.52C136.355 32.5893 136.389 32.6747 136.389 32.776V32.952C136.389 33.0213 136.427 33.056 136.501 33.056H137.277C137.304 33.056 137.328 33.0453 137.349 33.024C137.376 33.0027 137.389 32.9787 137.389 32.952V32.656C137.389 32.6133 137.368 32.584 137.325 32.568L136.165 32.2C135.952 32.1253 135.776 31.9973 135.637 31.816C135.504 31.6347 135.437 31.4293 135.437 31.2V30.752C135.437 30.5867 135.477 30.4373 135.557 30.304C135.643 30.1707 135.752 30.064 135.885 29.984C136.019 29.8987 136.168 29.856 136.333 29.856H137.445C137.611 29.856 137.76 29.8987 137.893 29.984C138.027 30.064 138.133 30.1707 138.213 30.304C138.293 30.4373 138.333 30.5867 138.333 30.752V31.072C138.333 31.1733 138.299 31.2613 138.229 31.336C138.16 31.4053 138.075 31.44 137.973 31.44H137.749C137.648 31.44 137.563 31.4053 137.493 31.336C137.424 31.2613 137.389 31.1733 137.389 31.072V30.92C137.389 30.888 137.376 30.8613 137.349 30.84C137.328 30.8187 137.304 30.808 137.277 30.808H136.501C136.427 30.808 136.389 30.8453 136.389 30.92V31.2C136.389 31.2533 136.411 31.2853 136.453 31.296L137.613 31.664C137.832 31.7333 138.005 31.8587 138.133 32.04C138.267 32.2213 138.333 32.4267 138.333 32.656V33.104ZM140.192 33.4C140.192 33.5013 140.171 33.616 140.128 33.744C140.091 33.872 140.048 33.9893 140 34.096C139.957 34.2027 139.923 34.28 139.896 34.328C139.832 34.472 139.723 34.544 139.568 34.544H139.4C139.267 34.544 139.163 34.4853 139.088 34.368C139.024 34.2613 139.013 34.1467 139.056 34.024C139.077 33.992 139.093 33.9573 139.104 33.92C139.131 33.8667 139.125 33.8053 139.088 33.736C139.019 33.6293 138.984 33.5173 138.984 33.4C138.984 33.2347 139.043 33.0933 139.16 32.976C139.283 32.8587 139.424 32.8 139.584 32.8C139.749 32.8 139.891 32.8587 140.008 32.976C140.131 33.0933 140.192 33.2347 140.192 33.4ZM146.151 33.632C146.151 33.7333 146.114 33.8213 146.039 33.896C145.97 33.9653 145.887 34 145.791 34H143.039C142.943 34 142.858 33.9653 142.783 33.896C142.714 33.8213 142.679 33.7333 142.679 33.632V28.96C142.679 28.8533 142.714 28.7653 142.783 28.696C142.858 28.6267 142.943 28.592 143.039 28.592H145.791C145.887 28.592 145.97 28.6267 146.039 28.696C146.114 28.7653 146.151 28.8533 146.151 28.96V29.176C146.151 29.2773 146.114 29.3653 146.039 29.44C145.97 29.5093 145.887 29.544 145.791 29.544H143.727C143.663 29.544 143.631 29.5787 143.631 29.648V30.712C143.631 30.7867 143.663 30.824 143.727 30.824H145.503C145.61 30.824 145.698 30.8587 145.767 30.928C145.837 30.9973 145.871 31.0827 145.871 31.184V31.408C145.871 31.5093 145.837 31.5973 145.767 31.672C145.698 31.7413 145.61 31.776 145.503 31.776H143.727C143.663 31.776 143.631 31.808 143.631 31.872V32.952C143.631 33.0213 143.663 33.056 143.727 33.056H145.791C145.887 33.056 145.97 33.0907 146.039 33.16C146.114 33.2293 146.151 33.3173 146.151 33.424V33.632ZM148.245 33.632C148.245 33.7333 148.207 33.8213 148.133 33.896C148.063 33.9653 147.978 34 147.877 34H147.677C147.431 34 147.221 33.9147 147.045 33.744C146.869 33.568 146.781 33.3547 146.781 33.104V28.96C146.781 28.8533 146.815 28.7653 146.885 28.696C146.959 28.6267 147.047 28.592 147.149 28.592H147.373C147.474 28.592 147.559 28.6267 147.629 28.696C147.703 28.7653 147.741 28.8533 147.741 28.96V32.952C147.741 33.0213 147.773 33.056 147.837 33.056H147.877C147.978 33.056 148.063 33.0907 148.133 33.16C148.207 33.2293 148.245 33.3173 148.245 33.424V33.632ZM151.771 31.624C151.771 31.784 151.731 31.9333 151.651 32.072C151.571 32.2053 151.464 32.3147 151.331 32.4C151.197 32.48 151.048 32.52 150.883 32.52H149.939C149.912 32.52 149.885 32.5307 149.859 32.552C149.837 32.568 149.827 32.5893 149.827 32.616V32.952C149.827 32.9787 149.837 33.0027 149.859 33.024C149.885 33.0453 149.912 33.056 149.939 33.056H150.883C150.984 33.056 151.069 33.0907 151.139 33.16C151.213 33.2293 151.251 33.3173 151.251 33.424V33.632C151.251 33.7333 151.213 33.8213 151.139 33.896C151.069 33.9653 150.984 34 150.883 34H149.771C149.525 34 149.315 33.9147 149.139 33.744C148.963 33.568 148.875 33.3547 148.875 33.104V30.752C148.875 30.5867 148.915 30.4373 148.995 30.304C149.08 30.1707 149.189 30.064 149.323 29.984C149.456 29.8987 149.605 29.856 149.771 29.856H150.883C151.048 29.856 151.197 29.8987 151.331 29.984C151.464 30.064 151.571 30.1707 151.651 30.304C151.731 30.4373 151.771 30.5867 151.771 30.752V31.624ZM150.827 31.464V30.92C150.827 30.888 150.813 30.8613 150.787 30.84C150.765 30.8187 150.741 30.808 150.715 30.808H149.939C149.912 30.808 149.885 30.8187 149.859 30.84C149.837 30.8613 149.827 30.888 149.827 30.92V31.464C149.827 31.4853 149.837 31.5067 149.859 31.528C149.885 31.5493 149.912 31.56 149.939 31.56H150.715C150.741 31.56 150.765 31.5493 150.787 31.528C150.813 31.5067 150.827 31.4853 150.827 31.464ZM155.318 33.104C155.318 33.3547 155.23 33.568 155.054 33.744C154.883 33.9147 154.675 34 154.43 34H153.318C153.072 34 152.862 33.9147 152.686 33.744C152.51 33.568 152.422 33.3547 152.422 33.104V30.752C152.422 30.5867 152.462 30.4373 152.542 30.304C152.627 30.1653 152.736 30.056 152.87 29.976C153.003 29.896 153.152 29.856 153.318 29.856H154.43C154.595 29.856 154.744 29.896 154.878 29.976C155.011 30.056 155.118 30.1653 155.198 30.304C155.278 30.4373 155.318 30.5867 155.318 30.752V31.168C155.318 31.2693 155.283 31.3573 155.214 31.432C155.144 31.5013 155.059 31.536 154.958 31.536H154.734C154.632 31.536 154.547 31.5013 154.478 31.432C154.408 31.3573 154.374 31.2693 154.374 31.168V30.92C154.374 30.888 154.36 30.8613 154.334 30.84C154.312 30.8187 154.288 30.808 154.262 30.808H153.486C153.459 30.808 153.432 30.8187 153.406 30.84C153.384 30.8613 153.374 30.888 153.374 30.92V32.952C153.374 32.9787 153.384 33.0027 153.406 33.024C153.432 33.0453 153.459 33.056 153.486 33.056H154.262C154.288 33.056 154.312 33.0453 154.334 33.024C154.36 33.0027 154.374 32.9787 154.374 32.952V32.704C154.374 32.6027 154.408 32.5173 154.478 32.448C154.547 32.3733 154.632 32.336 154.734 32.336H154.958C155.059 32.336 155.144 32.3733 155.214 32.448C155.283 32.5173 155.318 32.6027 155.318 32.704V33.104ZM158.344 33.632C158.344 33.7333 158.31 33.8213 158.24 33.896C158.171 33.9653 158.086 34 157.984 34H156.864C156.619 34 156.408 33.9147 156.232 33.744C156.062 33.568 155.976 33.3547 155.976 33.104V28.96C155.976 28.8533 156.011 28.7653 156.08 28.696C156.15 28.6267 156.235 28.592 156.336 28.592H156.56C156.662 28.592 156.747 28.6267 156.816 28.696C156.891 28.7653 156.928 28.8533 156.928 28.96V29.76C156.928 29.824 156.963 29.856 157.032 29.856H157.984C158.086 29.856 158.171 29.8933 158.24 29.968C158.31 30.0373 158.344 30.1253 158.344 30.232V30.448C158.344 30.5387 158.31 30.624 158.24 30.704C158.16 30.7733 158.075 30.808 157.984 30.808H157.032C156.963 30.808 156.928 30.8453 156.928 30.92V32.952C156.928 33.0213 156.963 33.056 157.032 33.056H157.984C158.086 33.056 158.171 33.0907 158.24 33.16C158.31 33.2293 158.344 33.3173 158.344 33.424V33.632ZM161.368 30.448C161.368 30.5493 161.333 30.6347 161.264 30.704C161.195 30.7733 161.109 30.808 161.008 30.808H160.056C159.987 30.808 159.952 30.8453 159.952 30.92V33.632C159.952 33.7333 159.915 33.8213 159.84 33.896C159.771 33.9653 159.685 34 159.584 34H159.36C159.259 34 159.173 33.9653 159.104 33.896C159.035 33.8213 159 33.7333 159 33.632V30.752C159 30.5867 159.04 30.4373 159.12 30.304C159.2 30.1653 159.307 30.056 159.44 29.976C159.573 29.896 159.723 29.856 159.888 29.856H161.008C161.109 29.856 161.195 29.8933 161.264 29.968C161.333 30.0373 161.368 30.1253 161.368 30.232V30.448ZM163.223 29.104C163.223 29.2693 163.162 29.4133 163.039 29.536C162.922 29.6533 162.783 29.712 162.623 29.712C162.458 29.712 162.314 29.6533 162.191 29.536C162.074 29.4133 162.015 29.2693 162.015 29.104C162.015 28.944 162.074 28.8053 162.191 28.688C162.314 28.5653 162.458 28.504 162.623 28.504C162.783 28.504 162.922 28.5653 163.039 28.688C163.162 28.8053 163.223 28.944 163.223 29.104ZM163.095 33.632C163.095 33.7333 163.058 33.8213 162.983 33.896C162.914 33.9653 162.829 34 162.727 34H162.511C162.41 34 162.322 33.9653 162.247 33.896C162.178 33.8213 162.143 33.7333 162.143 33.632V30.312C162.143 30.2107 162.178 30.1253 162.247 30.056C162.322 29.9813 162.41 29.944 162.511 29.944H162.727C162.829 29.944 162.914 29.9813 162.983 30.056C163.058 30.1253 163.095 30.2107 163.095 30.312V33.632ZM166.763 33.104C166.763 33.3547 166.675 33.568 166.499 33.744C166.328 33.9147 166.12 34 165.875 34H164.763C164.518 34 164.307 33.9147 164.131 33.744C163.955 33.568 163.867 33.3547 163.867 33.104V30.752C163.867 30.5867 163.907 30.4373 163.987 30.304C164.072 30.1653 164.182 30.056 164.315 29.976C164.448 29.896 164.598 29.856 164.763 29.856H165.875C166.04 29.856 166.19 29.896 166.323 29.976C166.456 30.056 166.563 30.1653 166.643 30.304C166.723 30.4373 166.763 30.5867 166.763 30.752V31.168C166.763 31.2693 166.728 31.3573 166.659 31.432C166.59 31.5013 166.504 31.536 166.403 31.536H166.179C166.078 31.536 165.992 31.5013 165.923 31.432C165.854 31.3573 165.819 31.2693 165.819 31.168V30.92C165.819 30.888 165.806 30.8613 165.779 30.84C165.758 30.8187 165.734 30.808 165.707 30.808H164.931C164.904 30.808 164.878 30.8187 164.851 30.84C164.83 30.8613 164.819 30.888 164.819 30.92V32.952C164.819 32.9787 164.83 33.0027 164.851 33.024C164.878 33.0453 164.904 33.056 164.931 33.056H165.707C165.734 33.056 165.758 33.0453 165.779 33.024C165.806 33.0027 165.819 32.9787 165.819 32.952V32.704C165.819 32.6027 165.854 32.5173 165.923 32.448C165.992 32.3733 166.078 32.336 166.179 32.336H166.403C166.504 32.336 166.59 32.3733 166.659 32.448C166.728 32.5173 166.763 32.6027 166.763 32.704V33.104ZM168.622 33.4C168.622 33.5013 168.6 33.616 168.558 33.744C168.52 33.872 168.478 33.9893 168.43 34.096C168.387 34.2027 168.352 34.28 168.326 34.328C168.262 34.472 168.152 34.544 167.998 34.544H167.83C167.696 34.544 167.592 34.4853 167.518 34.368C167.454 34.2613 167.443 34.1467 167.486 34.024C167.507 33.992 167.523 33.9573 167.534 33.92C167.56 33.8667 167.555 33.8053 167.518 33.736C167.448 33.6293 167.414 33.5173 167.414 33.4C167.414 33.2347 167.472 33.0933 167.59 32.976C167.712 32.8587 167.854 32.8 168.014 32.8C168.179 32.8 168.32 32.8587 168.438 32.976C168.56 33.0933 168.622 33.2347 168.622 33.4ZM174.005 33.104C174.005 33.3547 173.917 33.568 173.741 33.744C173.57 33.9147 173.362 34 173.117 34H172.005C171.76 34 171.549 33.9147 171.373 33.744C171.197 33.568 171.109 33.3547 171.109 33.104V32.232C171.109 32.0667 171.149 31.92 171.229 31.792C171.314 31.6587 171.424 31.552 171.557 31.472C171.69 31.392 171.84 31.352 172.005 31.352H172.949C172.976 31.352 173 31.3413 173.021 31.32C173.048 31.2987 173.061 31.272 173.061 31.24V30.92C173.061 30.888 173.048 30.8613 173.021 30.84C173 30.8187 172.976 30.808 172.949 30.808H172.005C171.904 30.808 171.816 30.7733 171.741 30.704C171.672 30.6347 171.637 30.5493 171.637 30.448V30.232C171.637 30.1253 171.672 30.0373 171.741 29.968C171.816 29.8933 171.904 29.856 172.005 29.856H173.117C173.282 29.856 173.432 29.896 173.565 29.976C173.698 30.056 173.805 30.1653 173.885 30.304C173.965 30.4373 174.005 30.5867 174.005 30.752V33.104ZM173.061 32.952V32.4C173.061 32.3733 173.048 32.3493 173.021 32.328C173 32.3067 172.976 32.296 172.949 32.296H172.173C172.146 32.296 172.12 32.3067 172.093 32.328C172.072 32.3493 172.061 32.3733 172.061 32.4V32.952C172.061 32.9787 172.072 33.0027 172.093 33.024C172.12 33.0453 172.146 33.056 172.173 33.056H172.949C172.976 33.056 173 33.0453 173.021 33.024C173.048 33.0027 173.061 32.9787 173.061 32.952ZM177.552 33.632C177.552 33.7333 177.517 33.8213 177.448 33.896C177.379 33.9653 177.293 34 177.192 34H176.968C176.867 34 176.781 33.9653 176.712 33.896C176.643 33.8213 176.608 33.7333 176.608 33.632V30.92C176.608 30.888 176.595 30.8613 176.568 30.84C176.547 30.8187 176.523 30.808 176.496 30.808H175.72C175.693 30.808 175.667 30.8187 175.64 30.84C175.619 30.8613 175.608 30.888 175.608 30.92V33.632C175.608 33.7333 175.573 33.8213 175.504 33.896C175.435 33.9653 175.349 34 175.248 34H175.024C174.923 34 174.835 33.9653 174.76 33.896C174.691 33.8213 174.656 33.7333 174.656 33.632V30.752C174.656 30.5867 174.696 30.4373 174.776 30.304C174.861 30.1653 174.971 30.056 175.104 29.976C175.237 29.896 175.387 29.856 175.552 29.856H176.664C176.829 29.856 176.979 29.896 177.112 29.976C177.245 30.056 177.352 30.1653 177.432 30.304C177.512 30.4373 177.552 30.5867 177.552 30.752V33.632ZM181.099 33.104C181.099 33.3547 181.011 33.568 180.835 33.744C180.664 33.9147 180.456 34 180.211 34H179.099C178.853 34 178.643 33.9147 178.467 33.744C178.291 33.568 178.203 33.3547 178.203 33.104V30.752C178.203 30.5867 178.243 30.4373 178.323 30.304C178.408 30.1653 178.517 30.056 178.651 29.976C178.784 29.896 178.933 29.856 179.099 29.856H180.043C180.117 29.856 180.155 29.824 180.155 29.76V28.96C180.155 28.8533 180.189 28.7653 180.259 28.696C180.328 28.6267 180.413 28.592 180.515 28.592H180.739C180.84 28.592 180.925 28.6267 180.995 28.696C181.064 28.7653 181.099 28.8533 181.099 28.96V33.104ZM180.155 32.952V30.92C180.155 30.8453 180.117 30.808 180.043 30.808H179.267C179.24 30.808 179.213 30.8187 179.187 30.84C179.165 30.8613 179.155 30.888 179.155 30.92V32.952C179.155 32.9787 179.165 33.0027 179.187 33.024C179.213 33.0453 179.24 33.056 179.267 33.056H180.043C180.117 33.056 180.155 33.0213 180.155 32.952ZM184.553 33.632C184.553 33.7333 184.516 33.8213 184.441 33.896C184.372 33.9653 184.287 34 184.185 34H183.969C183.868 34 183.78 33.9653 183.705 33.896C183.636 33.8213 183.601 33.7333 183.601 33.632V28.96C183.601 28.8533 183.636 28.7653 183.705 28.696C183.78 28.6267 183.868 28.592 183.969 28.592H184.185C184.287 28.592 184.372 28.6267 184.441 28.696C184.516 28.7653 184.553 28.8533 184.553 28.96V33.632ZM188.099 33.632C188.099 33.7333 188.064 33.8213 187.995 33.896C187.925 33.9653 187.84 34 187.739 34H187.515C187.413 34 187.328 33.9653 187.259 33.896C187.189 33.8213 187.155 33.7333 187.155 33.632V30.92C187.155 30.888 187.141 30.8613 187.115 30.84C187.093 30.8187 187.069 30.808 187.043 30.808H186.267C186.24 30.808 186.213 30.8187 186.187 30.84C186.165 30.8613 186.155 30.888 186.155 30.92V33.632C186.155 33.7333 186.12 33.8213 186.051 33.896C185.981 33.9653 185.896 34 185.795 34H185.571C185.469 34 185.381 33.9653 185.307 33.896C185.237 33.8213 185.203 33.7333 185.203 33.632V30.752C185.203 30.5867 185.243 30.4373 185.323 30.304C185.408 30.1653 185.517 30.056 185.651 29.976C185.784 29.896 185.933 29.856 186.099 29.856H187.211C187.376 29.856 187.525 29.896 187.659 29.976C187.792 30.056 187.899 30.1653 187.979 30.304C188.059 30.4373 188.099 30.5867 188.099 30.752V33.632ZM191.022 30.448C191.022 30.5493 190.987 30.6347 190.918 30.704C190.848 30.7733 190.76 30.808 190.654 30.808H189.814C189.744 30.808 189.71 30.8453 189.71 30.92V33.632C189.71 33.7333 189.672 33.8213 189.598 33.896C189.528 33.9653 189.443 34 189.342 34H189.118C189.016 34 188.928 33.9653 188.854 33.896C188.784 33.8213 188.75 33.7333 188.75 33.632V29.48C188.75 29.3147 188.79 29.1653 188.87 29.032C188.955 28.8987 189.064 28.792 189.198 28.712C189.331 28.632 189.48 28.592 189.646 28.592H190.654C190.76 28.592 190.848 28.6267 190.918 28.696C190.987 28.7653 191.022 28.8533 191.022 28.96V29.176C191.022 29.2773 190.987 29.3653 190.918 29.44C190.848 29.5093 190.76 29.544 190.654 29.544H189.814C189.744 29.544 189.71 29.5787 189.71 29.648V29.76C189.71 29.824 189.744 29.856 189.814 29.856H190.654C190.76 29.856 190.848 29.8933 190.918 29.968C190.987 30.0373 191.022 30.1253 191.022 30.232V30.448ZM194.568 33.104C194.568 33.3547 194.48 33.568 194.304 33.744C194.133 33.9147 193.925 34 193.68 34H192.568C192.322 34 192.112 33.9147 191.936 33.744C191.76 33.568 191.672 33.3547 191.672 33.104V30.752C191.672 30.5867 191.712 30.4373 191.792 30.304C191.877 30.1653 191.986 30.056 192.12 29.976C192.253 29.896 192.402 29.856 192.568 29.856H193.68C193.845 29.856 193.994 29.896 194.128 29.976C194.261 30.056 194.368 30.1653 194.448 30.304C194.528 30.4373 194.568 30.5867 194.568 30.752V33.104ZM193.624 32.952V30.92C193.624 30.888 193.61 30.8613 193.584 30.84C193.562 30.8187 193.538 30.808 193.512 30.808H192.736C192.709 30.808 192.682 30.8187 192.656 30.84C192.634 30.8613 192.624 30.888 192.624 30.92V32.952C192.624 32.9787 192.634 33.0027 192.656 33.024C192.682 33.0453 192.709 33.056 192.736 33.056H193.512C193.538 33.056 193.562 33.0453 193.584 33.024C193.61 33.0027 193.624 32.9787 193.624 32.952ZM197.594 30.448C197.594 30.5493 197.56 30.6347 197.49 30.704C197.421 30.7733 197.336 30.808 197.234 30.808H196.282C196.213 30.808 196.178 30.8453 196.178 30.92V33.632C196.178 33.7333 196.141 33.8213 196.066 33.896C195.997 33.9653 195.912 34 195.81 34H195.586C195.485 34 195.4 33.9653 195.33 33.896C195.261 33.8213 195.226 33.7333 195.226 33.632V30.752C195.226 30.5867 195.266 30.4373 195.346 30.304C195.426 30.1653 195.533 30.056 195.666 29.976C195.8 29.896 195.949 29.856 196.114 29.856H197.234C197.336 29.856 197.421 29.8933 197.49 29.968C197.56 30.0373 197.594 30.1253 197.594 30.232V30.448ZM202.138 33.632C202.138 33.7333 202.101 33.8213 202.026 33.896C201.957 33.9653 201.871 34 201.77 34H201.546C201.445 34 201.357 33.9653 201.282 33.896C201.213 33.8213 201.178 33.7333 201.178 33.632V30.92C201.178 30.8453 201.143 30.808 201.074 30.808H200.762C200.698 30.808 200.666 30.8453 200.666 30.92V33.632C200.666 33.7333 200.629 33.8213 200.554 33.896C200.485 33.9653 200.399 34 200.298 34H200.082C199.981 34 199.893 33.9653 199.818 33.896C199.749 33.8213 199.714 33.7333 199.714 33.632V30.92C199.714 30.8453 199.682 30.808 199.618 30.808H199.306C199.237 30.808 199.202 30.8453 199.202 30.92V33.632C199.202 33.7333 199.165 33.8213 199.09 33.896C199.021 33.9653 198.935 34 198.834 34H198.61C198.509 34 198.421 33.9653 198.346 33.896C198.277 33.8213 198.242 33.7333 198.242 33.632V30.752C198.242 30.5867 198.282 30.4373 198.362 30.304C198.447 30.1653 198.557 30.056 198.69 29.976C198.823 29.896 198.973 29.856 199.138 29.856H199.77C199.887 29.856 199.994 29.88 200.09 29.928C200.154 29.944 200.221 29.944 200.29 29.928C200.386 29.88 200.493 29.856 200.61 29.856H201.242C201.407 29.856 201.557 29.896 201.69 29.976C201.823 30.056 201.93 30.1653 202.01 30.304C202.095 30.4373 202.138 30.5867 202.138 30.752V33.632ZM205.677 33.104C205.677 33.3547 205.589 33.568 205.413 33.744C205.242 33.9147 205.034 34 204.789 34H203.677C203.432 34 203.221 33.9147 203.045 33.744C202.869 33.568 202.781 33.3547 202.781 33.104V32.232C202.781 32.0667 202.821 31.92 202.901 31.792C202.986 31.6587 203.096 31.552 203.229 31.472C203.362 31.392 203.512 31.352 203.677 31.352H204.621C204.648 31.352 204.672 31.3413 204.693 31.32C204.72 31.2987 204.733 31.272 204.733 31.24V30.92C204.733 30.888 204.72 30.8613 204.693 30.84C204.672 30.8187 204.648 30.808 204.621 30.808H203.677C203.576 30.808 203.488 30.7733 203.413 30.704C203.344 30.6347 203.309 30.5493 203.309 30.448V30.232C203.309 30.1253 203.344 30.0373 203.413 29.968C203.488 29.8933 203.576 29.856 203.677 29.856H204.789C204.954 29.856 205.104 29.896 205.237 29.976C205.37 30.056 205.477 30.1653 205.557 30.304C205.637 30.4373 205.677 30.5867 205.677 30.752V33.104ZM204.733 32.952V32.4C204.733 32.3733 204.72 32.3493 204.693 32.328C204.672 32.3067 204.648 32.296 204.621 32.296H203.845C203.818 32.296 203.792 32.3067 203.765 32.328C203.744 32.3493 203.733 32.3733 203.733 32.4V32.952C203.733 32.9787 203.744 33.0027 203.765 33.024C203.792 33.0453 203.818 33.056 203.845 33.056H204.621C204.648 33.056 204.672 33.0453 204.693 33.024C204.72 33.0027 204.733 32.9787 204.733 32.952ZM208.704 33.632C208.704 33.7333 208.669 33.8213 208.6 33.896C208.53 33.9653 208.445 34 208.344 34H207.224C206.978 34 206.768 33.9147 206.592 33.744C206.421 33.568 206.336 33.3547 206.336 33.104V28.96C206.336 28.8533 206.37 28.7653 206.44 28.696C206.509 28.6267 206.594 28.592 206.696 28.592H206.92C207.021 28.592 207.106 28.6267 207.176 28.696C207.25 28.7653 207.288 28.8533 207.288 28.96V29.76C207.288 29.824 207.322 29.856 207.392 29.856H208.344C208.445 29.856 208.53 29.8933 208.6 29.968C208.669 30.0373 208.704 30.1253 208.704 30.232V30.448C208.704 30.5387 208.669 30.624 208.6 30.704C208.52 30.7733 208.434 30.808 208.344 30.808H207.392C207.322 30.808 207.288 30.8453 207.288 30.92V32.952C207.288 33.0213 207.322 33.056 207.392 33.056H208.344C208.445 33.056 208.53 33.0907 208.6 33.16C208.669 33.2293 208.704 33.3173 208.704 33.424V33.632ZM210.559 29.104C210.559 29.2693 210.498 29.4133 210.375 29.536C210.258 29.6533 210.119 29.712 209.959 29.712C209.794 29.712 209.65 29.6533 209.527 29.536C209.41 29.4133 209.351 29.2693 209.351 29.104C209.351 28.944 209.41 28.8053 209.527 28.688C209.65 28.5653 209.794 28.504 209.959 28.504C210.119 28.504 210.258 28.5653 210.375 28.688C210.498 28.8053 210.559 28.944 210.559 29.104ZM210.431 33.632C210.431 33.7333 210.394 33.8213 210.319 33.896C210.25 33.9653 210.165 34 210.063 34H209.847C209.746 34 209.658 33.9653 209.583 33.896C209.514 33.8213 209.479 33.7333 209.479 33.632V30.312C209.479 30.2107 209.514 30.1253 209.583 30.056C209.658 29.9813 209.746 29.944 209.847 29.944H210.063C210.165 29.944 210.25 29.9813 210.319 30.056C210.394 30.1253 210.431 30.2107 210.431 30.312V33.632ZM214.099 33.104C214.099 33.3547 214.011 33.568 213.835 33.744C213.664 33.9147 213.456 34 213.211 34H212.099C211.853 34 211.643 33.9147 211.467 33.744C211.291 33.568 211.203 33.3547 211.203 33.104V30.752C211.203 30.5867 211.243 30.4373 211.323 30.304C211.408 30.1653 211.517 30.056 211.651 29.976C211.784 29.896 211.933 29.856 212.099 29.856H213.211C213.376 29.856 213.525 29.896 213.659 29.976C213.792 30.056 213.899 30.1653 213.979 30.304C214.059 30.4373 214.099 30.5867 214.099 30.752V33.104ZM213.155 32.952V30.92C213.155 30.888 213.141 30.8613 213.115 30.84C213.093 30.8187 213.069 30.808 213.043 30.808H212.267C212.24 30.808 212.213 30.8187 212.187 30.84C212.165 30.8613 212.155 30.888 212.155 30.92V32.952C212.155 32.9787 212.165 33.0027 212.187 33.024C212.213 33.0453 212.24 33.056 212.267 33.056H213.043C213.069 33.056 213.093 33.0453 213.115 33.024C213.141 33.0027 213.155 32.9787 213.155 32.952ZM217.646 33.632C217.646 33.7333 217.611 33.8213 217.542 33.896C217.472 33.9653 217.387 34 217.286 34H217.062C216.96 34 216.875 33.9653 216.806 33.896C216.736 33.8213 216.702 33.7333 216.702 33.632V30.92C216.702 30.888 216.688 30.8613 216.662 30.84C216.64 30.8187 216.616 30.808 216.59 30.808H215.814C215.787 30.808 215.76 30.8187 215.734 30.84C215.712 30.8613 215.702 30.888 215.702 30.92V33.632C215.702 33.7333 215.667 33.8213 215.598 33.896C215.528 33.9653 215.443 34 215.342 34H215.118C215.016 34 214.928 33.9653 214.854 33.896C214.784 33.8213 214.75 33.7333 214.75 33.632V30.752C214.75 30.5867 214.79 30.4373 214.87 30.304C214.955 30.1653 215.064 30.056 215.198 29.976C215.331 29.896 215.48 29.856 215.646 29.856H216.758C216.923 29.856 217.072 29.896 217.206 29.976C217.339 30.056 217.446 30.1653 217.526 30.304C217.606 30.4373 217.646 30.5867 217.646 30.752V33.632ZM223.708 29.176C223.708 29.2773 223.674 29.3653 223.604 29.44C223.535 29.5093 223.447 29.544 223.34 29.544H222.5C222.431 29.544 222.396 29.5787 222.396 29.648V33.632C222.396 33.7333 222.359 33.8213 222.284 33.896C222.215 33.9653 222.13 34 222.028 34H221.82C221.719 34 221.631 33.9653 221.556 33.896C221.487 33.8213 221.452 33.7333 221.452 33.632V29.648C221.452 29.5787 221.418 29.544 221.348 29.544H220.5C220.399 29.544 220.311 29.5093 220.236 29.44C220.167 29.3653 220.132 29.2773 220.132 29.176V28.96C220.132 28.8533 220.167 28.7653 220.236 28.696C220.311 28.6267 220.399 28.592 220.5 28.592H223.34C223.447 28.592 223.535 28.6267 223.604 28.696C223.674 28.7653 223.708 28.8533 223.708 28.96V29.176ZM226.849 31.624C226.849 31.784 226.809 31.9333 226.729 32.072C226.649 32.2053 226.542 32.3147 226.409 32.4C226.275 32.48 226.126 32.52 225.961 32.52H225.017C224.99 32.52 224.963 32.5307 224.937 32.552C224.915 32.568 224.905 32.5893 224.905 32.616V32.952C224.905 32.9787 224.915 33.0027 224.937 33.024C224.963 33.0453 224.99 33.056 225.017 33.056H225.961C226.062 33.056 226.147 33.0907 226.217 33.16C226.291 33.2293 226.329 33.3173 226.329 33.424V33.632C226.329 33.7333 226.291 33.8213 226.217 33.896C226.147 33.9653 226.062 34 225.961 34H224.849C224.603 34 224.393 33.9147 224.217 33.744C224.041 33.568 223.953 33.3547 223.953 33.104V30.752C223.953 30.5867 223.993 30.4373 224.073 30.304C224.158 30.1707 224.267 30.064 224.401 29.984C224.534 29.8987 224.683 29.856 224.849 29.856H225.961C226.126 29.856 226.275 29.8987 226.409 29.984C226.542 30.064 226.649 30.1707 226.729 30.304C226.809 30.4373 226.849 30.5867 226.849 30.752V31.624ZM225.905 31.464V30.92C225.905 30.888 225.891 30.8613 225.865 30.84C225.843 30.8187 225.819 30.808 225.793 30.808H225.017C224.99 30.808 224.963 30.8187 224.937 30.84C224.915 30.8613 224.905 30.888 224.905 30.92V31.464C224.905 31.4853 224.915 31.5067 224.937 31.528C224.963 31.5493 224.99 31.56 225.017 31.56H225.793C225.819 31.56 225.843 31.5493 225.865 31.528C225.891 31.5067 225.905 31.4853 225.905 31.464ZM230.396 33.104C230.396 33.3547 230.308 33.568 230.132 33.744C229.961 33.9147 229.753 34 229.508 34H228.396C228.15 34 227.94 33.9147 227.764 33.744C227.588 33.568 227.5 33.3547 227.5 33.104V30.752C227.5 30.5867 227.54 30.4373 227.62 30.304C227.705 30.1653 227.814 30.056 227.948 29.976C228.081 29.896 228.23 29.856 228.396 29.856H229.508C229.673 29.856 229.822 29.896 229.956 29.976C230.089 30.056 230.196 30.1653 230.276 30.304C230.356 30.4373 230.396 30.5867 230.396 30.752V31.168C230.396 31.2693 230.361 31.3573 230.292 31.432C230.222 31.5013 230.137 31.536 230.036 31.536H229.812C229.71 31.536 229.625 31.5013 229.556 31.432C229.486 31.3573 229.452 31.2693 229.452 31.168V30.92C229.452 30.888 229.438 30.8613 229.412 30.84C229.39 30.8187 229.366 30.808 229.34 30.808H228.564C228.537 30.808 228.51 30.8187 228.484 30.84C228.462 30.8613 228.452 30.888 228.452 30.92V32.952C228.452 32.9787 228.462 33.0027 228.484 33.024C228.51 33.0453 228.537 33.056 228.564 33.056H229.34C229.366 33.056 229.39 33.0453 229.412 33.024C229.438 33.0027 229.452 32.9787 229.452 32.952V32.704C229.452 32.6027 229.486 32.5173 229.556 32.448C229.625 32.3733 229.71 32.336 229.812 32.336H230.036C230.137 32.336 230.222 32.3733 230.292 32.448C230.361 32.5173 230.396 32.6027 230.396 32.704V33.104ZM233.943 33.632C233.943 33.7333 233.908 33.8213 233.839 33.896C233.769 33.9653 233.684 34 233.583 34H233.359C233.257 34 233.172 33.9653 233.103 33.896C233.033 33.8213 232.999 33.7333 232.999 33.632V30.92C232.999 30.888 232.985 30.8613 232.959 30.84C232.937 30.8187 232.913 30.808 232.887 30.808H232.111C232.084 30.808 232.057 30.8187 232.031 30.84C232.009 30.8613 231.999 30.888 231.999 30.92V33.632C231.999 33.7333 231.964 33.8213 231.895 33.896C231.825 33.9653 231.74 34 231.639 34H231.415C231.313 34 231.225 33.9653 231.151 33.896C231.081 33.8213 231.047 33.7333 231.047 33.632V28.96C231.047 28.8533 231.081 28.7653 231.151 28.696C231.225 28.6267 231.313 28.592 231.415 28.592H231.639C231.74 28.592 231.825 28.6267 231.895 28.696C231.964 28.7653 231.999 28.8533 231.999 28.96V29.76C231.999 29.7867 232.009 29.8107 232.031 29.832C232.057 29.848 232.084 29.856 232.111 29.856H233.055C233.22 29.856 233.369 29.896 233.503 29.976C233.636 30.056 233.743 30.1653 233.823 30.304C233.903 30.4373 233.943 30.5867 233.943 30.752V33.632ZM237.489 33.632C237.489 33.7333 237.455 33.8213 237.385 33.896C237.316 33.9653 237.231 34 237.129 34H236.905C236.804 34 236.719 33.9653 236.649 33.896C236.58 33.8213 236.545 33.7333 236.545 33.632V30.92C236.545 30.888 236.532 30.8613 236.505 30.84C236.484 30.8187 236.46 30.808 236.433 30.808H235.657C235.631 30.808 235.604 30.8187 235.577 30.84C235.556 30.8613 235.545 30.888 235.545 30.92V33.632C235.545 33.7333 235.511 33.8213 235.441 33.896C235.372 33.9653 235.287 34 235.185 34H234.961C234.86 34 234.772 33.9653 234.697 33.896C234.628 33.8213 234.593 33.7333 234.593 33.632V30.752C234.593 30.5867 234.633 30.4373 234.713 30.304C234.799 30.1653 234.908 30.056 235.041 29.976C235.175 29.896 235.324 29.856 235.489 29.856H236.601C236.767 29.856 236.916 29.896 237.049 29.976C237.183 30.056 237.289 30.1653 237.369 30.304C237.449 30.4373 237.489 30.5867 237.489 30.752V33.632ZM241.036 33.104C241.036 33.3547 240.948 33.568 240.772 33.744C240.602 33.9147 240.394 34 240.148 34H239.036C238.791 34 238.58 33.9147 238.404 33.744C238.228 33.568 238.14 33.3547 238.14 33.104V30.752C238.14 30.5867 238.18 30.4373 238.26 30.304C238.346 30.1653 238.455 30.056 238.588 29.976C238.722 29.896 238.871 29.856 239.036 29.856H240.148C240.314 29.856 240.463 29.896 240.596 29.976C240.73 30.056 240.836 30.1653 240.916 30.304C240.996 30.4373 241.036 30.5867 241.036 30.752V33.104ZM240.092 32.952V30.92C240.092 30.888 240.079 30.8613 240.052 30.84C240.031 30.8187 240.007 30.808 239.98 30.808H239.204C239.178 30.808 239.151 30.8187 239.124 30.84C239.103 30.8613 239.092 30.888 239.092 30.92V32.952C239.092 32.9787 239.103 33.0027 239.124 33.024C239.151 33.0453 239.178 33.056 239.204 33.056H239.98C240.007 33.056 240.031 33.0453 240.052 33.024C240.079 33.0027 240.092 32.9787 240.092 32.952ZM243.143 33.632C243.143 33.7333 243.106 33.8213 243.031 33.896C242.962 33.9653 242.877 34 242.775 34H242.575C242.33 34 242.119 33.9147 241.943 33.744C241.767 33.568 241.679 33.3547 241.679 33.104V28.96C241.679 28.8533 241.714 28.7653 241.783 28.696C241.858 28.6267 241.946 28.592 242.047 28.592H242.271C242.373 28.592 242.458 28.6267 242.527 28.696C242.602 28.7653 242.639 28.8533 242.639 28.96V32.952C242.639 33.0213 242.671 33.056 242.735 33.056H242.775C242.877 33.056 242.962 33.0907 243.031 33.16C243.106 33.2293 243.143 33.3173 243.143 33.424V33.632ZM246.669 33.104C246.669 33.3547 246.581 33.568 246.405 33.744C246.234 33.9147 246.026 34 245.781 34H244.669C244.424 34 244.213 33.9147 244.037 33.744C243.861 33.568 243.773 33.3547 243.773 33.104V30.752C243.773 30.5867 243.813 30.4373 243.893 30.304C243.978 30.1653 244.088 30.056 244.221 29.976C244.354 29.896 244.504 29.856 244.669 29.856H245.781C245.946 29.856 246.096 29.896 246.229 29.976C246.362 30.056 246.469 30.1653 246.549 30.304C246.629 30.4373 246.669 30.5867 246.669 30.752V33.104ZM245.725 32.952V30.92C245.725 30.888 245.712 30.8613 245.685 30.84C245.664 30.8187 245.64 30.808 245.613 30.808H244.837C244.81 30.808 244.784 30.8187 244.757 30.84C244.736 30.8613 244.725 30.888 244.725 30.92V32.952C244.725 32.9787 244.736 33.0027 244.757 33.024C244.784 33.0453 244.81 33.056 244.837 33.056H245.613C245.64 33.056 245.664 33.0453 245.685 33.024C245.712 33.0027 245.725 32.9787 245.725 32.952ZM250.216 34.384C250.216 34.544 250.176 34.6907 250.096 34.824C250.016 34.9627 249.909 35.072 249.776 35.152C249.643 35.2373 249.493 35.28 249.328 35.28H248.216C248.115 35.28 248.027 35.2427 247.952 35.168C247.883 35.0987 247.848 35.0133 247.848 34.912V34.688C247.848 34.5867 247.883 34.5013 247.952 34.432C248.027 34.3627 248.115 34.328 248.216 34.328H249.16C249.187 34.328 249.211 34.3173 249.232 34.296C249.259 34.2747 249.272 34.2507 249.272 34.224V34.104C249.272 34.0773 249.259 34.0533 249.232 34.032C249.211 34.0107 249.187 34 249.16 34H248.216C247.971 34 247.76 33.9147 247.584 33.744C247.408 33.568 247.32 33.3547 247.32 33.104V30.752C247.32 30.5867 247.36 30.4373 247.44 30.304C247.525 30.1653 247.635 30.056 247.768 29.976C247.901 29.896 248.051 29.856 248.216 29.856H249.328C249.493 29.856 249.643 29.896 249.776 29.976C249.909 30.056 250.016 30.1653 250.096 30.304C250.176 30.4373 250.216 30.5867 250.216 30.752V34.384ZM249.272 32.952V30.92C249.272 30.888 249.259 30.8613 249.232 30.84C249.211 30.8187 249.187 30.808 249.16 30.808H248.384C248.357 30.808 248.331 30.8187 248.304 30.84C248.283 30.8613 248.272 30.888 248.272 30.92V32.952C248.272 32.9787 248.283 33.0027 248.304 33.024C248.331 33.0453 248.357 33.056 248.384 33.056H249.16C249.187 33.056 249.211 33.0453 249.232 33.024C249.259 33.0027 249.272 32.9787 249.272 32.952ZM253.547 30.32L252.451 34.528C252.392 34.7467 252.272 34.9253 252.091 35.064C251.91 35.208 251.702 35.28 251.467 35.28H251.243C251.142 35.28 251.054 35.2427 250.979 35.168C250.91 35.0987 250.875 35.0133 250.875 34.912V34.688C250.875 34.5867 250.91 34.5013 250.979 34.432C251.054 34.3627 251.142 34.328 251.243 34.328H251.467C251.499 34.328 251.52 34.312 251.531 34.28L251.707 33.592C251.723 33.5493 251.723 33.504 251.707 33.456L250.891 30.32C250.848 30.1973 250.87 30.0933 250.955 30.008C251.024 29.9067 251.118 29.856 251.235 29.856H251.467C251.552 29.856 251.627 29.8827 251.691 29.936C251.755 29.984 251.798 30.0507 251.819 30.136L252.179 31.504C252.184 31.5253 252.198 31.536 252.219 31.536C252.24 31.536 252.254 31.5253 252.259 31.504L252.619 30.136C252.646 30.0507 252.688 29.984 252.747 29.936C252.811 29.8827 252.883 29.856 252.963 29.856H253.195C253.318 29.856 253.414 29.9067 253.483 30.008C253.563 30.0933 253.584 30.1973 253.547 30.32ZM255.411 33.4C255.411 33.5013 255.389 33.616 255.347 33.744C255.309 33.872 255.267 33.9893 255.219 34.096C255.176 34.2027 255.141 34.28 255.115 34.328C255.051 34.472 254.941 34.544 254.787 34.544H254.619C254.485 34.544 254.381 34.4853 254.307 34.368C254.243 34.2613 254.232 34.1467 254.275 34.024C254.296 33.992 254.312 33.9573 254.323 33.92C254.349 33.8667 254.344 33.8053 254.307 33.736C254.237 33.6293 254.203 33.5173 254.203 33.4C254.203 33.2347 254.261 33.0933 254.379 32.976C254.501 32.8587 254.643 32.8 254.803 32.8C254.968 32.8 255.109 32.8587 255.227 32.976C255.349 33.0933 255.411 33.2347 255.411 33.4ZM261.466 29.176C261.466 29.2773 261.431 29.3653 261.362 29.44C261.293 29.5093 261.205 29.544 261.098 29.544H260.258C260.189 29.544 260.154 29.5787 260.154 29.648V33.632C260.154 33.7333 260.117 33.8213 260.042 33.896C259.973 33.9653 259.887 34 259.786 34H259.578C259.477 34 259.389 33.9653 259.314 33.896C259.245 33.8213 259.21 33.7333 259.21 33.632V29.648C259.21 29.5787 259.175 29.544 259.106 29.544H258.258C258.157 29.544 258.069 29.5093 257.994 29.44C257.925 29.3653 257.89 29.2773 257.89 29.176V28.96C257.89 28.8533 257.925 28.7653 257.994 28.696C258.069 28.6267 258.157 28.592 258.258 28.592H261.098C261.205 28.592 261.293 28.6267 261.362 28.696C261.431 28.7653 261.466 28.8533 261.466 28.96V29.176ZM265.669 32.944C265.669 33.136 265.621 33.312 265.525 33.472C265.429 33.632 265.301 33.76 265.141 33.856C264.981 33.952 264.805 34 264.613 34H263.173C262.981 34 262.802 33.952 262.637 33.856C262.477 33.76 262.349 33.632 262.253 33.472C262.157 33.312 262.109 33.136 262.109 32.944V28.96C262.109 28.8533 262.144 28.7653 262.213 28.696C262.288 28.6267 262.376 28.592 262.477 28.592H262.701C262.802 28.592 262.888 28.6267 262.957 28.696C263.032 28.7653 263.069 28.8533 263.069 28.96V32.944C263.069 32.9707 263.08 32.9973 263.101 33.024C263.122 33.0453 263.146 33.056 263.173 33.056H264.613C264.64 33.056 264.664 33.0453 264.685 33.024C264.706 32.9973 264.717 32.9707 264.717 32.944V28.96C264.717 28.8533 264.752 28.7653 264.821 28.696C264.896 28.6267 264.984 28.592 265.085 28.592H265.301C265.408 28.592 265.496 28.6267 265.565 28.696C265.634 28.7653 265.669 28.8533 265.669 28.96V32.944ZM269.792 33.632C269.792 33.7333 269.755 33.8213 269.68 33.896C269.611 33.9653 269.528 34 269.432 34H266.68C266.584 34 266.499 33.9653 266.424 33.896C266.355 33.8213 266.32 33.7333 266.32 33.632V28.96C266.32 28.8533 266.355 28.7653 266.424 28.696C266.499 28.6267 266.584 28.592 266.68 28.592H269.432C269.528 28.592 269.611 28.6267 269.68 28.696C269.755 28.7653 269.792 28.8533 269.792 28.96V29.176C269.792 29.2773 269.755 29.3653 269.68 29.44C269.611 29.5093 269.528 29.544 269.432 29.544H267.368C267.304 29.544 267.272 29.5787 267.272 29.648V30.712C267.272 30.7867 267.304 30.824 267.368 30.824H269.144C269.251 30.824 269.339 30.8587 269.408 30.928C269.477 30.9973 269.512 31.0827 269.512 31.184V31.408C269.512 31.5093 269.477 31.5973 269.408 31.672C269.339 31.7413 269.251 31.776 269.144 31.776H267.368C267.304 31.776 267.272 31.808 267.272 31.872V32.952C267.272 33.0213 267.304 33.056 267.368 33.056H269.432C269.528 33.056 269.611 33.0907 269.68 33.16C269.755 33.2293 269.792 33.3173 269.792 33.424V33.632ZM273.901 33.632C273.901 33.7333 273.864 33.8213 273.789 33.896C273.72 33.9653 273.637 34 273.541 34H270.789C270.693 34 270.608 33.9653 270.533 33.896C270.464 33.8213 270.429 33.7333 270.429 33.632V28.96C270.429 28.8533 270.464 28.7653 270.533 28.696C270.608 28.6267 270.693 28.592 270.789 28.592H273.541C273.637 28.592 273.72 28.6267 273.789 28.696C273.864 28.7653 273.901 28.8533 273.901 28.96V29.176C273.901 29.2773 273.864 29.3653 273.789 29.44C273.72 29.5093 273.637 29.544 273.541 29.544H271.477C271.413 29.544 271.381 29.5787 271.381 29.648V30.712C271.381 30.7867 271.413 30.824 271.477 30.824H273.253C273.36 30.824 273.448 30.8587 273.517 30.928C273.587 30.9973 273.621 31.0827 273.621 31.184V31.408C273.621 31.5093 273.587 31.5973 273.517 31.672C273.448 31.7413 273.36 31.776 273.253 31.776H271.477C271.413 31.776 271.381 31.808 271.381 31.872V32.952C271.381 33.0213 271.413 33.056 271.477 33.056H273.541C273.637 33.056 273.72 33.0907 273.789 33.16C273.864 33.2293 273.901 33.3173 273.901 33.424V33.632ZM275.499 33.632C275.499 33.7333 275.461 33.8213 275.387 33.896C275.317 33.9653 275.232 34 275.131 34H274.915C274.813 34 274.725 33.9653 274.651 33.896C274.581 33.8213 274.547 33.7333 274.547 33.632V28.96C274.547 28.8533 274.581 28.7653 274.651 28.696C274.725 28.6267 274.813 28.592 274.915 28.592H275.131C275.232 28.592 275.317 28.6267 275.387 28.696C275.461 28.7653 275.499 28.8533 275.499 28.96V33.632ZM279.716 29.176C279.716 29.2773 279.681 29.3653 279.612 29.44C279.543 29.5093 279.455 29.544 279.348 29.544H278.508C278.439 29.544 278.404 29.5787 278.404 29.648V33.632C278.404 33.7333 278.367 33.8213 278.292 33.896C278.223 33.9653 278.137 34 278.036 34H277.828C277.727 34 277.639 33.9653 277.564 33.896C277.495 33.8213 277.46 33.7333 277.46 33.632V29.648C277.46 29.5787 277.425 29.544 277.356 29.544H276.508C276.407 29.544 276.319 29.5093 276.244 29.44C276.175 29.3653 276.14 29.2773 276.14 29.176V28.96C276.14 28.8533 276.175 28.7653 276.244 28.696C276.319 28.6267 276.407 28.592 276.508 28.592H279.348C279.455 28.592 279.543 28.6267 279.612 28.696C279.681 28.7653 279.716 28.8533 279.716 28.96V29.176Z" fill="white"/>
</g>
<defs>
<clipPath id="clip0_1048_202">
<rect width="300" height="40" fill="white"/>
</clipPath>
</defs>
</svg>
