<svg width="75" height="47" viewBox="0 0 75 47" fill="none" xmlns="http://www.w3.org/2000/svg">
<path d="M50.8594 0H40.7812C39.8438 0 39.0234 0.351562 38.3203 1.05469L26.7188 11.6016C24.8438 13.4766 24.8438 16.4062 26.4844 18.1641C28.0078 19.8047 31.0547 20.2734 33.0469 18.5156C33.0469 18.5156 33.0469 18.5156 33.1641 18.5156L42.4219 9.96094C43.2422 9.25781 44.4141 9.25781 45.1172 10.0781C45.8203 10.7812 45.8203 11.9531 45 12.6562L41.9531 15.4688L59.0625 29.2969C59.2969 29.6484 59.6484 29.8828 59.8828 30.2344V7.5L53.5547 1.17188C52.8516 0.46875 51.9141 0 50.8594 0ZM63.75 7.61719V33.8672C63.75 35.8594 65.3906 37.6172 67.5 37.6172H75V7.61719H63.75ZM69.375 33.8672C68.3203 33.8672 67.5 32.9297 67.5 31.9922C67.5 30.9375 68.3203 30.1172 69.375 30.1172C70.3125 30.1172 71.25 30.9375 71.25 31.9922C71.25 32.9297 70.3125 33.8672 69.375 33.8672ZM0 37.5H7.5C9.49219 37.5 11.25 35.8594 11.25 33.75V7.61719H0V37.5ZM5.625 30.1172C6.5625 30.1172 7.5 30.9375 7.5 31.9922C7.5 32.9297 6.5625 33.8672 5.625 33.8672C4.57031 33.8672 3.75 32.9297 3.75 31.9922C3.75 30.9375 4.57031 30.1172 5.625 30.1172ZM56.6016 32.2266L39.1406 18.0469L35.625 21.2109C32.1094 24.4922 26.8359 24.1406 23.6719 20.7422C20.625 17.3438 20.8594 11.9531 24.2578 8.78906L33.8672 0H24.0234C22.9688 0 22.0312 0.46875 21.3281 1.17188L15 7.5V33.75H17.1094L27.6562 43.3594C30.9375 46.0547 35.625 45.4688 38.2031 42.3047H38.3203L40.3125 44.0625C42.1875 45.5859 45 45.3516 46.5234 43.4766L50.1562 38.9062L50.8594 39.4922C52.3828 40.7812 54.7266 40.5469 56.1328 38.9062L57.1875 37.5C58.4766 35.8594 58.2422 33.5156 56.6016 32.2266Z" fill="#2A4F6F"/>
</svg>
