<svg width="65" height="65" viewBox="0 0 65 65" fill="none" xmlns="http://www.w3.org/2000/svg">
<path d="M32.5 63.9516C49.8702 63.9516 63.9516 49.8703 63.9516 32.5C63.9516 15.1298 49.8702 1.0484 32.5 1.0484C15.1298 1.0484 1.0484 15.1298 1.0484 32.5C1.0484 49.8703 15.1298 63.9516 32.5 63.9516Z" fill="#78AED8"/>
<path d="M32.5 65C28.113 65 23.8566 64.1403 19.8491 62.4456C15.979 60.8086 12.5036 58.4654 9.51883 55.4812C6.53407 52.4969 4.19145 49.021 2.5544 45.1509C0.859677 41.1434 0 36.887 0 32.5C0 28.113 0.859677 23.8566 2.5544 19.8491C4.19145 15.979 6.5346 12.5036 9.51883 9.51883C12.5031 6.53407 15.979 4.19145 19.8491 2.5544C23.8566 0.859677 28.113 0 32.5 0C36.887 0 41.1434 0.859677 45.1509 2.5544C49.021 4.19145 52.4964 6.5346 55.4812 9.51883C58.4659 12.5031 60.8086 15.979 62.4456 19.8491C64.1403 23.8566 65 28.113 65 32.5C65 36.887 64.1403 41.1434 62.4456 45.1509C60.8086 49.021 58.4654 52.4964 55.4812 55.4812C52.4969 58.4659 49.021 60.8086 45.1509 62.4456C41.1434 64.1403 36.887 65 32.5 65ZM32.5 2.09677C28.395 2.09677 24.4138 2.90036 20.6658 4.48552C17.0457 6.01669 13.7942 8.20887 11.0013 11.0018C8.20835 13.7947 6.01617 17.0457 4.485 20.6663C2.90036 24.4138 2.09677 28.395 2.09677 32.5C2.09677 36.605 2.90036 40.5862 4.48552 44.3342C6.01669 47.9543 8.20887 51.2058 11.0018 53.9988C13.7947 56.7917 17.0457 58.9838 20.6663 60.515C24.4138 62.0996 28.395 62.9032 32.5 62.9032C36.605 62.9032 40.5862 62.0996 44.3342 60.5145C47.9543 58.9833 51.2058 56.7911 53.9988 53.9982C56.7917 51.2053 58.9838 47.9543 60.515 44.3337C62.0996 40.5862 62.9032 36.605 62.9032 32.5C62.9032 28.395 62.0996 24.4138 60.5145 20.6658C58.9833 17.0457 56.7911 13.7942 53.9982 11.0013C51.2053 8.20835 47.9543 6.01617 44.3337 4.485C40.5862 2.90036 36.605 2.09677 32.5 2.09677Z" fill="none"/>
<mask id="mask0_70_1793" style="mask-type:alpha" maskUnits="userSpaceOnUse" x="1" y="1" width="63" height="63">
<path d="M32.5 63.9516C49.8702 63.9516 63.9516 49.8703 63.9516 32.5C63.9516 15.1298 49.8702 1.0484 32.5 1.0484C15.1298 1.0484 1.0484 15.1298 1.0484 32.5C1.0484 49.8703 15.1298 63.9516 32.5 63.9516Z" fill="#78AED8"/>
</mask>
<g mask="url(#mask0_70_1793)">
<path d="M41.7594 4.13641H36.1049V9.79089H41.7594V4.13641Z" fill="#0B6FAD"/>
<path d="M41.7594 10.5017H36.1049V16.1562H41.7594V10.5017Z" fill="#0B6FAD"/>
<path d="M41.7594 16.867H36.1049V22.5215H41.7594V16.867Z" fill="#0B6FAD"/>
<path d="M41.7594 23.2322H36.1049V28.8867H41.7594V23.2322Z" fill="#0B6FAD"/>
<path d="M41.7594 29.5975H36.1049V35.252H41.7594V29.5975Z" fill="#0B6FAD"/>
<path d="M41.7594 35.9623H36.1049V41.6168H41.7594V35.9623Z" fill="#0B6FAD"/>
<path d="M41.7594 42.3276H36.1049V47.9821H41.7594V42.3276Z" fill="#0B6FAD"/>
<path d="M41.7594 48.6929H36.1049V54.3474H41.7594V48.6929Z" fill="#0B6FAD"/>
<path d="M41.7594 55.0582H36.1049V60.7126H41.7594V55.0582Z" fill="#0B6FAD"/>
<path d="M48.1865 10.5017H42.532V16.1562H48.1865V10.5017Z" fill="#0B6FAD"/>
<path d="M48.1865 16.867H42.532V22.5215H48.1865V16.867Z" fill="#0B6FAD"/>
<path d="M48.1865 23.2322H42.532V28.8867H48.1865V23.2322Z" fill="#0B6FAD"/>
<path d="M48.1865 29.5975H42.532V35.252H48.1865V29.5975Z" fill="#0B6FAD"/>
<path d="M48.1865 35.9623H42.532V41.6168H48.1865V35.9623Z" fill="#0B6FAD"/>
<path d="M48.1865 42.3276H42.532V47.9821H48.1865V42.3276Z" fill="#0B6FAD"/>
<path d="M48.1865 48.6929H42.532V54.3474H48.1865V48.6929Z" fill="#0B6FAD"/>
<path d="M54.6136 10.5017H48.9591V16.1562H54.6136V10.5017Z" fill="#0B6FAD"/>
<path d="M54.6136 16.867H48.9591V22.5215H54.6136V16.867Z" fill="#0B6FAD"/>
<path d="M54.6136 23.2322H48.9591V28.8867H54.6136V23.2322Z" fill="#0B6FAD"/>
<path d="M54.6136 29.5975H48.9591V35.252H54.6136V29.5975Z" fill="#0B6FAD"/>
<path d="M54.6136 35.9623H48.9591V41.6168H54.6136V35.9623Z" fill="#0B6FAD"/>
<path d="M54.6136 42.3276H48.9591V47.9821H54.6136V42.3276Z" fill="#0B6FAD"/>
<path d="M54.6136 48.6929H48.9591V54.3474H54.6136V48.6929Z" fill="#0B6FAD"/>
<path d="M61.0414 23.2322H55.3868V28.8867H61.0414V23.2322Z" fill="#0B6FAD"/>
<path d="M61.0414 29.5975H55.3868V35.252H61.0414V29.5975Z" fill="#0B6FAD"/>
<path d="M61.0414 35.9623H55.3868V41.6168H61.0414V35.9623Z" fill="#0B6FAD"/>
<path d="M35.3317 4.13641H29.6772V9.79089H35.3317V4.13641Z" fill="#0B6FAD"/>
<path d="M35.3317 10.5017H29.6772V16.1562H35.3317V10.5017Z" fill="#0B6FAD"/>
<path d="M35.3317 16.867H29.6772V22.5215H35.3317V16.867Z" fill="#0B6FAD"/>
<path d="M35.3317 23.2322H29.6772V28.8867H35.3317V23.2322Z" fill="#0B6FAD"/>
<path d="M35.3317 29.5975H29.6772V35.252H35.3317V29.5975Z" fill="#0B6FAD"/>
<path d="M35.3317 35.9623H29.6772V41.6168H35.3317V35.9623Z" fill="#0B6FAD"/>
<path d="M35.3317 42.3276H29.6772V47.9821H35.3317V42.3276Z" fill="#0B6FAD"/>
<path d="M35.3317 48.6929H29.6772V54.3474H35.3317V48.6929Z" fill="#0B6FAD"/>
<path d="M35.3317 55.0582H29.6772V60.7126H35.3317V55.0582Z" fill="#0B6FAD"/>
<path d="M28.9046 4.13641H23.2501V9.79089H28.9046V4.13641Z" fill="#0B6FAD"/>
<path d="M28.9046 10.5017H23.2501V16.1562H28.9046V10.5017Z" fill="#0B6FAD"/>
<path d="M28.9046 16.867H23.2501V22.5215H28.9046V16.867Z" fill="#0B6FAD"/>
<path d="M28.9046 23.2322H23.2501V28.8867H28.9046V23.2322Z" fill="#0B6FAD"/>
<path d="M28.9046 29.5975H23.2501V35.252H28.9046V29.5975Z" fill="#0B6FAD"/>
<path d="M28.9046 35.9623H23.2501V41.6168H28.9046V35.9623Z" fill="#0B6FAD"/>
<path d="M28.9046 42.3276H23.2501V47.9821H28.9046V42.3276Z" fill="#0B6FAD"/>
<path d="M28.9046 48.6929H23.2501V54.3474H28.9046V48.6929Z" fill="#0B6FAD"/>
<path d="M28.9046 55.0582H23.2501V60.7126H28.9046V55.0582Z" fill="#0B6FAD"/>
<path d="M22.4769 10.5017H16.8224V16.1562H22.4769V10.5017Z" fill="#0B6FAD"/>
<path d="M22.4769 16.867H16.8224V22.5215H22.4769V16.867Z" fill="#0B6FAD"/>
<path d="M22.4769 23.2322H16.8224V28.8867H22.4769V23.2322Z" fill="#0B6FAD"/>
<path d="M22.4769 29.5975H16.8224V35.252H22.4769V29.5975Z" fill="#0B6FAD"/>
<path d="M22.4769 35.9623H16.8224V41.6168H22.4769V35.9623Z" fill="#0B6FAD"/>
<path d="M22.4769 42.3276H16.8224V47.9821H22.4769V42.3276Z" fill="#0B6FAD"/>
<path d="M22.4769 48.6929H16.8224V54.3474H22.4769V48.6929Z" fill="#0B6FAD"/>
<path d="M16.0498 10.5017H10.3953V16.1562H16.0498V10.5017Z" fill="#0B6FAD"/>
<path d="M16.0498 16.867H10.3953V22.5215H16.0498V16.867Z" fill="#0B6FAD"/>
<path d="M16.0498 23.2322H10.3953V28.8867H16.0498V23.2322Z" fill="#0B6FAD"/>
<path d="M16.0498 29.5975H10.3953V35.252H16.0498V29.5975Z" fill="#0B6FAD"/>
<path d="M16.0498 35.9623H10.3953V41.6168H16.0498V35.9623Z" fill="#0B6FAD"/>
<path d="M16.0498 42.3276H10.3953V47.9821H16.0498V42.3276Z" fill="#0B6FAD"/>
<path d="M16.0498 48.6929H10.3953V54.3474H16.0498V48.6929Z" fill="#0B6FAD"/>
<path d="M9.62213 23.2322H3.96765V28.8867H9.62213V23.2322Z" fill="#0B6FAD"/>
<path d="M9.62213 29.5975H3.96765V35.252H9.62213V29.5975Z" fill="#0B6FAD"/>
<path d="M9.62213 35.9623H3.96765V41.6168H9.62213V35.9623Z" fill="#0B6FAD"/>
<path d="M48.8135 18.3211C48.737 18.2703 48.7385 18.157 48.8166 18.1078L56.8368 13.0876L41.4632 6.31445L34.2383 14.8488L34.2456 14.8525C34.7074 15.0816 35.1268 15.4165 35.4408 15.8647L38.489 20.3193L33.4829 23.2417L30.5873 19.2232L30.463 19.3082L30.2639 19.5435L33.0243 23.4907C33.0243 23.4907 31.4522 24.4154 30.8887 24.7535C29.9834 25.2965 29.3041 25.6876 28.8915 26.0571C28.5597 26.3544 28.3238 26.7737 28.3238 26.7737L26.3576 24.1575L26.2978 24.2282L25.9607 24.6261L29.4634 29.1504C29.9404 29.7836 30.1412 30.56 30.0322 31.341C29.9226 32.1215 29.5153 32.8129 28.8852 33.2873C28.4208 33.6375 27.9081 33.8105 27.3687 33.8105C26.8597 33.8105 26.3272 33.6511 25.7878 33.3471L25.1304 34.1591C25.4497 34.9731 25.6279 35.5592 24.796 36.4681C23.8614 37.4898 22.8539 37.3137 22.6232 37.255L22.1278 37.8667L19.1258 41.5743L10.9945 51.7049C10.7696 51.9832 10.344 52.5808 10.6291 53.0452C10.9384 53.549 11.5355 53.7314 12.1441 53.3498L21.7331 46.0383L26.052 42.7454L27.4348 41.6912L41.4643 30.9935C41.4643 30.9935 38.5781 30.3162 36.9604 28.0585C36.7927 27.8242 36.4069 27.906 36.1705 28.0706C36.1705 28.0706 34.8726 29.2642 32.651 29.4948C31.1445 29.651 30.277 29.3061 29.6878 28.7871C29.0372 28.2142 28.8302 27.441 28.8747 27.0473C28.9177 26.6631 29.4477 26.0823 29.79 25.9025L38.8386 20.81C39.3177 20.5762 39.8959 20.7392 40.1832 21.1884L43.3367 26.0912L51.1236 19.8617L48.8135 18.3211Z" fill="#FABF13"/>
<path d="M28.892 26.0566C29.3045 25.6876 29.9844 25.2965 30.8892 24.7529C31.4527 24.4148 33.0248 23.4902 33.0248 23.4902L30.2643 19.543L30.2549 19.5299L30.1532 19.3842C29.195 18.0669 27.3462 17.7775 26.0294 18.7336C25.3925 19.197 24.9736 19.8816 24.8505 20.6606C24.7273 21.439 24.916 22.219 25.3825 22.8606L26.357 24.1575L28.3233 26.7737C28.3238 26.7732 28.5597 26.3538 28.892 26.0566Z" fill="#B81C26"/>
<path d="M28.8852 33.2868C29.5153 32.8124 29.9226 32.121 30.0321 31.3405C30.1412 30.5599 29.9404 29.7831 29.4634 29.1499L25.9607 24.6256L25.0329 23.4272C24.1177 22.2457 22.4025 22.0156 21.2079 22.9151L20.8813 23.161C20.29 23.6065 19.91 24.2565 19.812 24.9904C19.7134 25.7243 19.9094 26.4508 20.3629 27.0368L24.494 32.1357C24.9642 32.6913 25.3453 33.0976 25.7878 33.3471C26.3271 33.6511 26.8597 33.8105 27.3687 33.8105C27.9081 33.8099 28.4208 33.6375 28.8852 33.2868Z" fill="#B81C26"/>
<path d="M24.7959 36.4682C25.6278 35.5587 25.4496 34.9727 25.1304 34.1591C25.0507 33.9557 24.9495 33.7591 24.8106 33.5846L20.0384 27.5747C19.3249 26.6752 18.0108 26.5258 17.1123 27.2387C16.5572 27.6795 16.2065 28.4894 16.1515 29.4608C16.0713 30.8609 16.6023 32.3113 17.5369 33.246L17.6113 33.3214C19.7191 35.4449 21.3132 36.9232 22.6226 37.2555C22.8538 37.3137 23.8613 37.4898 24.7959 36.4682Z" fill="#B81C26"/>
<path d="M38.4889 20.3193L35.4408 15.8647C35.1268 15.4166 34.7074 15.0816 34.2456 14.8525C34.243 14.8515 34.2404 14.8499 34.2383 14.8489C33.3293 14.4012 32.2437 14.3907 31.3788 14.9306C30.6832 15.3647 30.2104 16.0451 30.0468 16.846C29.8838 17.6475 30.0515 18.4579 30.5202 19.1278L30.5679 19.196L30.5873 19.2227L33.4829 23.2412L38.4889 20.3193Z" fill="#B81C26"/>
<path d="M22.1283 37.8667C19.9529 37.1381 18.5193 34.969 18.5193 34.969C18.5193 34.969 18.3122 36.9069 18.5287 38.8276C18.6073 39.5263 18.903 41.0475 19.1263 41.5744L22.1283 37.8667Z" fill="#B81C26"/>
<path d="M38.8386 20.8099L29.7899 25.9025C29.4476 26.0823 28.9177 26.6631 28.8747 27.0473C28.8307 27.4415 29.0372 28.2142 29.6877 28.7871C30.2769 29.3066 31.1445 29.651 32.651 29.4948C34.8725 29.2641 36.1704 28.0706 36.1704 28.0706C36.4068 27.906 36.7926 27.8242 36.9604 28.0585C38.5786 30.3162 41.4643 30.9935 41.4643 30.9935L26.0834 42.7763L26.0519 42.7453L21.7331 46.0383C21.7436 46.052 22.1676 46.5762 22.1766 46.5861C22.5063 46.9489 22.4502 47.2162 22.456 47.5637V65.8552L40.1831 66.7104L37.0878 45.8108C37.0049 45.2216 37.1517 44.623 37.4972 44.1387L46.2454 31.8909C46.5059 31.526 46.5185 31.0401 46.2774 30.6622L43.3367 26.0901L40.1831 21.1874C39.8964 20.7387 39.3177 20.5762 38.8386 20.8099ZM28.1136 45.1619V49.1201H27.2822V45.3176L25.827 44.7981C26.7234 43.908 27.2822 42.9791 27.2822 42.9791C27.2822 42.9791 27.8929 43.908 29.3612 45.1619H28.1136Z" fill="#B81C26"/>
</g>
</svg>
