<svg width="300" height="40" viewBox="0 0 300 40" fill="none" xmlns="http://www.w3.org/2000/svg">
<path d="M0 0H300V40H0V0Z" fill="none"/>
<path d="M69.9648 13.8008L68.4219 15.041C68.0443 14.4355 67.6309 13.8496 67.1816 13.2832C62.0384 13.8887 57.2728 14.2533 52.8848 14.377L52.4648 12.6973C54.3789 12.0788 56.4557 9.97266 58.6953 6.37891L60.7168 6.7793C59.3887 8.92773 57.8099 10.8418 55.9805 12.5215C58.5911 12.4238 61.8854 12.1634 65.8633 11.7402C65.0365 10.8288 64.0339 9.89453 62.8555 8.9375L64.3984 7.75586C66.7878 9.82617 68.6432 11.8411 69.9648 13.8008ZM68.1973 23.9961H66.3809V23.0977H55.8633V23.9961H54.0371V15.7246H68.1973V23.9961ZM66.3809 21.3594V17.4629H55.8633V21.3594H66.3809ZM85.2188 8.72266H80.4824V7.59961H82.0156C81.9635 7.37174 81.8529 7.0918 81.6836 6.75977L83.0605 6.39844C83.2363 6.6849 83.4089 7.08529 83.5781 7.59961H85.2188V8.72266ZM80.541 12.9805L79.5156 13.3613C79.5026 13.2181 79.4635 13.0716 79.3984 12.9219C78.6953 12.9805 77.6504 13.1139 76.2637 13.3223L75.9023 12.1992C76.4948 11.7695 77.1133 11.1966 77.7578 10.4805C76.9766 10.5586 76.5436 10.5977 76.459 10.5977L76.0586 9.50391C76.8854 8.76823 77.6471 7.74609 78.3438 6.4375L79.4961 6.87695C78.8385 7.93815 78.2135 8.77799 77.6211 9.39648C77.9792 9.41602 78.3372 9.38346 78.6953 9.29883L79.3398 8.2832L80.4434 8.85938C79.597 10.1224 78.6953 11.1706 77.7383 12.0039C78.168 11.9844 78.6009 11.929 79.0371 11.8379C78.959 11.5645 78.9004 11.3724 78.8613 11.2617L79.8184 10.9199C80.2025 11.8965 80.4434 12.5833 80.541 12.9805ZM89.7012 13.0781L88.6172 13.459L88.4805 12.9609C87.3737 13.1302 86.2995 13.2637 85.2578 13.3613L84.9844 12.2773C85.6745 11.8021 86.332 11.1966 86.957 10.4609L85.3848 10.5586L85.0234 9.48438C85.8372 8.85286 86.6217 7.85026 87.377 6.47656L88.5586 7.02344C87.8945 7.96745 87.263 8.74544 86.6641 9.35742C87.1589 9.35742 87.5495 9.32487 87.8359 9.25977C88.0247 9.05794 88.2591 8.70312 88.5391 8.19531L89.6426 8.72266C88.8288 10.0247 87.862 11.151 86.7422 12.1016C87.0221 12.0885 87.4616 12.0267 88.0605 11.916C88.0475 11.8379 87.9727 11.6654 87.8359 11.3984L88.8809 10.9785C89.2975 11.8314 89.571 12.5312 89.7012 13.0781ZM76.0195 8.97656L74.7598 10.1973C74.0827 9.30534 73.3079 8.49154 72.4355 7.75586L73.6953 6.51562C74.6589 7.30339 75.4336 8.1237 76.0195 8.97656ZM84.623 10.4609H80.8242V9.41602H84.623V10.4609ZM84.623 12.1602H80.8242V11.1445H84.623V12.1602ZM75.6777 14.1035L74.418 15.4219C73.513 14.25 72.7676 13.4297 72.1816 12.9609L73.3633 11.6621C74.2161 12.3652 74.9876 13.179 75.6777 14.1035ZM84.584 15.9004H80.8242V12.8242H84.584V15.9004ZM83.3047 14.8555V13.8594H82.084V14.8555H83.3047ZM80.4434 15.5977L79.3984 15.8809C79.3333 15.1647 79.1999 14.4714 78.998 13.8008L79.9844 13.5371C80.1862 14.2988 80.3392 14.9857 80.4434 15.5977ZM77.2207 13.8203C77.0254 14.7122 76.7715 15.5065 76.459 16.2031L75.3848 15.9199C75.8145 14.8587 76.0781 14.071 76.1758 13.5566L77.2207 13.8203ZM78.7441 16.0371L77.6602 16.2617C77.6602 15.487 77.5853 14.6992 77.4355 13.8984L78.4219 13.7031C78.5846 14.2891 78.6921 15.0671 78.7441 16.0371ZM89.7793 15.9199L88.6758 16.2422C88.4805 15.2461 88.3014 14.4974 88.1387 13.9961L89.2227 13.7227C89.4961 14.5234 89.6816 15.2559 89.7793 15.9199ZM86.3418 14.0352C86.2441 14.9857 86.1042 15.7604 85.9219 16.3594L84.8574 16.0176C85.0853 15.3926 85.2448 14.6602 85.3359 13.8203L86.3418 14.0352ZM87.9629 16.1152L86.8594 16.3594C86.9049 15.9232 86.8333 15.1484 86.6445 14.0352L87.6602 13.8984C87.8099 14.4779 87.9108 15.2168 87.9629 16.1152ZM89.1445 20.8027C89.099 22.0918 88.8906 22.9609 88.5195 23.4102C88.1549 23.8594 87.6276 24.084 86.9375 24.084H82.2988L81.8594 22.8047H86.6836C86.9635 22.8047 87.1426 22.5378 87.2207 22.0039H76.2246L77.3184 18.6641H86.6836V17.8242H76.3613V16.6426H88.4219V19.8848H78.7832L78.4414 20.8027H89.1445ZM75.8828 17.6387C75.1732 20.1777 74.418 22.3717 73.6172 24.2207L72.123 23.0586C72.9759 21.151 73.6953 19.0254 74.2812 16.6816L75.8828 17.6387ZM109.398 13.7422H107.68V10.5391H101.684V14.3965H100.023V10.5391H94.3594V13.7422H92.6602V9.12305H100.023V8.40039H93.4023V6.87695H108.539V8.40039H101.684V9.12305H109.398V13.7422ZM107.123 11.916C105.769 12.1439 104.288 12.2904 102.68 12.3555L102.279 11.2617C103.51 11.2422 104.916 11.1152 106.498 10.8809L107.123 11.916ZM99.418 11.2812L99.0957 12.4238C97.7546 12.2415 96.3971 12.1406 95.0234 12.1211L95.3848 10.998C96.485 10.9785 97.8294 11.0729 99.418 11.2812ZM99.5156 13.8789C98.2721 14.1068 96.8203 14.2533 95.1602 14.3184L94.8184 13.1562C96.1335 13.1432 97.582 13.026 99.1641 12.8047L99.5156 13.8789ZM106.996 13.3027L106.723 14.4355C105.134 14.1751 103.653 14.0156 102.279 13.957L102.68 12.8242C103.865 12.8503 105.303 13.0098 106.996 13.3027ZM109.76 21.7793C109.649 22.4303 109.47 22.9251 109.223 23.2637C108.975 23.6087 108.705 23.8138 108.412 23.8789C108.119 23.9505 106.918 23.9863 104.809 23.9863C103.057 23.9863 101.931 23.957 101.43 23.8984C100.935 23.8398 100.57 23.6673 100.336 23.3809C100.102 23.1009 99.9844 22.7005 99.9844 22.1797V21.0566H93.5586V14.9434H108.041V21.0566H101.703V21.6621C101.703 21.9355 101.804 22.1113 102.006 22.1895C102.214 22.2611 103.38 22.2969 105.502 22.2969C106.413 22.2969 106.98 22.2904 107.201 22.2773C107.429 22.2643 107.595 22.1797 107.699 22.0234C107.803 21.8672 107.855 21.6589 107.855 21.3984L109.76 21.7793ZM106.361 17.2969V16.2227H101.703V17.2969H106.361ZM99.9844 17.2969V16.2227H95.2773V17.2969H99.9844ZM106.361 19.7188V18.5762H101.703V19.7188H106.361ZM99.9844 19.7188V18.5762H95.2773V19.7188H99.9844ZM129.799 16.0566H122.064V22.2188C122.064 22.6354 121.938 22.9902 121.684 23.2832C121.436 23.5827 121.16 23.7715 120.854 23.8496C120.548 23.9342 119.916 23.9766 118.959 23.9766C118.471 23.9766 117.986 23.9635 117.504 23.9375L116.977 22.1992C117.764 22.2578 118.376 22.2871 118.812 22.2871C119.418 22.2871 119.802 22.2448 119.965 22.1602C120.134 22.0755 120.219 21.903 120.219 21.6426V16.0566H112.436V14.3184H120.219V11.877C121.723 11.0566 123.236 10.0052 124.76 8.72266H114.721V6.96484H127.621V8.72266C126.085 10.1484 124.232 11.5482 122.064 12.9219V14.3184H129.799V16.0566ZM149.398 13.7422H147.68V10.5391H141.684V14.3965H140.023V10.5391H134.359V13.7422H132.66V9.12305H140.023V8.40039H133.402V6.87695H148.539V8.40039H141.684V9.12305H149.398V13.7422ZM147.123 11.916C145.769 12.1439 144.288 12.2904 142.68 12.3555L142.279 11.2617C143.51 11.2422 144.916 11.1152 146.498 10.8809L147.123 11.916ZM139.418 11.2812L139.096 12.4238C137.755 12.2415 136.397 12.1406 135.023 12.1211L135.385 10.998C136.485 10.9785 137.829 11.0729 139.418 11.2812ZM139.516 13.8789C138.272 14.1068 136.82 14.2533 135.16 14.3184L134.818 13.1562C136.133 13.1432 137.582 13.026 139.164 12.8047L139.516 13.8789ZM146.996 13.3027L146.723 14.4355C145.134 14.1751 143.653 14.0156 142.279 13.957L142.68 12.8242C143.865 12.8503 145.303 13.0098 146.996 13.3027ZM149.76 21.7793C149.649 22.4303 149.47 22.9251 149.223 23.2637C148.975 23.6087 148.705 23.8138 148.412 23.8789C148.119 23.9505 146.918 23.9863 144.809 23.9863C143.057 23.9863 141.931 23.957 141.43 23.8984C140.935 23.8398 140.57 23.6673 140.336 23.3809C140.102 23.1009 139.984 22.7005 139.984 22.1797V21.0566H133.559V14.9434H148.041V21.0566H141.703V21.6621C141.703 21.9355 141.804 22.1113 142.006 22.1895C142.214 22.2611 143.38 22.2969 145.502 22.2969C146.413 22.2969 146.98 22.2904 147.201 22.2773C147.429 22.2643 147.595 22.1797 147.699 22.0234C147.803 21.8672 147.855 21.6589 147.855 21.3984L149.76 21.7793ZM146.361 17.2969V16.2227H141.703V17.2969H146.361ZM139.984 17.2969V16.2227H135.277V17.2969H139.984ZM146.361 19.7188V18.5762H141.703V19.7188H146.361ZM139.984 19.7188V18.5762H135.277V19.7188H139.984ZM162.641 15.1582L161.381 15.4805C161.335 15.0182 161.273 14.6634 161.195 14.416C160.095 14.6048 159.083 14.7448 158.158 14.8359L157.738 13.4199C158.148 12.9902 158.695 12.2773 159.379 11.2812C158.773 11.3333 158.288 11.3594 157.924 11.3594L157.602 10.0801C158.324 9.09049 158.871 7.90234 159.242 6.51562L160.775 7.00391C160.189 8.36458 159.711 9.29557 159.34 9.79688C159.62 9.81641 159.939 9.79036 160.297 9.71875C160.427 9.50391 160.648 9.06445 160.961 8.40039L162.318 9.12305C161.485 10.7116 160.531 12.1048 159.457 13.3027C159.887 13.2832 160.355 13.2279 160.863 13.1367C160.824 12.8698 160.736 12.5898 160.6 12.2969L161.801 11.877C162.257 13.2376 162.536 14.3314 162.641 15.1582ZM169.965 20.7246C169.607 23.0488 168.878 24.2109 167.777 24.2109C167.009 24.2109 166.13 23.5143 165.141 22.1211C163.513 23.1432 162.198 23.8301 161.195 24.1816L160.219 22.6777C162.035 21.9941 163.396 21.3073 164.301 20.6172C163.923 19.8034 163.611 18.7975 163.363 17.5996H160.502L160.482 18.0781C161.726 18.931 162.566 19.5723 163.002 20.002L161.918 21.3984C161.566 20.9948 161.02 20.5098 160.277 19.9434C159.854 21.7012 159.102 23.14 158.021 24.2598L156.576 23.2832C157.995 21.929 158.731 20.0345 158.783 17.5996H157.084V15.959H163.061C162.781 13.6608 162.595 10.513 162.504 6.51562H164.164C164.203 10.1354 164.389 13.2832 164.721 15.959H165.902C165.863 15.7702 165.756 15.5651 165.58 15.3438L167.436 14.9629C167.579 15.1908 167.761 15.5228 167.982 15.959H169.721V17.5996H165.062C165.154 18.1986 165.339 18.8333 165.619 19.5039C166.127 19.0286 166.592 18.4688 167.016 17.8242L168.539 18.5957C167.882 19.5788 167.175 20.3991 166.42 21.0566C167.019 21.8835 167.416 22.2969 167.611 22.2969C167.976 22.2969 168.227 21.4635 168.363 19.7969L169.965 20.7246ZM157.816 14.9238L156.781 15.9004C156.469 15.1973 156.215 14.6895 156.02 14.377V24.084H154.34V15.2559C153.956 16.7793 153.477 18.0553 152.904 19.084L152.123 16.9844C152.93 15.4349 153.562 13.6413 154.018 11.6035H152.318V9.92383H154.34V6.51562H156.02V9.92383H157.338V11.6035H156.02V11.916C156.859 13.0879 157.458 14.0905 157.816 14.9238ZM169.76 15.0605L168.539 15.4609L168.344 14.3379C167.178 14.5007 166.137 14.6341 165.219 14.7383L164.76 13.3418C165.163 12.9772 165.71 12.3034 166.4 11.3203C165.893 11.3984 165.391 11.4635 164.896 11.5156L164.643 10.0801C165.359 9.09701 165.971 7.91536 166.479 6.53516L167.963 7.08203C167.618 7.92839 167.064 8.9082 166.303 10.0215C166.693 9.99544 167.038 9.94987 167.338 9.88477C167.663 9.33789 167.917 8.88216 168.1 8.51758L169.516 9.06445C168.839 10.3926 167.888 11.7793 166.664 13.2246C166.944 13.2116 167.377 13.1628 167.963 13.0781C167.904 12.8177 167.823 12.5768 167.719 12.3555L168.939 11.9648C169.337 13 169.61 14.0319 169.76 15.0605ZM189.584 9.12305C188.965 10.0085 188.383 10.7539 187.836 11.3594L186.322 10.4609C186.492 10.2656 186.85 9.81966 187.396 9.12305H181.098C180.486 9.82617 179.9 10.4121 179.34 10.8809L177.982 9.71875C179.018 8.97005 180.01 7.83724 180.961 6.32031L182.602 6.87695C182.543 7.10482 182.416 7.33919 182.221 7.58008H189.584V9.12305ZM178.061 8.89844H172.68V7.29688H178.061V8.89844ZM189.936 12.6387L189.096 14.2402C188.581 14.1361 188.002 13.9701 187.357 13.7422V21.2617H178.92L179.779 22.2578C177.898 23.1237 175.678 23.765 173.119 24.1816L172.26 22.5801C174.161 22.3522 175.98 21.9128 177.719 21.2617H174.779V13.7031H178.559L177.797 12.5996C180.134 12.0072 181.876 10.9688 183.021 9.48438L184.838 9.88477C184.643 10.2428 184.496 10.4674 184.398 10.5586C185.818 11.4766 187.663 12.1699 189.936 12.6387ZM187.162 13.7031C185.821 13.2669 184.519 12.6257 183.256 11.7793C182.423 12.5345 181.339 13.1758 180.004 13.7031H187.162ZM185.561 15.8223V15.1191H176.645V15.8223H185.561ZM185.561 17.8633V17.1211H176.645V17.8633H185.561ZM185.561 19.9434V19.1621H176.645V19.9434H185.561ZM178.236 12.082H172.416V10.4414H178.236V12.082ZM189.818 22.7168L188.861 24.2598C187.117 23.6999 185.163 23.293 183.002 23.0391L183.92 21.5352C186.029 21.7174 187.995 22.1113 189.818 22.7168ZM198.842 9.85547H192.357V8.24414H194.916C194.812 7.93815 194.6 7.52474 194.281 7.00391L196.039 6.33984C196.391 6.9974 196.684 7.63216 196.918 8.24414H198.842V9.85547ZM210.004 19.3379C209.913 20.373 209.73 21.3236 209.457 22.1895C209.19 23.0488 208.93 23.5859 208.676 23.8008C208.428 24.0156 208.142 24.123 207.816 24.123C207.419 24.123 207.074 23.9701 206.781 23.6641C206.495 23.3646 206.218 22.4727 205.951 20.9883C205.691 19.5039 205.561 18.1693 205.561 16.9844V8.64453H202.855V14.0352H205.004V15.7637H202.855V24.0352H201.137V15.7637H199.281V14.0352H201.137V8.64453H199.516V6.96484H207.279V17.3848C207.279 18.9342 207.494 20.4316 207.924 21.877C208.171 20.9655 208.331 19.7936 208.402 18.3613L210.004 19.3379ZM198.402 12.8242H192.836V11.2227H198.402V12.8242ZM198.402 15.7441H192.836V14.1621H198.402V15.7441ZM198.422 23.5371H196.664V22.6387H194.564V24.0156H192.836V17.082H198.422V23.5371ZM196.664 20.998V18.7422H194.564V20.998H196.664ZM229.242 9.41602H226.264C225.723 9.97591 225.141 10.4577 224.516 10.8613C226.078 11.1999 227.507 11.5872 228.803 12.0234L228.139 13.2441C226.465 12.6908 224.685 12.2285 222.797 11.8574C220.297 12.8014 217.745 13.2344 215.141 13.1562L214.623 11.7988C216.309 11.8184 217.969 11.6654 219.604 11.3398C218.438 11.1185 217.13 10.9525 215.678 10.8418L216.479 9.66016C218.354 9.83594 220.349 10.1159 222.465 10.5C223.077 10.1484 223.594 9.78711 224.018 9.41602H212.836V7.80469H220.258C220.082 7.47917 219.89 7.14388 219.682 6.79883L221.498 6.41797C221.771 6.85417 222.032 7.31641 222.279 7.80469H229.242V9.41602ZM229.74 15.0996H215.463V18.3809C215.463 20.8483 214.848 22.7624 213.617 24.123L212.201 22.8633C212.624 22.4661 212.986 21.8639 213.285 21.0566C213.591 20.2493 213.744 18.9635 213.744 17.1992V13.5176H229.74V15.0996ZM229.779 23.6152H215.424V22.1406H221.82V20.8223H217.777V19.377H221.82V18.2246H218.305C217.79 18.9928 217.25 19.6178 216.684 20.0996L215.58 18.7031C216.524 17.9349 217.263 16.8737 217.797 15.5195L219.457 16.0176C219.372 16.3236 219.275 16.5645 219.164 16.7402H221.82V15.5391H223.637V16.7402H228.881V18.2246H223.637V19.377H228.422V20.8223H223.637V22.1406H229.779V23.6152ZM248.236 7.48242C247.865 8.02279 247.292 8.64128 246.518 9.33789L244.936 8.40039C245.548 7.9056 246.13 7.31966 246.684 6.64258L248.236 7.48242ZM249.799 19.2207H241.957V24.0156H240.18V19.2207H232.357V17.7168H240.18V16.7012H233.305V15.1973H240.18V14.2207H232.797V12.7168H237.357C237.143 12.3978 236.911 12.1113 236.664 11.8574L238.002 11.1152H232.318V9.62109H238.441V6.64258H240.18V9.62109H241.977V6.64258H243.725V9.62109H249.76V11.1152H244.242L245.424 11.7402C245.163 12.1764 244.942 12.502 244.76 12.7168H249.359V14.2207H241.957V15.1973H248.881V16.7012H241.957V17.7168H249.799V19.2207ZM243.637 11.1152H238.383C238.767 11.584 239.138 12.1178 239.496 12.7168H242.523C242.953 12.209 243.324 11.6751 243.637 11.1152ZM236.996 8.51758L235.658 9.48438C235.079 8.79427 234.486 8.20508 233.881 7.7168L235.219 6.68164C235.928 7.2806 236.521 7.89258 236.996 8.51758ZM250.16 22.4238L249.184 23.8594C247.263 22.7461 245.355 21.8411 243.461 21.1445L244.496 19.6992C246.306 20.3893 248.194 21.2975 250.16 22.4238ZM238.725 20.9004C236.889 22.222 235.16 23.2279 233.539 23.918L232.377 22.5215C233.952 21.916 235.606 20.9883 237.338 19.7383L238.725 20.9004ZM269.779 23.3223H252.318V21.5156H260.121V9.10352H253.178V7.23828H268.979V9.10352H262.035V21.5156H269.779V23.3223ZM290.082 10.041L289.379 11.623C287.745 11.2194 286.091 10.6725 284.418 9.98242V10.7246H277.885V9.94336C276.342 10.627 274.708 11.1999 272.982 11.6621L272.104 10.2168C276.042 9.20117 278.949 7.90234 280.824 6.32031L282.777 6.79883C282.641 6.9681 282.52 7.09505 282.416 7.17969C284.271 8.35156 286.827 9.30534 290.082 10.041ZM283.021 9.33789C281.947 8.73893 281.293 8.36784 281.059 8.22461C280.512 8.63477 279.887 9.00586 279.184 9.33789H283.021ZM288.256 16.7012H273.979V11.5352H288.256V16.7012ZM286.498 15.3047V12.9609H281.977V15.3047H286.498ZM285.736 13.8984C285.294 14.2695 284.734 14.6569 284.057 15.0605L282.816 14.2207C283.598 13.7259 284.145 13.3646 284.457 13.1367L285.736 13.8984ZM280.219 15.3047V12.9609H275.717V15.3047H280.219ZM279.34 14.3184L278.08 15.1191C277.598 14.7155 277.045 14.3216 276.42 13.9375L277.66 13.0977C278.07 13.3255 278.63 13.7324 279.34 14.3184ZM287.396 23.9766H285.639V23.2637H276.684V23.9766H274.857V17.5801H287.396V23.9766ZM285.639 19.7578V18.9375H276.684V19.7578H285.639ZM285.639 21.877V20.998H276.684V21.877H285.639Z" fill="white"/>
<path d="M51.7905 28.2388H50.2627V33H49.6782V28.2388H48.1538V27.7056H51.7905V28.2388ZM52.6382 29.4897C53.0096 29.2505 53.4346 29.1309 53.9131 29.1309C54.7904 29.1309 55.229 29.5968 55.229 30.5288V33H54.6582V32.4053H54.6377C54.3757 32.861 53.9883 33.0889 53.4756 33.0889C53.1019 33.0889 52.8068 32.9897 52.5903 32.7915C52.3761 32.591 52.269 32.3267 52.269 31.9985C52.269 31.299 52.6838 30.89 53.5132 30.7715L54.6548 30.6074C54.6548 29.9512 54.3927 29.623 53.8687 29.623C53.4106 29.623 53.0005 29.7791 52.6382 30.0913V29.4897ZM53.7285 31.2056C53.4049 31.2489 53.1794 31.3275 53.0518 31.4414C52.9264 31.5531 52.8638 31.7262 52.8638 31.9609C52.8638 32.1501 52.931 32.3039 53.0654 32.4224C53.2021 32.5409 53.3799 32.6001 53.5986 32.6001C53.9017 32.6001 54.1535 32.4919 54.354 32.2754C54.5545 32.0589 54.6548 31.7889 54.6548 31.4653V31.0825L53.7285 31.2056ZM56.3091 27.8594C56.3091 27.7523 56.3444 27.6623 56.415 27.5894C56.488 27.5142 56.5757 27.4766 56.6782 27.4766C56.7853 27.4766 56.8753 27.5142 56.9482 27.5894C57.0234 27.6646 57.061 27.7546 57.061 27.8594C57.061 27.9596 57.0234 28.0474 56.9482 28.1226C56.8753 28.1978 56.7853 28.2354 56.6782 28.2354C56.5711 28.2354 56.4823 28.1989 56.4116 28.126C56.3433 28.0531 56.3091 27.9642 56.3091 27.8594ZM56.3877 33V29.2197H56.9551V33H56.3877ZM62.9194 29.2197L61.7847 33H61.1934L60.4004 30.2622C60.3708 30.1597 60.3514 30.0457 60.3423 29.9204H60.3286C60.3263 29.9842 60.3001 30.0959 60.25 30.2554L59.3921 33H58.8247L57.6763 29.2197H58.2744L59.0742 32.0874C59.0993 32.1785 59.1164 32.2902 59.1255 32.4224H59.1528C59.1619 32.3175 59.1847 32.2036 59.2212 32.0806L60.1064 29.2197H60.626L61.4224 32.0942C61.4429 32.1717 61.4611 32.2834 61.4771 32.4292H61.5078C61.5101 32.3358 61.5306 32.2241 61.5693 32.0942L62.3555 29.2197H62.9194ZM63.7192 29.4897C64.0907 29.2505 64.5156 29.1309 64.9941 29.1309C65.8714 29.1309 66.3101 29.5968 66.3101 30.5288V33H65.7393V32.4053H65.7188C65.4567 32.861 65.0693 33.0889 64.5566 33.0889C64.1829 33.0889 63.8879 32.9897 63.6714 32.7915C63.4572 32.591 63.3501 32.3267 63.3501 31.9985C63.3501 31.299 63.7648 30.89 64.5942 30.7715L65.7358 30.6074C65.7358 29.9512 65.4738 29.623 64.9497 29.623C64.4917 29.623 64.0815 29.7791 63.7192 30.0913V29.4897ZM64.8096 31.2056C64.486 31.2489 64.2604 31.3275 64.1328 31.4414C64.0075 31.5531 63.9448 31.7262 63.9448 31.9609C63.9448 32.1501 64.012 32.3039 64.1465 32.4224C64.2832 32.5409 64.4609 32.6001 64.6797 32.6001C64.9827 32.6001 65.2345 32.4919 65.4351 32.2754C65.6356 32.0589 65.7358 31.7889 65.7358 31.4653V31.0825L64.8096 31.2056ZM70.5723 33H70.0015V30.8398C70.0015 30.0241 69.703 29.6162 69.106 29.6162C68.7938 29.6162 68.5374 29.7336 68.3369 29.9683C68.1364 30.2007 68.0361 30.4924 68.0361 30.8433V33H67.4653V29.2197H68.0361V29.8521H68.0532C68.3358 29.3713 68.7493 29.1309 69.2939 29.1309C69.7087 29.1309 70.0254 29.2642 70.2441 29.5308C70.4629 29.7974 70.5723 30.1836 70.5723 30.6895V33ZM74.6602 28.2148H74.1372V32.4907H74.6602V33H73.0332V32.4907H73.5562V28.2148H73.0332V27.7056H74.6602V28.2148ZM78.5703 33H77.9995V30.8398C77.9995 30.0241 77.701 29.6162 77.104 29.6162C76.7918 29.6162 76.5355 29.7336 76.335 29.9683C76.1344 30.2007 76.0342 30.4924 76.0342 30.8433V33H75.4634V29.2197H76.0342V29.8521H76.0513C76.3338 29.3713 76.7474 29.1309 77.292 29.1309C77.7067 29.1309 78.0234 29.2642 78.2422 29.5308C78.4609 29.7974 78.5703 30.1836 78.5703 30.6895V33ZM82.918 33H82.3506V32.3506H82.3369C82.0566 32.8428 81.6214 33.0889 81.0312 33.0889C80.5527 33.0889 80.1722 32.9191 79.8896 32.5796C79.6071 32.2378 79.4658 31.7775 79.4658 31.1987C79.4658 30.5789 79.6242 30.0799 79.9409 29.7017C80.2576 29.3211 80.6758 29.1309 81.1953 29.1309C81.7148 29.1309 82.0954 29.3371 82.3369 29.7495H82.3506V27.4048H82.918V33ZM82.3506 30.7236C82.3506 30.4137 82.2446 30.1517 82.0327 29.9375C81.8231 29.7233 81.5656 29.6162 81.2603 29.6162C80.882 29.6162 80.5846 29.7563 80.3682 30.0366C80.154 30.3146 80.0469 30.6917 80.0469 31.168C80.0469 31.6032 80.1494 31.9518 80.3545 32.2139C80.5618 32.4736 80.8398 32.6035 81.1885 32.6035C81.5234 32.6035 81.8003 32.4816 82.019 32.2378C82.2401 31.9917 82.3506 31.6784 82.3506 31.2979V30.7236ZM87.1836 33H86.6128V32.4019H86.5991C86.3507 32.8599 85.9622 33.0889 85.4336 33.0889C84.5312 33.0889 84.0801 32.5522 84.0801 31.479V29.2197H84.644V31.3833C84.644 32.1968 84.9539 32.6035 85.5737 32.6035C85.8791 32.6035 86.1286 32.4907 86.3223 32.2651C86.516 32.0396 86.6128 31.7502 86.6128 31.397V29.2197H87.1836V33ZM88.1816 32.231C88.512 32.4748 88.8743 32.5967 89.2686 32.5967C89.8063 32.5967 90.0752 32.4155 90.0752 32.0532C90.0752 31.8937 90.016 31.7638 89.8975 31.6636C89.7812 31.5633 89.5511 31.4482 89.207 31.3184C88.7969 31.1566 88.5246 30.9937 88.3901 30.8296C88.2557 30.6655 88.1885 30.4616 88.1885 30.2178C88.1885 29.8942 88.3263 29.6322 88.6021 29.4316C88.88 29.2311 89.2207 29.1309 89.624 29.1309C89.9476 29.1309 90.237 29.1878 90.4922 29.3018V29.8965C90.2142 29.7142 89.894 29.623 89.5317 29.623C89.3084 29.623 89.1261 29.6732 88.9849 29.7734C88.8459 29.8737 88.7764 30.0059 88.7764 30.1699C88.7764 30.334 88.8242 30.4593 88.9199 30.5459C89.0179 30.6325 89.2367 30.7453 89.5762 30.8843C90.0068 31.0483 90.2951 31.2147 90.4409 31.3833C90.589 31.5496 90.6631 31.7547 90.6631 31.9985C90.6631 32.3358 90.5241 32.6024 90.2461 32.7983C89.9704 32.992 89.616 33.0889 89.1831 33.0889C88.7935 33.0889 88.4596 33.0125 88.1816 32.8599V32.231ZM93.3291 32.9624C93.1901 33.0422 93.0067 33.082 92.7788 33.082C92.1294 33.082 91.8047 32.7163 91.8047 31.9849V29.7119H91.1484V29.2197H91.8047V28.29L92.3721 28.1055V29.2197H93.3291V29.7119H92.3721V31.8823C92.3721 32.1398 92.4154 32.3232 92.502 32.4326C92.5885 32.542 92.7332 32.5967 92.936 32.5967C93.0933 32.5967 93.2243 32.5545 93.3291 32.4702V32.9624ZM96.0942 29.8042C95.9894 29.7244 95.8379 29.6846 95.6396 29.6846C95.373 29.6846 95.1532 29.8122 94.98 30.0674C94.8091 30.3203 94.7236 30.653 94.7236 31.0654V33H94.1528V29.2197H94.7236V30.0024H94.7407C94.8273 29.7336 94.9595 29.5251 95.1372 29.377C95.3149 29.2288 95.5109 29.1548 95.7251 29.1548C95.8869 29.1548 96.0099 29.1719 96.0942 29.2061V29.8042ZM96.6821 27.8594C96.6821 27.7523 96.7174 27.6623 96.7881 27.5894C96.861 27.5142 96.9487 27.4766 97.0513 27.4766C97.1584 27.4766 97.2484 27.5142 97.3213 27.5894C97.3965 27.6646 97.4341 27.7546 97.4341 27.8594C97.4341 27.9596 97.3965 28.0474 97.3213 28.1226C97.2484 28.1978 97.1584 28.2354 97.0513 28.2354C96.9442 28.2354 96.8553 28.1989 96.7847 28.126C96.7163 28.0531 96.6821 27.9642 96.6821 27.8594ZM96.7607 33V29.2197H97.3281V33H96.7607ZM98.6646 29.4897C99.036 29.2505 99.4609 29.1309 99.9395 29.1309C100.817 29.1309 101.255 29.5968 101.255 30.5288V33H100.685V32.4053H100.664C100.402 32.861 100.015 33.0889 99.502 33.0889C99.1283 33.0889 98.8332 32.9897 98.6167 32.7915C98.4025 32.591 98.2954 32.3267 98.2954 31.9985C98.2954 31.299 98.7101 30.89 99.5396 30.7715L100.681 30.6074C100.681 29.9512 100.419 29.623 99.895 29.623C99.437 29.623 99.0269 29.7791 98.6646 30.0913V29.4897ZM99.7549 31.2056C99.4313 31.2489 99.2057 31.3275 99.0781 31.4414C98.9528 31.5531 98.8901 31.7262 98.8901 31.9609C98.8901 32.1501 98.9574 32.3039 99.0918 32.4224C99.2285 32.5409 99.4062 32.6001 99.625 32.6001C99.9281 32.6001 100.18 32.4919 100.38 32.2754C100.581 32.0589 100.681 31.7889 100.681 31.4653V31.0825L99.7549 31.2056ZM102.414 33V27.4048H102.981V33H102.414ZM109.903 30.8706C109.903 32.3494 109.236 33.0889 107.903 33.0889C106.632 33.0889 105.996 32.3768 105.996 30.9526V27.7056H106.577V30.9116C106.577 32.0122 107.043 32.5625 107.975 32.5625C108.873 32.5625 109.322 32.0316 109.322 30.9697V27.7056H109.903V30.8706ZM114.268 33H113.697V30.8398C113.697 30.0241 113.398 29.6162 112.801 29.6162C112.489 29.6162 112.233 29.7336 112.032 29.9683C111.832 30.2007 111.731 30.4924 111.731 30.8433V33H111.161V29.2197H111.731V29.8521H111.749C112.031 29.3713 112.445 29.1309 112.989 29.1309C113.404 29.1309 113.721 29.2642 113.939 29.5308C114.158 29.7974 114.268 30.1836 114.268 30.6895V33ZM115.344 27.8594C115.344 27.7523 115.38 27.6623 115.45 27.5894C115.523 27.5142 115.611 27.4766 115.713 27.4766C115.82 27.4766 115.91 27.5142 115.983 27.5894C116.059 27.6646 116.096 27.7546 116.096 27.8594C116.096 27.9596 116.059 28.0474 115.983 28.1226C115.91 28.1978 115.82 28.2354 115.713 28.2354C115.606 28.2354 115.517 28.1989 115.447 28.126C115.378 28.0531 115.344 27.9642 115.344 27.8594ZM115.423 33V29.2197H115.99V33H115.423ZM116.981 31.1577C116.981 30.5288 117.152 30.0343 117.494 29.6743C117.838 29.312 118.305 29.1309 118.896 29.1309C119.451 29.1309 119.887 29.3052 120.201 29.6538C120.518 30.0024 120.676 30.4844 120.676 31.0996C120.676 31.6966 120.505 32.1774 120.164 32.542C119.822 32.9066 119.369 33.0889 118.807 33.0889C118.262 33.0889 117.821 32.9134 117.484 32.5625C117.149 32.2116 116.981 31.7433 116.981 31.1577ZM117.562 31.1338C117.562 31.5804 117.679 31.937 117.911 32.2036C118.146 32.4702 118.458 32.6035 118.848 32.6035C119.244 32.6035 119.551 32.4736 119.767 32.2139C119.986 31.9541 120.095 31.5895 120.095 31.1201C120.095 30.6393 119.987 30.269 119.771 30.0093C119.556 29.7472 119.249 29.6162 118.848 29.6162C118.456 29.6162 118.144 29.7518 117.911 30.0229C117.679 30.2918 117.562 30.6621 117.562 31.1338ZM124.761 33H124.19V30.8398C124.19 30.0241 123.891 29.6162 123.294 29.6162C122.982 29.6162 122.726 29.7336 122.525 29.9683C122.325 30.2007 122.225 30.4924 122.225 30.8433V33H121.654V29.2197H122.225V29.8521H122.242C122.524 29.3713 122.938 29.1309 123.482 29.1309C123.897 29.1309 124.214 29.2642 124.433 29.5308C124.651 29.7974 124.761 30.1836 124.761 30.6895V33ZM127.406 31.1577C127.406 30.5288 127.577 30.0343 127.919 29.6743C128.263 29.312 128.73 29.1309 129.32 29.1309C129.876 29.1309 130.312 29.3052 130.626 29.6538C130.943 30.0024 131.101 30.4844 131.101 31.0996C131.101 31.6966 130.93 32.1774 130.588 32.542C130.247 32.9066 129.794 33.0889 129.231 33.0889C128.687 33.0889 128.246 32.9134 127.909 32.5625C127.574 32.2116 127.406 31.7433 127.406 31.1577ZM127.987 31.1338C127.987 31.5804 128.104 31.937 128.336 32.2036C128.571 32.4702 128.883 32.6035 129.272 32.6035C129.669 32.6035 129.975 32.4736 130.192 32.2139C130.411 31.9541 130.52 31.5895 130.52 31.1201C130.52 30.6393 130.412 30.269 130.195 30.0093C129.981 29.7472 129.674 29.6162 129.272 29.6162C128.881 29.6162 128.568 29.7518 128.336 30.0229C128.104 30.2918 127.987 30.6621 127.987 31.1338ZM133.911 27.9106C133.79 27.8446 133.655 27.8115 133.507 27.8115C133.081 27.8115 132.868 28.0827 132.868 28.625V29.2197H133.753V29.7119H132.868V33H132.304V29.7119H131.658V29.2197H132.304V28.5977C132.304 28.1989 132.417 27.8867 132.643 27.6611C132.87 27.4355 133.15 27.3228 133.48 27.3228C133.665 27.3228 133.808 27.3444 133.911 27.3877V27.9106ZM139.024 33H136.242V27.7056H138.904V28.2388H136.823V30.04H138.747V30.5732H136.823V32.4668H139.024V33ZM139.978 33V27.4048H140.545V33H139.978ZM144.807 31.25H142.127C142.139 31.6852 142.254 32.019 142.473 32.2515C142.691 32.4839 142.991 32.6001 143.372 32.6001C143.798 32.6001 144.191 32.4577 144.551 32.1729V32.7197C144.22 32.9658 143.783 33.0889 143.238 33.0889C142.712 33.0889 142.296 32.9168 141.991 32.5728C141.688 32.2287 141.536 31.7445 141.536 31.1201C141.536 30.5459 141.7 30.0708 142.028 29.6948C142.359 29.3188 142.771 29.1309 143.266 29.1309C143.751 29.1309 144.129 29.2904 144.4 29.6094C144.672 29.9284 144.807 30.3727 144.807 30.9424V31.25ZM144.219 30.7476C144.217 30.3921 144.132 30.1164 143.963 29.9204C143.794 29.7222 143.558 29.623 143.255 29.623C142.98 29.623 142.737 29.7222 142.527 29.9204C142.32 30.1187 142.189 30.3944 142.134 30.7476H144.219ZM148.297 32.8223C148.003 33 147.661 33.0889 147.271 33.0889C146.736 33.0889 146.303 32.9146 145.973 32.5659C145.645 32.215 145.48 31.7593 145.48 31.1987C145.48 30.5721 145.658 30.0708 146.014 29.6948C146.369 29.3188 146.842 29.1309 147.432 29.1309C147.758 29.1309 148.049 29.1924 148.304 29.3154V29.9136C148.021 29.7153 147.719 29.6162 147.398 29.6162C147.011 29.6162 146.69 29.7563 146.438 30.0366C146.187 30.3146 146.062 30.6849 146.062 31.1475C146.062 31.5986 146.179 31.9541 146.414 32.2139C146.648 32.4736 146.964 32.6035 147.36 32.6035C147.695 32.6035 148.007 32.493 148.297 32.272V32.8223ZM150.942 32.9624C150.803 33.0422 150.62 33.082 150.392 33.082C149.743 33.082 149.418 32.7163 149.418 31.9849V29.7119H148.762V29.2197H149.418V28.29L149.985 28.1055V29.2197H150.942V29.7119H149.985V31.8823C149.985 32.1398 150.029 32.3232 150.115 32.4326C150.202 32.542 150.347 32.5967 150.549 32.5967C150.707 32.5967 150.838 32.5545 150.942 32.4702V32.9624ZM153.708 29.8042C153.603 29.7244 153.451 29.6846 153.253 29.6846C152.986 29.6846 152.766 29.8122 152.593 30.0674C152.422 30.3203 152.337 30.653 152.337 31.0654V33H151.766V29.2197H152.337V30.0024H152.354C152.441 29.7336 152.573 29.5251 152.75 29.377C152.928 29.2288 153.124 29.1548 153.338 29.1548C153.5 29.1548 153.623 29.1719 153.708 29.2061V29.8042ZM154.114 31.1577C154.114 30.5288 154.285 30.0343 154.627 29.6743C154.971 29.312 155.438 29.1309 156.028 29.1309C156.584 29.1309 157.02 29.3052 157.334 29.6538C157.651 30.0024 157.809 30.4844 157.809 31.0996C157.809 31.6966 157.638 32.1774 157.296 32.542C156.955 32.9066 156.502 33.0889 155.939 33.0889C155.395 33.0889 154.954 32.9134 154.617 32.5625C154.282 32.2116 154.114 31.7433 154.114 31.1577ZM154.695 31.1338C154.695 31.5804 154.812 31.937 155.044 32.2036C155.279 32.4702 155.591 32.6035 155.98 32.6035C156.377 32.6035 156.683 32.4736 156.9 32.2139C157.119 31.9541 157.228 31.5895 157.228 31.1201C157.228 30.6393 157.12 30.269 156.903 30.0093C156.689 29.7472 156.382 29.6162 155.98 29.6162C155.589 29.6162 155.276 29.7518 155.044 30.0229C154.812 30.2918 154.695 30.6621 154.695 31.1338ZM161.894 33H161.323V30.8398C161.323 30.0241 161.024 29.6162 160.427 29.6162C160.115 29.6162 159.859 29.7336 159.658 29.9683C159.458 30.2007 159.357 30.4924 159.357 30.8433V33H158.787V29.2197H159.357V29.8521H159.375C159.657 29.3713 160.071 29.1309 160.615 29.1309C161.03 29.1309 161.347 29.2642 161.565 29.5308C161.784 29.7974 161.894 30.1836 161.894 30.6895V33ZM162.97 27.8594C162.97 27.7523 163.006 27.6623 163.076 27.5894C163.149 27.5142 163.237 27.4766 163.339 27.4766C163.446 27.4766 163.536 27.5142 163.609 27.5894C163.685 27.6646 163.722 27.7546 163.722 27.8594C163.722 27.9596 163.685 28.0474 163.609 28.1226C163.536 28.1978 163.446 28.2354 163.339 28.2354C163.232 28.2354 163.143 28.1989 163.073 28.126C163.004 28.0531 162.97 27.9642 162.97 27.8594ZM163.049 33V29.2197H163.616V33H163.049ZM167.424 32.8223C167.13 33 166.788 33.0889 166.398 33.0889C165.863 33.0889 165.43 32.9146 165.1 32.5659C164.771 32.215 164.607 31.7593 164.607 31.1987C164.607 30.5721 164.785 30.0708 165.141 29.6948C165.496 29.3188 165.969 29.1309 166.559 29.1309C166.885 29.1309 167.175 29.1924 167.431 29.3154V29.9136C167.148 29.7153 166.846 29.6162 166.525 29.6162C166.138 29.6162 165.817 29.7563 165.564 30.0366C165.314 30.3146 165.188 30.6849 165.188 31.1475C165.188 31.5986 165.306 31.9541 165.541 32.2139C165.775 32.4736 166.091 32.6035 166.487 32.6035C166.822 32.6035 167.134 32.493 167.424 32.272V32.8223ZM168.114 32.231C168.445 32.4748 168.807 32.5967 169.201 32.5967C169.739 32.5967 170.008 32.4155 170.008 32.0532C170.008 31.8937 169.949 31.7638 169.83 31.6636C169.714 31.5633 169.484 31.4482 169.14 31.3184C168.729 31.1566 168.457 30.9937 168.323 30.8296C168.188 30.6655 168.121 30.4616 168.121 30.2178C168.121 29.8942 168.259 29.6322 168.535 29.4316C168.813 29.2311 169.153 29.1309 169.557 29.1309C169.88 29.1309 170.17 29.1878 170.425 29.3018V29.8965C170.147 29.7142 169.827 29.623 169.464 29.623C169.241 29.623 169.059 29.6732 168.917 29.7734C168.778 29.8737 168.709 30.0059 168.709 30.1699C168.709 30.334 168.757 30.4593 168.853 30.5459C168.951 30.6325 169.169 30.7453 169.509 30.8843C169.939 31.0483 170.228 31.2147 170.374 31.3833C170.522 31.5496 170.596 31.7547 170.596 31.9985C170.596 32.3358 170.457 32.6024 170.179 32.7983C169.903 32.992 169.549 33.0889 169.116 33.0889C168.726 33.0889 168.392 33.0125 168.114 32.8599V32.231ZM172.062 32.166L171.467 33.9775H171.067L171.501 32.166H172.062ZM177.77 33H174.988V27.7056H177.65V28.2388H175.569V30.04H177.493V30.5732H175.569V32.4668H177.77V33ZM178.724 33V27.4048H179.291V33H178.724ZM183.553 31.25H180.874C180.885 31.6852 181 32.019 181.219 32.2515C181.438 32.4839 181.737 32.6001 182.118 32.6001C182.544 32.6001 182.937 32.4577 183.297 32.1729V32.7197C182.966 32.9658 182.529 33.0889 181.984 33.0889C181.458 33.0889 181.042 32.9168 180.737 32.5728C180.434 32.2287 180.282 31.7445 180.282 31.1201C180.282 30.5459 180.446 30.0708 180.774 29.6948C181.105 29.3188 181.517 29.1309 182.012 29.1309C182.497 29.1309 182.875 29.2904 183.146 29.6094C183.418 29.9284 183.553 30.3727 183.553 30.9424V31.25ZM182.965 30.7476C182.963 30.3921 182.878 30.1164 182.709 29.9204C182.54 29.7222 182.305 29.623 182.001 29.623C181.726 29.623 181.483 29.7222 181.273 29.9204C181.066 30.1187 180.935 30.3944 180.88 30.7476H182.965ZM187.043 32.8223C186.749 33 186.407 33.0889 186.018 33.0889C185.482 33.0889 185.049 32.9146 184.719 32.5659C184.391 32.215 184.227 31.7593 184.227 31.1987C184.227 30.5721 184.404 30.0708 184.76 29.6948C185.115 29.3188 185.588 29.1309 186.178 29.1309C186.504 29.1309 186.795 29.1924 187.05 29.3154V29.9136C186.767 29.7153 186.465 29.6162 186.144 29.6162C185.757 29.6162 185.437 29.7563 185.184 30.0366C184.933 30.3146 184.808 30.6849 184.808 31.1475C184.808 31.5986 184.925 31.9541 185.16 32.2139C185.394 32.4736 185.71 32.6035 186.106 32.6035C186.441 32.6035 186.754 32.493 187.043 32.272V32.8223ZM189.688 32.9624C189.549 33.0422 189.366 33.082 189.138 33.082C188.489 33.082 188.164 32.7163 188.164 31.9849V29.7119H187.508V29.2197H188.164V28.29L188.731 28.1055V29.2197H189.688V29.7119H188.731V31.8823C188.731 32.1398 188.775 32.3232 188.861 32.4326C188.948 32.542 189.093 32.5967 189.295 32.5967C189.453 32.5967 189.584 32.5545 189.688 32.4702V32.9624ZM192.454 29.8042C192.349 29.7244 192.197 29.6846 191.999 29.6846C191.732 29.6846 191.513 29.8122 191.339 30.0674C191.168 30.3203 191.083 30.653 191.083 31.0654V33H190.512V29.2197H191.083V30.0024H191.1C191.187 29.7336 191.319 29.5251 191.497 29.377C191.674 29.2288 191.87 29.1548 192.084 29.1548C192.246 29.1548 192.369 29.1719 192.454 29.2061V29.8042ZM193.042 27.8594C193.042 27.7523 193.077 27.6623 193.147 27.5894C193.22 27.5142 193.308 27.4766 193.411 27.4766C193.518 27.4766 193.608 27.5142 193.681 27.5894C193.756 27.6646 193.793 27.7546 193.793 27.8594C193.793 27.9596 193.756 28.0474 193.681 28.1226C193.608 28.1978 193.518 28.2354 193.411 28.2354C193.304 28.2354 193.215 28.1989 193.144 28.126C193.076 28.0531 193.042 27.9642 193.042 27.8594ZM193.12 33V29.2197H193.688V33H193.12ZM197.495 32.8223C197.201 33 196.859 33.0889 196.47 33.0889C195.934 33.0889 195.501 32.9146 195.171 32.5659C194.843 32.215 194.679 31.7593 194.679 31.1987C194.679 30.5721 194.856 30.0708 195.212 29.6948C195.567 29.3188 196.04 29.1309 196.63 29.1309C196.956 29.1309 197.247 29.1924 197.502 29.3154V29.9136C197.219 29.7153 196.917 29.6162 196.596 29.6162C196.209 29.6162 195.889 29.7563 195.636 30.0366C195.385 30.3146 195.26 30.6849 195.26 31.1475C195.26 31.5986 195.377 31.9541 195.612 32.2139C195.847 32.4736 196.162 32.6035 196.559 32.6035C196.894 32.6035 197.206 32.493 197.495 32.272V32.8223ZM200.26 29.4897C200.632 29.2505 201.057 29.1309 201.535 29.1309C202.412 29.1309 202.851 29.5968 202.851 30.5288V33H202.28V32.4053H202.26C201.998 32.861 201.61 33.0889 201.098 33.0889C200.724 33.0889 200.429 32.9897 200.212 32.7915C199.998 32.591 199.891 32.3267 199.891 31.9985C199.891 31.299 200.306 30.89 201.135 30.7715L202.277 30.6074C202.277 29.9512 202.015 29.623 201.491 29.623C201.033 29.623 200.623 29.7791 200.26 30.0913V29.4897ZM201.351 31.2056C201.027 31.2489 200.801 31.3275 200.674 31.4414C200.549 31.5531 200.486 31.7262 200.486 31.9609C200.486 32.1501 200.553 32.3039 200.688 32.4224C200.824 32.5409 201.002 32.6001 201.221 32.6001C201.524 32.6001 201.776 32.4919 201.976 32.2754C202.177 32.0589 202.277 31.7889 202.277 31.4653V31.0825L201.351 31.2056ZM207.113 33H206.542V30.8398C206.542 30.0241 206.244 29.6162 205.647 29.6162C205.335 29.6162 205.078 29.7336 204.878 29.9683C204.677 30.2007 204.577 30.4924 204.577 30.8433V33H204.006V29.2197H204.577V29.8521H204.594C204.877 29.3713 205.29 29.1309 205.835 29.1309C206.25 29.1309 206.566 29.2642 206.785 29.5308C207.004 29.7974 207.113 30.1836 207.113 30.6895V33ZM211.461 33H210.894V32.3506H210.88C210.6 32.8428 210.164 33.0889 209.574 33.0889C209.096 33.0889 208.715 32.9191 208.433 32.5796C208.15 32.2378 208.009 31.7775 208.009 31.1987C208.009 30.5789 208.167 30.0799 208.484 29.7017C208.801 29.3211 209.219 29.1309 209.738 29.1309C210.258 29.1309 210.638 29.3371 210.88 29.7495H210.894V27.4048H211.461V33ZM210.894 30.7236C210.894 30.4137 210.788 30.1517 210.576 29.9375C210.366 29.7233 210.109 29.6162 209.803 29.6162C209.425 29.6162 209.128 29.7563 208.911 30.0366C208.697 30.3146 208.59 30.6917 208.59 31.168C208.59 31.6032 208.692 31.9518 208.897 32.2139C209.105 32.4736 209.383 32.6035 209.731 32.6035C210.066 32.6035 210.343 32.4816 210.562 32.2378C210.783 31.9917 210.894 31.6784 210.894 31.2979V30.7236ZM215.638 28.2148H215.115V32.4907H215.638V33H214.011V32.4907H214.534V28.2148H214.011V27.7056H215.638V28.2148ZM219.548 33H218.977V30.8398C218.977 30.0241 218.679 29.6162 218.082 29.6162C217.769 29.6162 217.513 29.7336 217.312 29.9683C217.112 30.2007 217.012 30.4924 217.012 30.8433V33H216.441V29.2197H217.012V29.8521H217.029C217.311 29.3713 217.725 29.1309 218.27 29.1309C218.684 29.1309 219.001 29.2642 219.22 29.5308C219.438 29.7974 219.548 30.1836 219.548 30.6895V33ZM222.532 27.9106C222.411 27.8446 222.277 27.8115 222.128 27.8115C221.702 27.8115 221.489 28.0827 221.489 28.625V29.2197H222.375V29.7119H221.489V33H220.925V29.7119H220.279V29.2197H220.925V28.5977C220.925 28.1989 221.038 27.8867 221.264 27.6611C221.492 27.4355 221.771 27.3228 222.101 27.3228C222.286 27.3228 222.429 27.3444 222.532 27.3877V27.9106ZM222.774 31.1577C222.774 30.5288 222.945 30.0343 223.287 29.6743C223.631 29.312 224.098 29.1309 224.688 29.1309C225.244 29.1309 225.68 29.3052 225.994 29.6538C226.311 30.0024 226.469 30.4844 226.469 31.0996C226.469 31.6966 226.298 32.1774 225.957 32.542C225.615 32.9066 225.162 33.0889 224.6 33.0889C224.055 33.0889 223.614 32.9134 223.277 32.5625C222.942 32.2116 222.774 31.7433 222.774 31.1577ZM223.355 31.1338C223.355 31.5804 223.472 31.937 223.704 32.2036C223.939 32.4702 224.251 32.6035 224.641 32.6035C225.037 32.6035 225.344 32.4736 225.56 32.2139C225.779 31.9541 225.888 31.5895 225.888 31.1201C225.888 30.6393 225.78 30.269 225.563 30.0093C225.349 29.7472 225.042 29.6162 224.641 29.6162C224.249 29.6162 223.937 29.7518 223.704 30.0229C223.472 30.2918 223.355 30.6621 223.355 31.1338ZM229.388 29.8042C229.283 29.7244 229.132 29.6846 228.934 29.6846C228.667 29.6846 228.447 29.8122 228.274 30.0674C228.103 30.3203 228.018 30.653 228.018 31.0654V33H227.447V29.2197H228.018V30.0024H228.035C228.121 29.7336 228.253 29.5251 228.431 29.377C228.609 29.2288 228.805 29.1548 229.019 29.1548C229.181 29.1548 229.304 29.1719 229.388 29.2061V29.8042ZM235.38 33H234.809V30.8296C234.809 30.3898 234.742 30.0776 234.607 29.8931C234.475 29.7085 234.255 29.6162 233.948 29.6162C233.69 29.6162 233.468 29.737 233.281 29.9785C233.094 30.2201 233.001 30.5072 233.001 30.8398V33H232.434V30.751C232.434 29.9945 232.141 29.6162 231.555 29.6162C231.286 29.6162 231.063 29.7313 230.885 29.9614C230.71 30.1916 230.622 30.4844 230.622 30.8398V33H230.051V29.2197H230.622V29.8179H230.639C230.903 29.3599 231.293 29.1309 231.808 29.1309C232.054 29.1309 232.275 29.2038 232.471 29.3496C232.669 29.4932 232.804 29.6834 232.875 29.9204C233.155 29.394 233.574 29.1309 234.132 29.1309C234.964 29.1309 235.38 29.6447 235.38 30.6724V33ZM236.627 29.4897C236.999 29.2505 237.424 29.1309 237.902 29.1309C238.78 29.1309 239.218 29.5968 239.218 30.5288V33H238.647V32.4053H238.627C238.365 32.861 237.978 33.0889 237.465 33.0889C237.091 33.0889 236.796 32.9897 236.58 32.7915C236.365 32.591 236.258 32.3267 236.258 31.9985C236.258 31.299 236.673 30.89 237.502 30.7715L238.644 30.6074C238.644 29.9512 238.382 29.623 237.858 29.623C237.4 29.623 236.99 29.7791 236.627 30.0913V29.4897ZM237.718 31.2056C237.394 31.2489 237.169 31.3275 237.041 31.4414C236.916 31.5531 236.853 31.7262 236.853 31.9609C236.853 32.1501 236.92 32.3039 237.055 32.4224C237.191 32.5409 237.369 32.6001 237.588 32.6001C237.891 32.6001 238.143 32.4919 238.343 32.2754C238.544 32.0589 238.644 31.7889 238.644 31.4653V31.0825L237.718 31.2056ZM242.093 32.9624C241.954 33.0422 241.77 33.082 241.542 33.082C240.893 33.082 240.568 32.7163 240.568 31.9849V29.7119H239.912V29.2197H240.568V28.29L241.136 28.1055V29.2197H242.093V29.7119H241.136V31.8823C241.136 32.1398 241.179 32.3232 241.266 32.4326C241.352 32.542 241.497 32.5967 241.7 32.5967C241.857 32.5967 241.988 32.5545 242.093 32.4702V32.9624ZM242.841 27.8594C242.841 27.7523 242.877 27.6623 242.947 27.5894C243.02 27.5142 243.108 27.4766 243.21 27.4766C243.318 27.4766 243.408 27.5142 243.48 27.5894C243.556 27.6646 243.593 27.7546 243.593 27.8594C243.593 27.9596 243.556 28.0474 243.48 28.1226C243.408 28.1978 243.318 28.2354 243.21 28.2354C243.103 28.2354 243.014 28.1989 242.944 28.126C242.875 28.0531 242.841 27.9642 242.841 27.8594ZM242.92 33V29.2197H243.487V33H242.92ZM244.479 31.1577C244.479 30.5288 244.649 30.0343 244.991 29.6743C245.335 29.312 245.802 29.1309 246.393 29.1309C246.949 29.1309 247.384 29.3052 247.698 29.6538C248.015 30.0024 248.173 30.4844 248.173 31.0996C248.173 31.6966 248.002 32.1774 247.661 32.542C247.319 32.9066 246.867 33.0889 246.304 33.0889C245.759 33.0889 245.318 32.9134 244.981 32.5625C244.646 32.2116 244.479 31.7433 244.479 31.1577ZM245.06 31.1338C245.06 31.5804 245.176 31.937 245.408 32.2036C245.643 32.4702 245.955 32.6035 246.345 32.6035C246.741 32.6035 247.048 32.4736 247.264 32.2139C247.483 31.9541 247.592 31.5895 247.592 31.1201C247.592 30.6393 247.484 30.269 247.268 30.0093C247.053 29.7472 246.746 29.6162 246.345 29.6162C245.953 29.6162 245.641 29.7518 245.408 30.0229C245.176 30.2918 245.06 30.6621 245.06 31.1338ZM252.258 33H251.687V30.8398C251.687 30.0241 251.389 29.6162 250.792 29.6162C250.479 29.6162 250.223 29.7336 250.022 29.9683C249.822 30.2007 249.722 30.4924 249.722 30.8433V33H249.151V29.2197H249.722V29.8521H249.739C250.021 29.3713 250.435 29.1309 250.979 29.1309C251.394 29.1309 251.711 29.2642 251.93 29.5308C252.148 29.7974 252.258 30.1836 252.258 30.6895V33ZM258.332 28.2388H256.804V33H256.219V28.2388H254.695V27.7056H258.332V28.2388ZM262.105 31.25H259.425C259.437 31.6852 259.552 32.019 259.771 32.2515C259.989 32.4839 260.289 32.6001 260.669 32.6001C261.096 32.6001 261.489 32.4577 261.849 32.1729V32.7197C261.518 32.9658 261.081 33.0889 260.536 33.0889C260.01 33.0889 259.594 32.9168 259.289 32.5728C258.986 32.2287 258.834 31.7445 258.834 31.1201C258.834 30.5459 258.998 30.0708 259.326 29.6948C259.657 29.3188 260.069 29.1309 260.563 29.1309C261.049 29.1309 261.427 29.2904 261.698 29.6094C261.969 29.9284 262.105 30.3727 262.105 30.9424V31.25ZM261.517 30.7476C261.515 30.3921 261.429 30.1164 261.261 29.9204C261.092 29.7222 260.856 29.623 260.553 29.623C260.278 29.623 260.035 29.7222 259.825 29.9204C259.618 30.1187 259.487 30.3944 259.432 30.7476H261.517ZM265.595 32.8223C265.301 33 264.959 33.0889 264.569 33.0889C264.034 33.0889 263.601 32.9146 263.271 32.5659C262.942 32.215 262.778 31.7593 262.778 31.1987C262.778 30.5721 262.956 30.0708 263.312 29.6948C263.667 29.3188 264.14 29.1309 264.73 29.1309C265.056 29.1309 265.346 29.1924 265.602 29.3154V29.9136C265.319 29.7153 265.017 29.6162 264.696 29.6162C264.308 29.6162 263.988 29.7563 263.735 30.0366C263.485 30.3146 263.359 30.6849 263.359 31.1475C263.359 31.5986 263.477 31.9541 263.711 32.2139C263.946 32.4736 264.262 32.6035 264.658 32.6035C264.993 32.6035 265.305 32.493 265.595 32.272V32.8223ZM269.628 33H269.061V30.8193C269.061 30.0173 268.761 29.6162 268.162 29.6162C267.859 29.6162 267.604 29.7324 267.399 29.9648C267.194 30.1973 267.092 30.4958 267.092 30.8604V33H266.521V27.4048H267.092V29.8521H267.109C267.398 29.3713 267.813 29.1309 268.353 29.1309C269.203 29.1309 269.628 29.6447 269.628 30.6724V33ZM273.894 33H273.323V30.8398C273.323 30.0241 273.024 29.6162 272.427 29.6162C272.115 29.6162 271.859 29.7336 271.658 29.9683C271.458 30.2007 271.357 30.4924 271.357 30.8433V33H270.787V29.2197H271.357V29.8521H271.375C271.657 29.3713 272.071 29.1309 272.615 29.1309C273.03 29.1309 273.347 29.2642 273.565 29.5308C273.784 29.7974 273.894 30.1836 273.894 30.6895V33ZM274.789 31.1577C274.789 30.5288 274.96 30.0343 275.302 29.6743C275.646 29.312 276.113 29.1309 276.703 29.1309C277.259 29.1309 277.694 29.3052 278.009 29.6538C278.326 30.0024 278.484 30.4844 278.484 31.0996C278.484 31.6966 278.313 32.1774 277.971 32.542C277.629 32.9066 277.177 33.0889 276.614 33.0889C276.07 33.0889 275.629 32.9134 275.292 32.5625C274.957 32.2116 274.789 31.7433 274.789 31.1577ZM275.37 31.1338C275.37 31.5804 275.486 31.937 275.719 32.2036C275.953 32.4702 276.266 32.6035 276.655 32.6035C277.052 32.6035 277.358 32.4736 277.575 32.2139C277.793 31.9541 277.903 31.5895 277.903 31.1201C277.903 30.6393 277.795 30.269 277.578 30.0093C277.364 29.7472 277.056 29.6162 276.655 29.6162C276.263 29.6162 275.951 29.7518 275.719 30.0229C275.486 30.2918 275.37 30.6621 275.37 31.1338ZM279.465 33V27.4048H280.032V33H279.465ZM281.023 31.1577C281.023 30.5288 281.194 30.0343 281.536 29.6743C281.88 29.312 282.347 29.1309 282.938 29.1309C283.493 29.1309 283.929 29.3052 284.243 29.6538C284.56 30.0024 284.718 30.4844 284.718 31.0996C284.718 31.6966 284.547 32.1774 284.206 32.542C283.864 32.9066 283.411 33.0889 282.849 33.0889C282.304 33.0889 281.863 32.9134 281.526 32.5625C281.191 32.2116 281.023 31.7433 281.023 31.1577ZM281.604 31.1338C281.604 31.5804 281.721 31.937 281.953 32.2036C282.188 32.4702 282.5 32.6035 282.89 32.6035C283.286 32.6035 283.593 32.4736 283.809 32.2139C284.028 31.9541 284.137 31.5895 284.137 31.1201C284.137 30.6393 284.029 30.269 283.812 30.0093C283.598 29.7472 283.291 29.6162 282.89 29.6162C282.498 29.6162 282.186 29.7518 281.953 30.0229C281.721 30.2918 281.604 30.6621 281.604 31.1338ZM288.892 32.7026C288.892 34.0881 288.235 34.7808 286.923 34.7808C286.458 34.7808 286.049 34.6908 285.696 34.5107V33.9297C286.122 34.1667 286.53 34.2852 286.919 34.2852C287.856 34.2852 288.324 33.7827 288.324 32.7778V32.3574H288.311C288.014 32.8451 287.579 33.0889 287.005 33.0889C286.531 33.0889 286.152 32.9191 285.867 32.5796C285.582 32.2401 285.439 31.7912 285.439 31.2329C285.439 30.5881 285.596 30.0765 285.908 29.6982C286.22 29.32 286.64 29.1309 287.169 29.1309C287.682 29.1309 288.062 29.3371 288.311 29.7495H288.324V29.2197H288.892V32.7026ZM288.324 30.7236C288.324 30.416 288.218 30.1551 288.006 29.9409C287.794 29.7244 287.539 29.6162 287.241 29.6162C286.862 29.6162 286.564 29.7552 286.345 30.0332C286.129 30.3112 286.021 30.6974 286.021 31.1919C286.021 31.6203 286.125 31.9632 286.335 32.2207C286.545 32.4759 286.817 32.6035 287.152 32.6035C287.491 32.6035 287.772 32.4816 287.993 32.2378C288.214 31.9917 288.324 31.6784 288.324 31.2979V30.7236ZM293.103 29.2197L291.353 33.6255C291.047 34.3957 290.619 34.7808 290.067 34.7808C289.928 34.7808 289.804 34.766 289.695 34.7363V34.2168C289.822 34.2578 289.939 34.2783 290.043 34.2783C290.351 34.2783 290.581 34.0938 290.734 33.7246L291.042 32.9932L289.568 29.2197H290.201L291.243 32.1694C291.257 32.2104 291.283 32.3005 291.322 32.4395H291.342C291.351 32.3916 291.375 32.3039 291.414 32.1763L292.511 29.2197H293.103Z" fill="white"/>
<path d="M20 38.3872C30.1549 38.3872 38.3871 30.155 38.3871 20.0001C38.3871 9.84522 30.1549 1.61304 20 1.61304C9.8451 1.61304 1.61292 9.84522 1.61292 20.0001C1.61292 30.155 9.8451 38.3872 20 38.3872Z" fill="#78AED8"/>
<path d="M20 39C17.4353 39 14.9469 38.4974 12.6041 37.5067C10.3416 36.5496 8.30979 35.1798 6.56485 33.4351C4.81992 31.6905 3.45039 29.6584 2.49334 27.3959C1.50258 25.0531 1 22.5647 1 20C1 17.4353 1.50258 14.9469 2.49334 12.6041C3.45039 10.3416 4.82023 8.30979 6.56485 6.56485C8.30948 4.81992 10.3416 3.45039 12.6041 2.49334C14.9469 1.50258 17.4353 1 20 1C22.5647 1 25.0531 1.50258 27.3959 2.49334C29.6584 3.45039 31.6902 4.82023 33.4351 6.56485C35.1801 8.30948 36.5496 10.3416 37.5067 12.6041C38.4974 14.9469 39 17.4353 39 20C39 22.5647 38.4974 25.0531 37.5067 27.3959C36.5496 29.6584 35.1798 31.6902 33.4351 33.4351C31.6905 35.1801 29.6584 36.5496 27.3959 37.5067C25.0531 38.4974 22.5647 39 20 39ZM20 2.22581C17.6002 2.22581 15.2727 2.6956 13.0815 3.62231C10.9652 4.51745 9.06427 5.79903 7.4315 7.43181C5.79873 9.06458 4.51715 10.9652 3.622 13.0819C2.6956 15.2727 2.22581 17.6002 2.22581 20C2.22581 22.3998 2.6956 24.7273 3.62231 26.9185C4.51745 29.0348 5.79903 30.9357 7.43181 32.5685C9.06458 34.2013 10.9652 35.4829 13.0819 36.378C15.2727 37.3044 17.6002 37.7742 20 37.7742C22.3998 37.7742 24.7273 37.3044 26.9185 36.3777C29.0348 35.4826 30.9357 34.201 32.5685 32.5682C34.2013 30.9354 35.4829 29.0348 36.378 26.9181C37.3044 24.7273 37.7742 22.3998 37.7742 20C37.7742 17.6002 37.3044 15.2727 36.3777 13.0815C35.4826 10.9652 34.201 9.06427 32.5682 7.4315C30.9354 5.79873 29.0348 4.51715 26.9181 3.622C24.7273 2.6956 22.3998 2.22581 20 2.22581Z" fill="white"/>
<path d="M25.4132 3.41821H22.1075V6.72391H25.4132V3.41821Z" fill="#4C769B"/>
<path d="M25.4132 7.1394H22.1075V10.4451H25.4132V7.1394Z" fill="#4C769B"/>
<path d="M25.4132 10.8606H22.1075V14.1663H25.4132V10.8606Z" fill="#4C769B"/>
<path d="M25.4132 14.582H22.1075V17.8877H25.4132V14.582Z" fill="#4C769B"/>
<path d="M25.4132 18.3032H22.1075V21.6089H25.4132V18.3032Z" fill="#4C769B"/>
<path d="M25.4132 22.0242H22.1075V25.3299H25.4132V22.0242Z" fill="#4C769B"/>
<path d="M25.4132 25.7454H22.1075V29.0511H25.4132V25.7454Z" fill="#4C769B"/>
<path d="M25.4132 29.4666H22.1075V32.7723H25.4132V29.4666Z" fill="#4C769B"/>
<path d="M25.4132 33.1877H22.1075V36.4934H25.4132V33.1877Z" fill="#4C769B"/>
<path d="M29.1705 7.1394H25.8649V10.4451H29.1705V7.1394Z" fill="#4C769B"/>
<path d="M29.1705 10.8606H25.8649V14.1663H29.1705V10.8606Z" fill="#4C769B"/>
<path d="M29.1705 14.582H25.8649V17.8877H29.1705V14.582Z" fill="#4C769B"/>
<path d="M29.1705 18.3032H25.8649V21.6089H29.1705V18.3032Z" fill="#4C769B"/>
<path d="M29.1705 22.0242H25.8649V25.3299H29.1705V22.0242Z" fill="#4C769B"/>
<path d="M29.1705 25.7454H25.8649V29.0511H29.1705V25.7454Z" fill="#4C769B"/>
<path d="M29.1705 29.4666H25.8649V32.7723H29.1705V29.4666Z" fill="#4C769B"/>
<path d="M32.928 7.1394H29.6223V10.4451H32.928V7.1394Z" fill="#4C769B"/>
<path d="M32.928 10.8606H29.6223V14.1663H32.928V10.8606Z" fill="#4C769B"/>
<path d="M32.928 14.582H29.6223V17.8877H32.928V14.582Z" fill="#4C769B"/>
<path d="M32.928 18.3032H29.6223V21.6089H32.928V18.3032Z" fill="#4C769B"/>
<path d="M32.928 22.0242H29.6223V25.3299H32.928V22.0242Z" fill="#4C769B"/>
<path d="M32.928 25.7454H29.6223V29.0511H32.928V25.7454Z" fill="#4C769B"/>
<path d="M32.928 29.4666H29.6223V32.7723H32.928V29.4666Z" fill="#4C769B"/>
<path d="M36.6857 14.582H33.38V17.8877H36.6857V14.582Z" fill="#4C769B"/>
<path d="M36.6857 18.3032H33.38V21.6089H36.6857V18.3032Z" fill="#4C769B"/>
<path d="M36.6857 22.0242H33.38V25.3299H36.6857V22.0242Z" fill="#4C769B"/>
<path d="M21.6554 3.41821H18.3497V6.72391H21.6554V3.41821Z" fill="#4C769B"/>
<path d="M21.6554 7.1394H18.3497V10.4451H21.6554V7.1394Z" fill="#4C769B"/>
<path d="M21.6554 10.8606H18.3497V14.1663H21.6554V10.8606Z" fill="#4C769B"/>
<path d="M21.6554 14.582H18.3497V17.8877H21.6554V14.582Z" fill="#4C769B"/>
<path d="M21.6554 18.3032H18.3497V21.6089H21.6554V18.3032Z" fill="#4C769B"/>
<path d="M21.6554 22.0242H18.3497V25.3299H21.6554V22.0242Z" fill="#4C769B"/>
<path d="M21.6554 25.7454H18.3497V29.0511H21.6554V25.7454Z" fill="#4C769B"/>
<path d="M21.6554 29.4666H18.3497V32.7723H21.6554V29.4666Z" fill="#4C769B"/>
<path d="M21.6554 33.1877H18.3497V36.4934H21.6554V33.1877Z" fill="#4C769B"/>
<path d="M17.8981 3.41821H14.5924V6.72391H17.8981V3.41821Z" fill="#4C769B"/>
<path d="M17.8981 7.1394H14.5924V10.4451H17.8981V7.1394Z" fill="#4C769B"/>
<path d="M17.8981 10.8606H14.5924V14.1663H17.8981V10.8606Z" fill="#4C769B"/>
<path d="M17.8981 14.582H14.5924V17.8877H17.8981V14.582Z" fill="#4C769B"/>
<path d="M17.8981 18.3032H14.5924V21.6089H17.8981V18.3032Z" fill="#4C769B"/>
<path d="M17.8981 22.0242H14.5924V25.3299H17.8981V22.0242Z" fill="#4C769B"/>
<path d="M17.8981 25.7454H14.5924V29.0511H17.8981V25.7454Z" fill="#4C769B"/>
<path d="M17.8981 29.4666H14.5924V32.7723H17.8981V29.4666Z" fill="#4C769B"/>
<path d="M17.8981 33.1877H14.5924V36.4934H17.8981V33.1877Z" fill="#4C769B"/>
<path d="M14.1404 7.1394H10.8347V10.4451H14.1404V7.1394Z" fill="#4C769B"/>
<path d="M14.1404 10.8606H10.8347V14.1663H14.1404V10.8606Z" fill="#4C769B"/>
<path d="M14.1404 14.582H10.8347V17.8877H14.1404V14.582Z" fill="#4C769B"/>
<path d="M14.1404 18.3032H10.8347V21.6089H14.1404V18.3032Z" fill="#4C769B"/>
<path d="M14.1404 22.0242H10.8347V25.3299H14.1404V22.0242Z" fill="#4C769B"/>
<path d="M14.1404 25.7454H10.8347V29.0511H14.1404V25.7454Z" fill="#4C769B"/>
<path d="M14.1404 29.4666H10.8347V32.7723H14.1404V29.4666Z" fill="#4C769B"/>
<path d="M10.383 7.1394H7.07727V10.4451H10.383V7.1394Z" fill="#4C769B"/>
<path d="M10.383 10.8606H7.07727V14.1663H10.383V10.8606Z" fill="#4C769B"/>
<path d="M10.383 14.582H7.07727V17.8877H10.383V14.582Z" fill="#4C769B"/>
<path d="M10.383 18.3032H7.07727V21.6089H10.383V18.3032Z" fill="#4C769B"/>
<path d="M10.383 22.0242H7.07727V25.3299H10.383V22.0242Z" fill="#4C769B"/>
<path d="M10.383 25.7454H7.07727V29.0511H10.383V25.7454Z" fill="#4C769B"/>
<path d="M10.383 29.4666H7.07727V32.7723H10.383V29.4666Z" fill="#4C769B"/>
<path d="M6.62527 14.582H3.31958V17.8877H6.62527V14.582Z" fill="#4C769B"/>
<path d="M6.62527 18.3032H3.31958V21.6089H6.62527V18.3032Z" fill="#4C769B"/>
<path d="M6.62527 22.0242H3.31958V25.3299H6.62527V22.0242Z" fill="#4C769B"/>
<path d="M29.5371 11.7109C29.4923 11.6812 29.4933 11.615 29.5389 11.5862L34.2276 8.65131L25.24 4.69165L21.0162 9.68099C21.0177 9.6816 21.0193 9.68221 21.0205 9.68313C21.2905 9.81705 21.5356 10.0129 21.7192 10.2749L23.5012 12.8791L20.5746 14.5876L18.8818 12.2383L18.8091 12.288L18.6927 12.4256L20.3065 14.7331C20.3065 14.7331 19.3874 15.2737 19.058 15.4714C18.5287 15.7889 18.1316 16.0175 17.8904 16.2335C17.6964 16.4073 17.5585 16.6524 17.5585 16.6524L16.409 15.123L16.3741 15.1643L16.177 15.3969L18.2247 18.0419C18.5036 18.4121 18.621 18.8659 18.5572 19.3226C18.4932 19.7789 18.2551 20.1831 17.8867 20.4604C17.6152 20.6651 17.3155 20.7663 17.0002 20.7663C16.7026 20.7663 16.3912 20.6731 16.0759 20.4953L15.6916 20.97C15.8782 21.446 15.9824 21.7886 15.4961 22.32C14.9497 22.9172 14.3607 22.8143 14.2258 22.7799L13.9362 23.1376L12.1812 25.3051L7.42752 31.2276C7.29606 31.3903 7.04722 31.7397 7.21393 32.0112C7.39473 32.3057 7.74378 32.4123 8.09957 32.1892L13.7055 27.9148L16.2303 25.9897L17.0388 25.3734L25.2406 19.1194C25.2406 19.1194 23.5533 18.7234 22.6076 17.4036C22.5095 17.2666 22.284 17.3144 22.1458 17.4106C22.1458 17.4106 21.387 18.1084 20.0883 18.2432C19.2075 18.3346 18.7003 18.1329 18.3559 17.8295C17.9756 17.4946 17.8545 17.0426 17.8806 16.8124C17.9057 16.5878 18.2155 16.2482 18.4157 16.1431L23.7056 13.166C23.9857 13.0293 24.3237 13.1246 24.4917 13.3872L26.3353 16.2534L30.8876 12.6116L29.5371 11.7109Z" fill="#FABF13"/>
<path d="M17.8907 16.2331C18.1319 16.0174 18.5294 15.7887 19.0583 15.471C19.3877 15.2733 20.3068 14.7327 20.3068 14.7327L18.693 12.4251L18.6875 12.4175L18.628 12.3323C18.0678 11.5622 16.987 11.393 16.2172 11.952C15.8448 12.2229 15.6 12.6231 15.528 13.0785C15.4559 13.5336 15.5663 13.9896 15.839 14.3647L16.4087 15.1228L17.5582 16.6523C17.5585 16.652 17.6964 16.4069 17.8907 16.2331Z" fill="#B81C26"/>
<path d="M17.8868 20.4599C18.2551 20.1825 18.4933 19.7783 18.5573 19.322C18.6211 18.8657 18.5037 18.4115 18.2248 18.0413L16.1771 15.3964L15.6347 14.6958C15.0996 14.0051 14.0969 13.8705 13.3985 14.3964L13.2076 14.5401C12.8619 14.8006 12.6397 15.1806 12.5824 15.6096C12.5248 16.0387 12.6394 16.4634 12.9045 16.806L15.3197 19.7869C15.5945 20.1117 15.8173 20.3492 16.076 20.4951C16.3913 20.6728 16.7027 20.766 17.0002 20.766C17.3156 20.7657 17.6153 20.6649 17.8868 20.4599Z" fill="#B81C26"/>
<path d="M15.4961 22.3198C15.9824 21.7881 15.8782 21.4455 15.6916 20.9699C15.645 20.851 15.5859 20.7361 15.5047 20.634L12.7147 17.1206C12.2977 16.5947 11.5294 16.5074 11.0041 16.9241C10.6796 17.1819 10.4746 17.6553 10.4424 18.2232C10.3955 19.0417 10.7059 19.8897 11.2523 20.4361L11.2959 20.4802C12.5281 21.7216 13.46 22.5858 14.2255 22.7801C14.3607 22.8141 14.9497 22.9171 15.4961 22.3198Z" fill="#B81C26"/>
<path d="M23.5013 12.879L21.7193 10.2748C21.5357 10.0128 21.2905 9.81699 21.0206 9.68307C21.019 9.68246 21.0175 9.68154 21.0163 9.68092C20.4849 9.41921 19.8502 9.41309 19.3446 9.72873C18.9379 9.98247 18.6615 10.3802 18.5659 10.8485C18.4706 11.3171 18.5686 11.7908 18.8426 12.1825L18.8705 12.2223L18.8818 12.238L20.5747 14.5872L23.5013 12.879Z" fill="#B81C26"/>
<path d="M13.9365 23.1374C12.6648 22.7115 11.8266 21.4434 11.8266 21.4434C11.8266 21.4434 11.7056 22.5763 11.8321 23.6992C11.8781 24.1077 12.0509 24.997 12.1815 25.305L13.9365 23.1374Z" fill="#B81C26"/>
<path d="M23.7057 13.1658L18.4157 16.1429C18.2156 16.248 17.9058 16.5876 17.8807 16.8122C17.8549 17.0427 17.9757 17.4944 18.356 17.8293C18.7004 18.133 19.2076 18.3344 20.0883 18.243C21.3871 18.1082 22.1459 17.4104 22.1459 17.4104C22.2841 17.3142 22.5096 17.2664 22.6077 17.4034C23.5537 18.7233 25.2407 19.1192 25.2407 19.1192L16.2488 26.0076L16.2304 25.9895L13.7056 27.9147C13.7117 27.9226 13.9596 28.2291 13.9648 28.2349C14.1576 28.447 14.1248 28.6033 14.1282 28.8064L14.1833 38.5298H24.3109L22.6821 27.7817C22.6337 27.4372 22.7195 27.0872 22.9215 26.8041L28.0359 19.6438C28.1882 19.4305 28.1955 19.1465 28.0545 18.9255L26.3354 16.2526L24.4917 13.3864C24.3241 13.1241 23.9858 13.0291 23.7057 13.1658ZM17.4357 27.4023V29.7163H16.9497V27.4933L16.099 27.1896C16.623 26.6692 16.9497 26.1262 16.9497 26.1262C16.9497 26.1262 17.3067 26.6692 18.165 27.4023H17.4357Z" fill="#B81C26"/>
</svg>
